<?xml version="1.0" encoding="utf-8"?>
<!-- Generator: Adobe Illustrator 21.0.0, SVG Export Plug-In . SVG Version: 6.00 Build 0)  -->
<svg version="1.1" xmlns="http://www.w3.org/2000/svg" xmlns:xlink="http://www.w3.org/1999/xlink" x="0px" y="0px"
	 viewBox="0 0 1280 1280" style="enable-background:new 0 0 1280 1280;" xml:space="preserve">
<style type="text/css">
	.st0{opacity:4.000000e-02;}
	.st1{fill:url(#SVGID_1_);}
	.st2{opacity:0.1;}
	.st3{clip-path:url(#XMLID_373_);}
	.st4{fill:none;stroke:#DCE0DF;stroke-miterlimit:10;}
	.st5{opacity:0.1;fill:none;stroke:#FFFFFF;stroke-width:0.2;stroke-miterlimit:10;}
	.st6{opacity:0.2;}
	.st7{fill:none;stroke:#FFFFFF;stroke-width:0.5;stroke-miterlimit:10;}
	.st8{fill:none;stroke:#FFFFFF;stroke-width:3;stroke-miterlimit:10;}
	.st9{opacity:0.4;fill:none;stroke:#FFFFFF;stroke-width:3;stroke-miterlimit:10;}
	.st10{fill:none;stroke:#FFFFFF;stroke-width:0.2;stroke-miterlimit:10;}
	.st11{fill:none;stroke:#FFFFFF;stroke-width:0.2;stroke-miterlimit:10;stroke-dasharray:3.0148,3.0148;}
	.st12{fill:none;stroke:#FFFFFF;stroke-width:0.2;stroke-miterlimit:10;stroke-dasharray:2.8688,2.8688;}
	.st13{fill:none;stroke:#FFFFFF;stroke-width:2;stroke-miterlimit:10;}
</style>
<g id="video">
</g>
<g id="focus2">
	<g class="st0">
		<g>
			
				<linearGradient id="SVGID_1_" gradientUnits="userSpaceOnUse" x1="642.8357" y1="427.6046" x2="642.8357" y2="997.0008" gradientTransform="matrix(1 0 0 1 0 -79.7634)">
				<stop  offset="0" style="stop-color:#F23E42"/>
				<stop  offset="1" style="stop-color:#5755F0"/>
			</linearGradient>
			<path class="st1" d="M562.6,862.2h-31.2c-0.4,0-0.9-0.2-1.2-0.5L450,781.5c-15.2-15.3-35.5-23.7-57.1-23.7H143.4
				c-11.8,0-21.4,9.6-21.4,21.4v36.4c0,11.8,9.6,21.4,21.4,21.4h249.4c0.4,0,0.9,0.2,1.2,0.5l80.3,80.3
				c15.2,15.3,35.5,23.7,57.1,23.7h31.2c11.8,0,21.4-9.6,21.4-21.4v-36.4C583.9,871.8,574.4,862.2,562.6,862.2z M562.6,338.7h-31.2
				c-21.6,0-41.8,8.4-57.1,23.7L394,442.6c-0.3,0.3-0.7,0.5-1.2,0.5H143.4c-11.8,0-21.4,9.6-21.4,21.4v36.4
				c0,11.8,9.6,21.4,21.4,21.4h249.4c21.6,0,41.8-8.4,57.1-23.7l80.3-80.3c0.3-0.3,0.7-0.5,1.2-0.5h31.2c11.8,0,21.4-9.6,21.4-21.4
				V360C583.9,348.3,574.4,338.7,562.6,338.7z M1142.2,443.1H892.8c-0.4,0-0.9-0.2-1.2-0.5l-80.3-80.3
				c-15.2-15.3-35.5-23.7-57.1-23.7h-31.2c-11.8,0-21.4,9.6-21.4,21.4v36.4c0,11.8,9.6,21.4,21.4,21.4h31.2c0.4,0,0.9,0.2,1.2,0.5
				l80.3,80.3c15.2,15.3,35.5,23.7,57.1,23.7h249.4c11.8,0,21.4-9.6,21.4-21.4v-36.4C1163.6,452.6,1154,443.1,1142.2,443.1z
				 M1142.2,757.8H892.8c-21.6,0-41.8,8.4-57.1,23.7l-80.3,80.3c-0.3,0.3-0.7,0.5-1.2,0.5h-31.2c-11.8,0-21.4,9.6-21.4,21.4V920
				c0,11.8,9.6,21.4,21.4,21.4h31.2c21.6,0,41.8-8.4,57.1-23.7l80.3-80.3c0.3-0.3,0.7-0.5,1.2-0.5h249.4c11.8,0,21.4-9.6,21.4-21.4
				v-36.4C1163.6,767.4,1154,757.8,1142.2,757.8z"/>
		</g>
	</g>
</g>
<g id="circle1">
	<g id="XMLID_1_" class="st2">
		<defs>
			<path id="XMLID_2_" class="st2" d="M642.8,151.2C373.3,151.2,154,370.5,154,640s219.3,488.8,488.8,488.8s488.8-219.3,488.8-488.8
				S912.4,151.2,642.8,151.2z M642.8,1104c-255.9,0-464-208.2-464-464c0-255.9,208.2-464,464-464s464,208.2,464,464
				C1106.9,895.9,898.7,1104,642.8,1104z"/>
		</defs>
		<clipPath id="XMLID_373_">
			<use xlink:href="#XMLID_2_"  style="overflow:visible;"/>
		</clipPath>
		<g id="XMLID_6_" class="st3">
			<g id="XMLID_7_">
				<line id="XMLID_372_" class="st4" x1="642.8" y1="640" x2="642.8" y2="1132.2"/>
				<line id="XMLID_371_" class="st4" x1="642.8" y1="640" x2="651.3" y2="1132.1"/>
				<line id="XMLID_370_" class="st4" x1="642.8" y1="640" x2="659.8" y2="1131.9"/>
				<line id="XMLID_369_" class="st4" x1="642.8" y1="640" x2="668.2" y2="1131.6"/>
				<line id="XMLID_368_" class="st4" x1="642.8" y1="640" x2="676.7" y2="1131.1"/>
				<line id="XMLID_367_" class="st4" x1="642.8" y1="640" x2="685.2" y2="1130.4"/>
				<line id="XMLID_366_" class="st4" x1="642.8" y1="640" x2="693.6" y2="1129.6"/>
				<line id="XMLID_365_" class="st4" x1="642.8" y1="640" x2="702" y2="1128.6"/>
				<line id="XMLID_364_" class="st4" x1="642.8" y1="640" x2="710.4" y2="1127.6"/>
				<line id="XMLID_363_" class="st4" x1="642.8" y1="640" x2="718.8" y2="1126.3"/>
				<line id="XMLID_362_" class="st4" x1="642.8" y1="640" x2="727.2" y2="1124.9"/>
				<line id="XMLID_361_" class="st4" x1="642.8" y1="640" x2="735.5" y2="1123.4"/>
				<line id="XMLID_360_" class="st4" x1="642.8" y1="640" x2="743.8" y2="1121.8"/>
				<line id="XMLID_359_" class="st4" x1="642.8" y1="640" x2="752.1" y2="1119.9"/>
				<line id="XMLID_358_" class="st4" x1="642.8" y1="640" x2="760.3" y2="1118"/>
				<line id="XMLID_357_" class="st4" x1="642.8" y1="640" x2="768.5" y2="1115.9"/>
				<line id="XMLID_356_" class="st4" x1="642.8" y1="640" x2="776.7" y2="1113.7"/>
				<line id="XMLID_355_" class="st4" x1="642.8" y1="640" x2="784.8" y2="1111.3"/>
				<line id="XMLID_354_" class="st4" x1="642.8" y1="640" x2="792.9" y2="1108.8"/>
				<line id="XMLID_353_" class="st4" x1="642.8" y1="640" x2="801" y2="1106.1"/>
				<line id="XMLID_352_" class="st4" x1="642.8" y1="640" x2="809" y2="1103.3"/>
				<line id="XMLID_351_" class="st4" x1="642.8" y1="640" x2="816.9" y2="1100.4"/>
				<line id="XMLID_350_" class="st4" x1="642.8" y1="640" x2="824.8" y2="1097.3"/>
				<line id="XMLID_349_" class="st4" x1="642.8" y1="640" x2="832.7" y2="1094.1"/>
				<line id="XMLID_348_" class="st4" x1="642.8" y1="640" x2="840.5" y2="1090.8"/>
				<line id="XMLID_347_" class="st4" x1="642.8" y1="640" x2="848.2" y2="1087.3"/>
				<line id="XMLID_346_" class="st4" x1="642.8" y1="640" x2="855.9" y2="1083.7"/>
				<line id="XMLID_345_" class="st4" x1="642.8" y1="640" x2="863.5" y2="1080"/>
				<line id="XMLID_344_" class="st4" x1="642.8" y1="640" x2="871" y2="1076.1"/>
				<line id="XMLID_343_" class="st4" x1="642.8" y1="640" x2="878.5" y2="1072.1"/>
				<line id="XMLID_342_" class="st4" x1="642.8" y1="640" x2="885.9" y2="1068"/>
				<line id="XMLID_341_" class="st4" x1="642.8" y1="640" x2="893.2" y2="1063.8"/>
				<line id="XMLID_340_" class="st4" x1="642.8" y1="640" x2="900.5" y2="1059.4"/>
				<line id="XMLID_339_" class="st4" x1="642.8" y1="640" x2="907.7" y2="1054.9"/>
				<line id="XMLID_338_" class="st4" x1="642.8" y1="640" x2="914.8" y2="1050.3"/>
				<line id="XMLID_337_" class="st4" x1="642.8" y1="640" x2="921.8" y2="1045.5"/>
				<line id="XMLID_336_" class="st4" x1="642.8" y1="640" x2="928.7" y2="1040.7"/>
				<line id="XMLID_335_" class="st4" x1="642.8" y1="640" x2="935.6" y2="1035.7"/>
				<line id="XMLID_334_" class="st4" x1="642.8" y1="640" x2="942.4" y2="1030.6"/>
				<line id="XMLID_333_" class="st4" x1="642.8" y1="640" x2="949" y2="1025.4"/>
				<line id="XMLID_332_" class="st4" x1="642.8" y1="640" x2="955.6" y2="1020.1"/>
				<line id="XMLID_331_" class="st4" x1="642.8" y1="640" x2="962.1" y2="1014.6"/>
				<line id="XMLID_330_" class="st4" x1="642.8" y1="640" x2="968.5" y2="1009.1"/>
				<line id="XMLID_329_" class="st4" x1="642.8" y1="640" x2="974.8" y2="1003.4"/>
				<line id="XMLID_328_" class="st4" x1="642.8" y1="640" x2="981" y2="997.6"/>
				<line id="XMLID_327_" class="st4" x1="642.8" y1="640" x2="987.1" y2="991.8"/>
				<line id="XMLID_326_" class="st4" x1="642.8" y1="640" x2="993.2" y2="985.8"/>
				<line id="XMLID_325_" class="st4" x1="642.8" y1="640" x2="999.1" y2="979.7"/>
				<line id="XMLID_324_" class="st4" x1="642.8" y1="640" x2="1004.9" y2="973.5"/>
				<line id="XMLID_323_" class="st4" x1="642.8" y1="640" x2="1010.5" y2="967.2"/>
				<line id="XMLID_322_" class="st4" x1="642.8" y1="640" x2="1016.1" y2="960.9"/>
				<line id="XMLID_321_" class="st4" x1="642.8" y1="640" x2="1021.6" y2="954.4"/>
				<line id="XMLID_320_" class="st4" x1="642.8" y1="640" x2="1026.9" y2="947.8"/>
				<line id="XMLID_319_" class="st4" x1="642.8" y1="640" x2="1032.2" y2="941.2"/>
				<line id="XMLID_318_" class="st4" x1="642.8" y1="640" x2="1037.3" y2="934.4"/>
				<line id="XMLID_317_" class="st4" x1="642.8" y1="640" x2="1042.3" y2="927.6"/>
				<line id="XMLID_316_" class="st4" x1="642.8" y1="640" x2="1047.2" y2="920.7"/>
				<line id="XMLID_315_" class="st4" x1="642.8" y1="640" x2="1052" y2="913.7"/>
				<line id="XMLID_314_" class="st4" x1="642.8" y1="640" x2="1056.6" y2="906.6"/>
				<line id="XMLID_313_" class="st4" x1="642.8" y1="640" x2="1061.2" y2="899.4"/>
				<line id="XMLID_312_" class="st4" x1="642.8" y1="640" x2="1065.6" y2="892.2"/>
				<line id="XMLID_311_" class="st4" x1="642.8" y1="640" x2="1069.8" y2="884.9"/>
				<line id="XMLID_310_" class="st4" x1="642.8" y1="640" x2="1074" y2="877.5"/>
				<line id="XMLID_309_" class="st4" x1="642.8" y1="640" x2="1078" y2="870"/>
				<line id="XMLID_308_" class="st4" x1="642.8" y1="640" x2="1081.9" y2="862.5"/>
				<line id="XMLID_307_" class="st4" x1="642.8" y1="640" x2="1085.7" y2="854.9"/>
				<line id="XMLID_306_" class="st4" x1="642.8" y1="640" x2="1089.3" y2="847.3"/>
				<line id="XMLID_305_" class="st4" x1="642.8" y1="640" x2="1092.8" y2="839.6"/>
				<line id="XMLID_304_" class="st4" x1="642.8" y1="640" x2="1096.2" y2="831.8"/>
				<line id="XMLID_303_" class="st4" x1="642.8" y1="640" x2="1099.4" y2="823.9"/>
				<line id="XMLID_302_" class="st4" x1="642.8" y1="640" x2="1102.5" y2="816.1"/>
				<line id="XMLID_301_" class="st4" x1="642.8" y1="640" x2="1105.5" y2="808.1"/>
				<line id="XMLID_300_" class="st4" x1="642.8" y1="640" x2="1108.3" y2="800.1"/>
				<line id="XMLID_299_" class="st4" x1="642.8" y1="640" x2="1111" y2="792.1"/>
				<line id="XMLID_298_" class="st4" x1="642.8" y1="640" x2="1113.5" y2="784"/>
				<line id="XMLID_297_" class="st4" x1="642.8" y1="640" x2="1116" y2="775.9"/>
				<line id="XMLID_296_" class="st4" x1="642.8" y1="640" x2="1118.2" y2="767.7"/>
				<line id="XMLID_295_" class="st4" x1="642.8" y1="640" x2="1120.4" y2="759.5"/>
				<line id="XMLID_294_" class="st4" x1="642.8" y1="640" x2="1122.3" y2="751.3"/>
				<line id="XMLID_293_" class="st4" x1="642.8" y1="640" x2="1124.2" y2="743"/>
				<line id="XMLID_292_" class="st4" x1="642.8" y1="640" x2="1125.9" y2="734.7"/>
				<line id="XMLID_291_" class="st4" x1="642.8" y1="640" x2="1127.5" y2="726.4"/>
				<line id="XMLID_290_" class="st4" x1="642.8" y1="640" x2="1128.9" y2="718"/>
				<line id="XMLID_289_" class="st4" x1="642.8" y1="640" x2="1130.1" y2="709.7"/>
				<line id="XMLID_288_" class="st4" x1="642.8" y1="640" x2="1131.3" y2="701.3"/>
				<line id="XMLID_287_" class="st4" x1="642.8" y1="640" x2="1132.2" y2="692.8"/>
				<line id="XMLID_286_" class="st4" x1="642.8" y1="640" x2="1133.1" y2="684.4"/>
				<line id="XMLID_285_" class="st4" x1="642.8" y1="640" x2="1133.8" y2="676"/>
				<line id="XMLID_284_" class="st4" x1="642.8" y1="640" x2="1134.3" y2="667.5"/>
				<line id="XMLID_283_" class="st4" x1="642.8" y1="640" x2="1134.7" y2="659.1"/>
				<line id="XMLID_282_" class="st4" x1="642.8" y1="640" x2="1135" y2="650.6"/>
				<line id="XMLID_281_" class="st4" x1="642.8" y1="640" x2="1135.1" y2="642.1"/>
				<line id="XMLID_280_" class="st4" x1="642.8" y1="640" x2="1135.1" y2="633.6"/>
				<line id="XMLID_279_" class="st4" x1="642.8" y1="640" x2="1134.9" y2="625.2"/>
				<line id="XMLID_278_" class="st4" x1="642.8" y1="640" x2="1134.5" y2="616.7"/>
				<line id="XMLID_277_" class="st4" x1="642.8" y1="640" x2="1134.1" y2="608.2"/>
				<line id="XMLID_276_" class="st4" x1="642.8" y1="640" x2="1133.4" y2="599.8"/>
				<line id="XMLID_275_" class="st4" x1="642.8" y1="640" x2="1132.7" y2="591.3"/>
				<line id="XMLID_274_" class="st4" x1="642.8" y1="640" x2="1131.8" y2="582.9"/>
				<line id="XMLID_273_" class="st4" x1="642.8" y1="640" x2="1130.7" y2="574.5"/>
				<line id="XMLID_272_" class="st4" x1="642.8" y1="640" x2="1129.5" y2="566.1"/>
				<line id="XMLID_271_" class="st4" x1="642.8" y1="640" x2="1128.2" y2="557.8"/>
				<line id="XMLID_270_" class="st4" x1="642.8" y1="640" x2="1126.7" y2="549.4"/>
				<line id="XMLID_269_" class="st4" x1="642.8" y1="640" x2="1125.1" y2="541.1"/>
				<line id="XMLID_268_" class="st4" x1="642.8" y1="640" x2="1123.3" y2="532.8"/>
				<line id="XMLID_267_" class="st4" x1="642.8" y1="640" x2="1121.4" y2="524.6"/>
				<line id="XMLID_266_" class="st4" x1="642.8" y1="640" x2="1119.3" y2="516.3"/>
				<line id="XMLID_265_" class="st4" x1="642.8" y1="640" x2="1117.1" y2="508.2"/>
				<line id="XMLID_264_" class="st4" x1="642.8" y1="640" x2="1114.8" y2="500"/>
				<line id="XMLID_263_" class="st4" x1="642.8" y1="640" x2="1112.3" y2="491.9"/>
				<line id="XMLID_262_" class="st4" x1="642.8" y1="640" x2="1109.7" y2="483.9"/>
				<line id="XMLID_261_" class="st4" x1="642.8" y1="640" x2="1106.9" y2="475.8"/>
				<line id="XMLID_260_" class="st4" x1="642.8" y1="640" x2="1104" y2="467.9"/>
				<line id="XMLID_259_" class="st4" x1="642.8" y1="640" x2="1101" y2="460"/>
				<line id="XMLID_258_" class="st4" x1="642.8" y1="640" x2="1097.8" y2="452.1"/>
				<line id="XMLID_257_" class="st4" x1="642.8" y1="640" x2="1094.5" y2="444.3"/>
				<line id="XMLID_256_" class="st4" x1="642.8" y1="640" x2="1091.1" y2="436.6"/>
				<line id="XMLID_255_" class="st4" x1="642.8" y1="640" x2="1087.5" y2="428.9"/>
				<line id="XMLID_254_" class="st4" x1="642.8" y1="640" x2="1083.8" y2="421.3"/>
				<line id="XMLID_253_" class="st4" x1="642.8" y1="640" x2="1080" y2="413.7"/>
				<line id="XMLID_252_" class="st4" x1="642.8" y1="640" x2="1076" y2="406.2"/>
				<line id="XMLID_251_" class="st4" x1="642.8" y1="640" x2="1071.9" y2="398.8"/>
				<line id="XMLID_250_" class="st4" x1="642.8" y1="640" x2="1067.7" y2="391.4"/>
				<line id="XMLID_249_" class="st4" x1="642.8" y1="640" x2="1063.4" y2="384.2"/>
				<line id="XMLID_248_" class="st4" x1="642.8" y1="640" x2="1058.9" y2="377"/>
				<line id="XMLID_247_" class="st4" x1="642.8" y1="640" x2="1054.3" y2="369.8"/>
				<line id="XMLID_246_" class="st4" x1="642.8" y1="640" x2="1049.6" y2="362.8"/>
				<line id="XMLID_245_" class="st4" x1="642.8" y1="640" x2="1044.8" y2="355.8"/>
				<line id="XMLID_244_" class="st4" x1="642.8" y1="640" x2="1039.8" y2="349"/>
				<line id="XMLID_243_" class="st4" x1="642.8" y1="640" x2="1034.8" y2="342.2"/>
				<line id="XMLID_242_" class="st4" x1="642.8" y1="640" x2="1029.6" y2="335.5"/>
				<line id="XMLID_241_" class="st4" x1="642.8" y1="640" x2="1024.3" y2="328.9"/>
				<line id="XMLID_240_" class="st4" x1="642.8" y1="640" x2="1018.9" y2="322.3"/>
				<line id="XMLID_239_" class="st4" x1="642.8" y1="640" x2="1013.3" y2="315.9"/>
				<line id="XMLID_238_" class="st4" x1="642.8" y1="640" x2="1007.7" y2="309.6"/>
				<line id="XMLID_237_" class="st4" x1="642.8" y1="640" x2="1002" y2="303.3"/>
				<line id="XMLID_236_" class="st4" x1="642.8" y1="640" x2="996.1" y2="297.2"/>
				<line id="XMLID_235_" class="st4" x1="642.8" y1="640" x2="990.2" y2="291.2"/>
				<line id="XMLID_234_" class="st4" x1="642.8" y1="640" x2="984.1" y2="285.3"/>
				<line id="XMLID_233_" class="st4" x1="642.8" y1="640" x2="978" y2="279.4"/>
				<line id="XMLID_232_" class="st4" x1="642.8" y1="640" x2="971.7" y2="273.7"/>
				<line id="XMLID_231_" class="st4" x1="642.8" y1="640" x2="965.3" y2="268.1"/>
				<line id="XMLID_230_" class="st4" x1="642.8" y1="640" x2="958.9" y2="262.6"/>
				<line id="XMLID_229_" class="st4" x1="642.8" y1="640" x2="952.3" y2="257.2"/>
				<line id="XMLID_228_" class="st4" x1="642.8" y1="640" x2="945.7" y2="252"/>
				<line id="XMLID_227_" class="st4" x1="642.8" y1="640" x2="939" y2="246.8"/>
				<line id="XMLID_226_" class="st4" x1="642.8" y1="640" x2="932.2" y2="241.8"/>
				<line id="XMLID_225_" class="st4" x1="642.8" y1="640" x2="925.3" y2="236.8"/>
				<line id="XMLID_224_" class="st4" x1="642.8" y1="640" x2="918.3" y2="232"/>
				<line id="XMLID_223_" class="st4" x1="642.8" y1="640" x2="911.2" y2="227.4"/>
				<line id="XMLID_222_" class="st4" x1="642.8" y1="640" x2="904.1" y2="222.8"/>
				<line id="XMLID_221_" class="st4" x1="642.8" y1="640" x2="896.9" y2="218.4"/>
				<line id="XMLID_220_" class="st4" x1="642.8" y1="640" x2="889.6" y2="214.1"/>
				<line id="XMLID_219_" class="st4" x1="642.8" y1="640" x2="882.2" y2="209.9"/>
				<line id="XMLID_218_" class="st4" x1="642.8" y1="640" x2="874.8" y2="205.8"/>
				<line id="XMLID_217_" class="st4" x1="642.8" y1="640" x2="867.3" y2="201.9"/>
				<line id="XMLID_216_" class="st4" x1="642.8" y1="640" x2="859.7" y2="198.1"/>
				<line id="XMLID_215_" class="st4" x1="642.8" y1="640" x2="852" y2="194.4"/>
				<line id="XMLID_214_" class="st4" x1="642.8" y1="640" x2="844.3" y2="190.9"/>
				<line id="XMLID_213_" class="st4" x1="642.8" y1="640" x2="836.6" y2="187.5"/>
				<line id="XMLID_212_" class="st4" x1="642.8" y1="640" x2="828.8" y2="184.2"/>
				<line id="XMLID_211_" class="st4" x1="642.8" y1="640" x2="820.9" y2="181.1"/>
				<line id="XMLID_210_" class="st4" x1="642.8" y1="640" x2="813" y2="178.1"/>
				<line id="XMLID_209_" class="st4" x1="642.8" y1="640" x2="805" y2="175.2"/>
				<line id="XMLID_208_" class="st4" x1="642.8" y1="640" x2="797" y2="172.5"/>
				<line id="XMLID_207_" class="st4" x1="642.8" y1="640" x2="788.9" y2="169.9"/>
				<line id="XMLID_206_" class="st4" x1="642.8" y1="640" x2="780.8" y2="167.5"/>
				<line id="XMLID_205_" class="st4" x1="642.8" y1="640" x2="772.6" y2="165.2"/>
				<line id="XMLID_204_" class="st4" x1="642.8" y1="640" x2="764.4" y2="163"/>
				<line id="XMLID_203_" class="st4" x1="642.8" y1="640" x2="756.2" y2="161"/>
				<line id="XMLID_202_" class="st4" x1="642.8" y1="640" x2="747.9" y2="159.1"/>
				<line id="XMLID_201_" class="st4" x1="642.8" y1="640" x2="739.6" y2="157.4"/>
				<line id="XMLID_200_" class="st4" x1="642.8" y1="640" x2="731.3" y2="155.8"/>
				<line id="XMLID_199_" class="st4" x1="642.8" y1="640" x2="723" y2="154.3"/>
				<line id="XMLID_198_" class="st4" x1="642.8" y1="640" x2="714.6" y2="153"/>
				<line id="XMLID_197_" class="st4" x1="642.8" y1="640" x2="706.2" y2="151.9"/>
				<line id="XMLID_196_" class="st4" x1="642.8" y1="640" x2="697.8" y2="150.8"/>
				<line id="XMLID_195_" class="st4" x1="642.8" y1="640" x2="689.4" y2="150"/>
				<line id="XMLID_194_" class="st4" x1="642.8" y1="640" x2="680.9" y2="149.2"/>
				<line id="XMLID_193_" class="st4" x1="642.8" y1="640" x2="672.5" y2="148.7"/>
				<line id="XMLID_192_" class="st4" x1="642.8" y1="640" x2="664" y2="148.2"/>
				<line id="XMLID_191_" class="st4" x1="642.8" y1="640" x2="655.5" y2="147.9"/>
				<line id="XMLID_190_" class="st4" x1="642.8" y1="640" x2="647.1" y2="147.8"/>
				<line id="XMLID_189_" class="st4" x1="642.8" y1="640" x2="638.6" y2="147.8"/>
				<line id="XMLID_188_" class="st4" x1="642.8" y1="640" x2="630.1" y2="147.9"/>
				<line id="XMLID_187_" class="st4" x1="642.8" y1="640" x2="621.7" y2="148.2"/>
				<line id="XMLID_186_" class="st4" x1="642.8" y1="640" x2="613.2" y2="148.7"/>
				<line id="XMLID_185_" class="st4" x1="642.8" y1="640" x2="604.7" y2="149.2"/>
				<line id="XMLID_184_" class="st4" x1="642.8" y1="640" x2="596.3" y2="150"/>
				<line id="XMLID_183_" class="st4" x1="642.8" y1="640" x2="587.9" y2="150.8"/>
				<line id="XMLID_182_" class="st4" x1="642.8" y1="640" x2="579.5" y2="151.9"/>
				<line id="XMLID_181_" class="st4" x1="642.8" y1="640" x2="571.1" y2="153"/>
				<line id="XMLID_180_" class="st4" x1="642.8" y1="640" x2="562.7" y2="154.3"/>
				<line id="XMLID_179_" class="st4" x1="642.8" y1="640" x2="554.3" y2="155.8"/>
				<line id="XMLID_178_" class="st4" x1="642.8" y1="640" x2="546" y2="157.4"/>
				<line id="XMLID_177_" class="st4" x1="642.8" y1="640" x2="537.7" y2="159.1"/>
				<line id="XMLID_176_" class="st4" x1="642.8" y1="640" x2="529.5" y2="161"/>
				<line id="XMLID_175_" class="st4" x1="642.8" y1="640" x2="521.2" y2="163"/>
				<line id="XMLID_174_" class="st4" x1="642.8" y1="640" x2="513" y2="165.2"/>
				<line id="XMLID_173_" class="st4" x1="642.8" y1="640" x2="504.9" y2="167.5"/>
				<line id="XMLID_172_" class="st4" x1="642.8" y1="640" x2="496.8" y2="169.9"/>
				<line id="XMLID_171_" class="st4" x1="642.8" y1="640" x2="488.7" y2="172.5"/>
				<line id="XMLID_170_" class="st4" x1="642.8" y1="640" x2="480.7" y2="175.2"/>
				<line id="XMLID_169_" class="st4" x1="642.8" y1="640" x2="472.7" y2="178.1"/>
				<line id="XMLID_168_" class="st4" x1="642.8" y1="640" x2="464.8" y2="181.1"/>
				<line id="XMLID_167_" class="st4" x1="642.8" y1="640" x2="456.9" y2="184.2"/>
				<line id="XMLID_166_" class="st4" x1="642.8" y1="640" x2="449.1" y2="187.5"/>
				<line id="XMLID_165_" class="st4" x1="642.8" y1="640" x2="441.3" y2="190.9"/>
				<line id="XMLID_164_" class="st4" x1="642.8" y1="640" x2="433.6" y2="194.4"/>
				<line id="XMLID_163_" class="st4" x1="642.8" y1="640" x2="426" y2="198.1"/>
				<line id="XMLID_162_" class="st4" x1="642.8" y1="640" x2="418.4" y2="201.9"/>
				<line id="XMLID_161_" class="st4" x1="642.8" y1="640" x2="410.9" y2="205.8"/>
				<line id="XMLID_160_" class="st4" x1="642.8" y1="640" x2="403.5" y2="209.9"/>
				<line id="XMLID_159_" class="st4" x1="642.8" y1="640" x2="396.1" y2="214.1"/>
				<line id="XMLID_158_" class="st4" x1="642.8" y1="640" x2="388.8" y2="218.4"/>
				<line id="XMLID_157_" class="st4" x1="642.8" y1="640" x2="381.6" y2="222.8"/>
				<line id="XMLID_156_" class="st4" x1="642.8" y1="640" x2="374.4" y2="227.4"/>
				<line id="XMLID_155_" class="st4" x1="642.8" y1="640" x2="367.4" y2="232"/>
				<line id="XMLID_154_" class="st4" x1="642.8" y1="640" x2="360.4" y2="236.8"/>
				<line id="XMLID_153_" class="st4" x1="642.8" y1="640" x2="353.5" y2="241.8"/>
				<line id="XMLID_152_" class="st4" x1="642.8" y1="640" x2="346.7" y2="246.8"/>
				<line id="XMLID_151_" class="st4" x1="642.8" y1="640" x2="340" y2="252"/>
				<line id="XMLID_150_" class="st4" x1="642.8" y1="640" x2="333.3" y2="257.2"/>
				<line id="XMLID_149_" class="st4" x1="642.8" y1="640" x2="326.8" y2="262.6"/>
				<line id="XMLID_148_" class="st4" x1="642.8" y1="640" x2="320.3" y2="268.1"/>
				<line id="XMLID_147_" class="st4" x1="642.8" y1="640" x2="314" y2="273.7"/>
				<line id="XMLID_146_" class="st4" x1="642.8" y1="640" x2="307.7" y2="279.4"/>
				<line id="XMLID_145_" class="st4" x1="642.8" y1="640" x2="301.6" y2="285.3"/>
				<line id="XMLID_144_" class="st4" x1="642.8" y1="640" x2="295.5" y2="291.2"/>
				<line id="XMLID_143_" class="st4" x1="642.8" y1="640" x2="289.6" y2="297.2"/>
				<line id="XMLID_142_" class="st4" x1="642.8" y1="640" x2="283.7" y2="303.3"/>
				<line id="XMLID_141_" class="st4" x1="642.8" y1="640" x2="278" y2="309.6"/>
				<line id="XMLID_140_" class="st4" x1="642.8" y1="640" x2="272.3" y2="315.9"/>
				<line id="XMLID_139_" class="st4" x1="642.8" y1="640" x2="266.8" y2="322.3"/>
				<line id="XMLID_138_" class="st4" x1="642.8" y1="640" x2="261.4" y2="328.9"/>
				<line id="XMLID_137_" class="st4" x1="642.8" y1="640" x2="256.1" y2="335.5"/>
				<line id="XMLID_136_" class="st4" x1="642.8" y1="640" x2="250.9" y2="342.2"/>
				<line id="XMLID_135_" class="st4" x1="642.8" y1="640" x2="245.8" y2="349"/>
				<line id="XMLID_134_" class="st4" x1="642.8" y1="640" x2="240.9" y2="355.8"/>
				<line id="XMLID_133_" class="st4" x1="642.8" y1="640" x2="236.1" y2="362.8"/>
				<line id="XMLID_132_" class="st4" x1="642.8" y1="640" x2="231.3" y2="369.8"/>
				<line id="XMLID_131_" class="st4" x1="642.8" y1="640" x2="226.8" y2="377"/>
				<line id="XMLID_130_" class="st4" x1="642.8" y1="640" x2="222.3" y2="384.2"/>
				<line id="XMLID_129_" class="st4" x1="642.8" y1="640" x2="217.9" y2="391.4"/>
				<line id="XMLID_128_" class="st4" x1="642.8" y1="640" x2="213.7" y2="398.8"/>
				<line id="XMLID_127_" class="st4" x1="642.8" y1="640" x2="209.6" y2="406.2"/>
				<line id="XMLID_126_" class="st4" x1="642.8" y1="640" x2="205.7" y2="413.7"/>
				<line id="XMLID_125_" class="st4" x1="642.8" y1="640" x2="201.9" y2="421.3"/>
				<line id="XMLID_124_" class="st4" x1="642.8" y1="640" x2="198.2" y2="428.9"/>
				<line id="XMLID_123_" class="st4" x1="642.8" y1="640" x2="194.6" y2="436.6"/>
				<line id="XMLID_122_" class="st4" x1="642.8" y1="640" x2="191.1" y2="444.3"/>
				<line id="XMLID_121_" class="st4" x1="642.8" y1="640" x2="187.8" y2="452.1"/>
				<line id="XMLID_120_" class="st4" x1="642.8" y1="640" x2="184.7" y2="460"/>
				<line id="XMLID_119_" class="st4" x1="642.8" y1="640" x2="181.6" y2="467.9"/>
				<line id="XMLID_118_" class="st4" x1="642.8" y1="640" x2="178.8" y2="475.8"/>
				<line id="XMLID_117_" class="st4" x1="642.8" y1="640" x2="176" y2="483.9"/>
				<line id="XMLID_116_" class="st4" x1="642.8" y1="640" x2="173.4" y2="491.9"/>
				<line id="XMLID_115_" class="st4" x1="642.8" y1="640" x2="170.9" y2="500"/>
				<line id="XMLID_114_" class="st4" x1="642.8" y1="640" x2="168.6" y2="508.2"/>
				<line id="XMLID_113_" class="st4" x1="642.8" y1="640" x2="166.4" y2="516.3"/>
				<line id="XMLID_112_" class="st4" x1="642.8" y1="640" x2="164.3" y2="524.6"/>
				<line id="XMLID_111_" class="st4" x1="642.8" y1="640" x2="162.4" y2="532.8"/>
				<line id="XMLID_110_" class="st4" x1="642.8" y1="640" x2="160.6" y2="541.1"/>
				<line id="XMLID_109_" class="st4" x1="642.8" y1="640" x2="159" y2="549.4"/>
				<line id="XMLID_108_" class="st4" x1="642.8" y1="640" x2="157.5" y2="557.8"/>
				<line id="XMLID_107_" class="st4" x1="642.8" y1="640" x2="156.2" y2="566.1"/>
				<line id="XMLID_106_" class="st4" x1="642.8" y1="640" x2="155" y2="574.5"/>
				<line id="XMLID_105_" class="st4" x1="642.8" y1="640" x2="153.9" y2="582.9"/>
				<line id="XMLID_104_" class="st4" x1="642.8" y1="640" x2="153" y2="591.3"/>
				<line id="XMLID_103_" class="st4" x1="642.8" y1="640" x2="152.2" y2="599.8"/>
				<line id="XMLID_102_" class="st4" x1="642.8" y1="640" x2="151.6" y2="608.2"/>
				<line id="XMLID_101_" class="st4" x1="642.8" y1="640" x2="151.1" y2="616.7"/>
				<line id="XMLID_100_" class="st4" x1="642.8" y1="640" x2="150.8" y2="625.2"/>
				<line id="XMLID_99_" class="st4" x1="642.8" y1="640" x2="150.6" y2="633.6"/>
				<line id="XMLID_98_" class="st4" x1="642.8" y1="640" x2="150.6" y2="642.1"/>
				<line id="XMLID_97_" class="st4" x1="642.8" y1="640" x2="150.7" y2="650.6"/>
				<line id="XMLID_96_" class="st4" x1="642.8" y1="640" x2="150.9" y2="659.1"/>
				<line id="XMLID_95_" class="st4" x1="642.8" y1="640" x2="151.3" y2="667.5"/>
				<line id="XMLID_94_" class="st4" x1="642.8" y1="640" x2="151.9" y2="676"/>
				<line id="XMLID_93_" class="st4" x1="642.8" y1="640" x2="152.6" y2="684.4"/>
				<line id="XMLID_92_" class="st4" x1="642.8" y1="640" x2="153.4" y2="692.8"/>
				<line id="XMLID_91_" class="st4" x1="642.8" y1="640" x2="154.4" y2="701.3"/>
				<line id="XMLID_90_" class="st4" x1="642.8" y1="640" x2="155.5" y2="709.7"/>
				<line id="XMLID_89_" class="st4" x1="642.8" y1="640" x2="156.8" y2="718"/>
				<line id="XMLID_88_" class="st4" x1="642.8" y1="640" x2="158.2" y2="726.4"/>
				<line id="XMLID_87_" class="st4" x1="642.8" y1="640" x2="159.8" y2="734.7"/>
				<line id="XMLID_86_" class="st4" x1="642.8" y1="640" x2="161.5" y2="743"/>
				<line id="XMLID_85_" class="st4" x1="642.8" y1="640" x2="163.3" y2="751.3"/>
				<line id="XMLID_84_" class="st4" x1="642.8" y1="640" x2="165.3" y2="759.5"/>
				<line id="XMLID_83_" class="st4" x1="642.8" y1="640" x2="167.4" y2="767.7"/>
				<line id="XMLID_82_" class="st4" x1="642.8" y1="640" x2="169.7" y2="775.9"/>
				<line id="XMLID_81_" class="st4" x1="642.8" y1="640" x2="172.1" y2="784"/>
				<line id="XMLID_80_" class="st4" x1="642.8" y1="640" x2="174.7" y2="792.1"/>
				<line id="XMLID_79_" class="st4" x1="642.8" y1="640" x2="177.4" y2="800.1"/>
				<line id="XMLID_78_" class="st4" x1="642.8" y1="640" x2="180.2" y2="808.1"/>
				<line id="XMLID_77_" class="st4" x1="642.8" y1="640" x2="183.1" y2="816.1"/>
				<line id="XMLID_76_" class="st4" x1="642.8" y1="640" x2="186.2" y2="823.9"/>
				<line id="XMLID_75_" class="st4" x1="642.8" y1="640" x2="189.5" y2="831.8"/>
				<line id="XMLID_74_" class="st4" x1="642.8" y1="640" x2="192.8" y2="839.6"/>
				<line id="XMLID_73_" class="st4" x1="642.8" y1="640" x2="196.4" y2="847.3"/>
				<line id="XMLID_72_" class="st4" x1="642.8" y1="640" x2="200" y2="854.9"/>
				<line id="XMLID_71_" class="st4" x1="642.8" y1="640" x2="203.8" y2="862.5"/>
				<line id="XMLID_70_" class="st4" x1="642.8" y1="640" x2="207.6" y2="870"/>
				<line id="XMLID_69_" class="st4" x1="642.8" y1="640" x2="211.7" y2="877.5"/>
				<line id="XMLID_68_" class="st4" x1="642.8" y1="640" x2="215.8" y2="884.9"/>
				<line id="XMLID_67_" class="st4" x1="642.8" y1="640" x2="220.1" y2="892.2"/>
				<line id="XMLID_66_" class="st4" x1="642.8" y1="640" x2="224.5" y2="899.4"/>
				<line id="XMLID_65_" class="st4" x1="642.8" y1="640" x2="229" y2="906.6"/>
				<line id="XMLID_64_" class="st4" x1="642.8" y1="640" x2="233.7" y2="913.7"/>
				<line id="XMLID_63_" class="st4" x1="642.8" y1="640" x2="238.5" y2="920.7"/>
				<line id="XMLID_62_" class="st4" x1="642.8" y1="640" x2="243.3" y2="927.6"/>
				<line id="XMLID_61_" class="st4" x1="642.8" y1="640" x2="248.4" y2="934.4"/>
				<line id="XMLID_60_" class="st4" x1="642.8" y1="640" x2="253.5" y2="941.2"/>
				<line id="XMLID_59_" class="st4" x1="642.8" y1="640" x2="258.7" y2="947.8"/>
				<line id="XMLID_58_" class="st4" x1="642.8" y1="640" x2="264.1" y2="954.4"/>
				<line id="XMLID_57_" class="st4" x1="642.8" y1="640" x2="269.6" y2="960.9"/>
				<line id="XMLID_56_" class="st4" x1="642.8" y1="640" x2="275.1" y2="967.2"/>
				<line id="XMLID_55_" class="st4" x1="642.8" y1="640" x2="280.8" y2="973.5"/>
				<line id="XMLID_54_" class="st4" x1="642.8" y1="640" x2="286.6" y2="979.7"/>
				<line id="XMLID_53_" class="st4" x1="642.8" y1="640" x2="292.5" y2="985.8"/>
				<line id="XMLID_52_" class="st4" x1="642.8" y1="640" x2="298.5" y2="991.8"/>
				<line id="XMLID_51_" class="st4" x1="642.8" y1="640" x2="304.6" y2="997.6"/>
				<line id="XMLID_50_" class="st4" x1="642.8" y1="640" x2="310.8" y2="1003.4"/>
				<line id="XMLID_49_" class="st4" x1="642.8" y1="640" x2="317.1" y2="1009.1"/>
				<line id="XMLID_48_" class="st4" x1="642.8" y1="640" x2="323.5" y2="1014.6"/>
				<line id="XMLID_47_" class="st4" x1="642.8" y1="640" x2="330" y2="1020.1"/>
				<line id="XMLID_46_" class="st4" x1="642.8" y1="640" x2="336.6" y2="1025.4"/>
				<line id="XMLID_45_" class="st4" x1="642.8" y1="640" x2="343.3" y2="1030.6"/>
				<line id="XMLID_44_" class="st4" x1="642.8" y1="640" x2="350.1" y2="1035.7"/>
				<line id="XMLID_43_" class="st4" x1="642.8" y1="640" x2="356.9" y2="1040.7"/>
				<line id="XMLID_42_" class="st4" x1="642.8" y1="640" x2="363.9" y2="1045.5"/>
				<line id="XMLID_41_" class="st4" x1="642.8" y1="640" x2="370.9" y2="1050.3"/>
				<line id="XMLID_40_" class="st4" x1="642.8" y1="640" x2="378" y2="1054.9"/>
				<line id="XMLID_39_" class="st4" x1="642.8" y1="640" x2="385.2" y2="1059.4"/>
				<line id="XMLID_38_" class="st4" x1="642.8" y1="640" x2="392.4" y2="1063.8"/>
				<line id="XMLID_37_" class="st4" x1="642.8" y1="640" x2="399.8" y2="1068"/>
				<line id="XMLID_36_" class="st4" x1="642.8" y1="640" x2="407.2" y2="1072.1"/>
				<line id="XMLID_35_" class="st4" x1="642.8" y1="640" x2="414.6" y2="1076.1"/>
				<line id="XMLID_34_" class="st4" x1="642.8" y1="640" x2="422.2" y2="1080"/>
				<line id="XMLID_33_" class="st4" x1="642.8" y1="640" x2="429.8" y2="1083.7"/>
				<line id="XMLID_32_" class="st4" x1="642.8" y1="640" x2="437.5" y2="1087.3"/>
				<line id="XMLID_31_" class="st4" x1="642.8" y1="640" x2="445.2" y2="1090.8"/>
				<line id="XMLID_30_" class="st4" x1="642.8" y1="640" x2="453" y2="1094.1"/>
				<line id="XMLID_29_" class="st4" x1="642.8" y1="640" x2="460.8" y2="1097.3"/>
				<line id="XMLID_28_" class="st4" x1="642.8" y1="640" x2="468.7" y2="1100.4"/>
				<line id="XMLID_27_" class="st4" x1="642.8" y1="640" x2="476.7" y2="1103.3"/>
				<line id="XMLID_26_" class="st4" x1="642.8" y1="640" x2="484.7" y2="1106.1"/>
				<line id="XMLID_25_" class="st4" x1="642.8" y1="640" x2="492.7" y2="1108.8"/>
				<line id="XMLID_24_" class="st4" x1="642.8" y1="640" x2="500.8" y2="1111.3"/>
				<line id="XMLID_23_" class="st4" x1="642.8" y1="640" x2="509" y2="1113.7"/>
				<line id="XMLID_22_" class="st4" x1="642.8" y1="640" x2="517.1" y2="1115.9"/>
				<line id="XMLID_21_" class="st4" x1="642.8" y1="640" x2="525.3" y2="1118"/>
				<line id="XMLID_20_" class="st4" x1="642.8" y1="640" x2="533.6" y2="1119.9"/>
				<line id="XMLID_19_" class="st4" x1="642.8" y1="640" x2="541.9" y2="1121.8"/>
				<line id="XMLID_18_" class="st4" x1="642.8" y1="640" x2="550.2" y2="1123.4"/>
				<line id="XMLID_17_" class="st4" x1="642.8" y1="640" x2="558.5" y2="1124.9"/>
				<line id="XMLID_16_" class="st4" x1="642.8" y1="640" x2="566.9" y2="1126.3"/>
				<line id="XMLID_15_" class="st4" x1="642.8" y1="640" x2="575.3" y2="1127.6"/>
				<line id="XMLID_14_" class="st4" x1="642.8" y1="640" x2="583.7" y2="1128.6"/>
				<line id="XMLID_13_" class="st4" x1="642.8" y1="640" x2="592.1" y2="1129.6"/>
				<line id="XMLID_12_" class="st4" x1="642.8" y1="640" x2="600.5" y2="1130.4"/>
				<line id="XMLID_11_" class="st4" x1="642.8" y1="640" x2="609" y2="1131.1"/>
				<line id="XMLID_10_" class="st4" x1="642.8" y1="640" x2="617.4" y2="1131.6"/>
				<line id="XMLID_9_" class="st4" x1="642.8" y1="640" x2="625.9" y2="1131.9"/>
				<line id="XMLID_8_" class="st4" x1="642.8" y1="640" x2="634.4" y2="1132.1"/>
			</g>
		</g>
	</g>
</g>
<g id="circle2">
	<circle class="st5" cx="642.8" cy="640" r="444.6"/>
</g>
<g id="grid">
	<g>
		<g class="st6">
			<line class="st7" x1="861.6" y1="757.4" x2="871.5" y2="757.4"/>
			<line class="st7" x1="891.6" y1="757.4" x2="901.5" y2="757.4"/>
			<line class="st7" x1="921.6" y1="757.4" x2="931.5" y2="757.4"/>
			<line class="st7" x1="951.6" y1="757.4" x2="961.5" y2="757.4"/>
		</g>
		<g class="st6">
			<line class="st7" x1="861.6" y1="767.4" x2="871.5" y2="767.4"/>
			<line class="st7" x1="891.6" y1="767.4" x2="901.5" y2="767.4"/>
			<line class="st7" x1="921.6" y1="767.4" x2="931.5" y2="767.4"/>
			<line class="st7" x1="951.6" y1="767.4" x2="961.5" y2="767.4"/>
		</g>
		<g class="st6">
			<line class="st7" x1="861.6" y1="777.4" x2="871.5" y2="777.4"/>
			<line class="st7" x1="891.6" y1="777.4" x2="901.5" y2="777.4"/>
			<line class="st7" x1="921.6" y1="777.4" x2="931.5" y2="777.4"/>
			<line class="st7" x1="951.6" y1="777.4" x2="961.5" y2="777.4"/>
		</g>
		<g class="st6">
			<line class="st7" x1="861.6" y1="787.4" x2="871.5" y2="787.4"/>
			<line class="st7" x1="891.6" y1="787.4" x2="901.5" y2="787.4"/>
			<line class="st7" x1="921.6" y1="787.4" x2="931.5" y2="787.4"/>
			<line class="st7" x1="951.6" y1="787.4" x2="961.5" y2="787.4"/>
		</g>
		<g class="st6">
			<line class="st7" x1="861.6" y1="797.4" x2="871.5" y2="797.4"/>
			<line class="st7" x1="891.6" y1="797.4" x2="901.5" y2="797.4"/>
			<line class="st7" x1="921.6" y1="797.4" x2="931.5" y2="797.4"/>
			<line class="st7" x1="951.6" y1="797.4" x2="961.5" y2="797.4"/>
		</g>
		<g class="st6">
			<line class="st7" x1="861.6" y1="807.4" x2="871.5" y2="807.4"/>
			<line class="st7" x1="891.6" y1="807.4" x2="901.5" y2="807.4"/>
			<line class="st7" x1="921.6" y1="807.4" x2="931.5" y2="807.4"/>
			<line class="st7" x1="951.6" y1="807.4" x2="961.5" y2="807.4"/>
		</g>
		<g class="st6">
			<line class="st7" x1="861.6" y1="817.4" x2="871.5" y2="817.4"/>
			<line class="st7" x1="891.6" y1="817.4" x2="901.5" y2="817.4"/>
			<line class="st7" x1="921.6" y1="817.4" x2="931.5" y2="817.4"/>
			<line class="st7" x1="951.6" y1="817.4" x2="961.5" y2="817.4"/>
		</g>
		<g class="st6">
			<line class="st7" x1="861.6" y1="827.4" x2="871.5" y2="827.4"/>
			<line class="st7" x1="891.6" y1="827.4" x2="901.5" y2="827.4"/>
			<line class="st7" x1="921.6" y1="827.4" x2="931.5" y2="827.4"/>
			<line class="st7" x1="951.6" y1="827.4" x2="961.5" y2="827.4"/>
		</g>
		<g class="st6">
			<line class="st7" x1="861.6" y1="837.4" x2="871.5" y2="837.4"/>
			<line class="st7" x1="891.6" y1="837.4" x2="901.5" y2="837.4"/>
			<line class="st7" x1="921.6" y1="837.4" x2="931.5" y2="837.4"/>
			<line class="st7" x1="951.6" y1="837.4" x2="961.5" y2="837.4"/>
		</g>
		<g class="st6">
			<line class="st7" x1="861.6" y1="847.4" x2="871.5" y2="847.4"/>
			<line class="st7" x1="891.6" y1="847.4" x2="901.5" y2="847.4"/>
			<line class="st7" x1="921.6" y1="847.4" x2="931.5" y2="847.4"/>
			<line class="st7" x1="951.6" y1="847.4" x2="961.5" y2="847.4"/>
		</g>
		<g class="st6">
			<line class="st7" x1="861.6" y1="857.4" x2="871.5" y2="857.4"/>
			<line class="st7" x1="891.6" y1="857.4" x2="901.5" y2="857.4"/>
			<line class="st7" x1="921.6" y1="857.4" x2="931.5" y2="857.4"/>
			<line class="st7" x1="951.6" y1="857.4" x2="961.5" y2="857.4"/>
		</g>
		<g class="st6">
			<line class="st7" x1="861.6" y1="867.4" x2="871.5" y2="867.4"/>
			<line class="st7" x1="891.6" y1="867.4" x2="901.5" y2="867.4"/>
			<line class="st7" x1="921.6" y1="867.4" x2="931.5" y2="867.4"/>
			<line class="st7" x1="951.6" y1="867.4" x2="961.5" y2="867.4"/>
		</g>
		<g class="st6">
			<line class="st7" x1="861.6" y1="877.4" x2="871.5" y2="877.4"/>
			<line class="st7" x1="891.6" y1="877.4" x2="901.5" y2="877.4"/>
			<line class="st7" x1="921.6" y1="877.4" x2="931.5" y2="877.4"/>
			<line class="st7" x1="951.6" y1="877.4" x2="961.5" y2="877.4"/>
		</g>
		<g class="st6">
			<line class="st7" x1="861.6" y1="887.4" x2="871.5" y2="887.4"/>
			<line class="st7" x1="891.6" y1="887.4" x2="901.5" y2="887.4"/>
			<line class="st7" x1="921.6" y1="887.4" x2="931.5" y2="887.4"/>
			<line class="st7" x1="951.6" y1="887.4" x2="961.5" y2="887.4"/>
		</g>
		<g class="st6">
			<line class="st7" x1="861.6" y1="897.4" x2="871.5" y2="897.4"/>
			<line class="st7" x1="891.6" y1="897.4" x2="901.5" y2="897.4"/>
			<line class="st7" x1="921.6" y1="897.4" x2="931.5" y2="897.4"/>
			<line class="st7" x1="951.6" y1="897.4" x2="961.5" y2="897.4"/>
		</g>
	</g>
</g>
<g id="crosshair">
	<g>
		<g>
			<path class="st8" d="M704.2,834.5h31.3c9.9,0,19.4-3.9,26.4-11l85.1-85.1c7-7,16.5-11,26.4-11h139.8"/>
			<path class="st8" d="M581.5,834.5h-31.3c-9.9,0-19.4-3.9-26.4-11l-85.1-85.1c-7-7-16.5-11-26.4-11H272.4"/>
			<path class="st8" d="M581.5,447.5h-31.3c-9.9,0-19.4,3.9-26.4,11l-85.1,85.1c-7,7-16.5,11-26.4,11H272.4"/>
			<path class="st8" d="M704.2,447.5h31.3c9.9,0,19.4,3.9,26.4,11l85.1,85.1c7,7,16.5,11,26.4,11h139.8"/>
		</g>
		<line class="st8" x1="595.7" y1="434.5" x2="609.7" y2="434.5"/>
		<line class="st9" x1="595.7" y1="422.5" x2="609.7" y2="422.5"/>
		<line class="st8" x1="671.7" y1="434.5" x2="685.7" y2="434.5"/>
		<line class="st9" x1="671.7" y1="422.5" x2="685.7" y2="422.5"/>
		<line class="st8" x1="685.7" y1="845.5" x2="671.7" y2="845.5"/>
		<line class="st9" x1="685.7" y1="857.5" x2="671.7" y2="857.5"/>
		<line class="st8" x1="609.7" y1="845.5" x2="595.7" y2="845.5"/>
		<line class="st9" x1="609.7" y1="857.5" x2="595.7" y2="857.5"/>
	</g>
</g>
<g id="showreel-button-shadow">
	<g>
		<g>
			<polyline class="st10" points="755.1,586.5 754.4,585.2 752.9,585.2 			"/>
			<line class="st11" x1="749.9" y1="585.2" x2="534.3" y2="585.2"/>
			<polyline class="st10" points="532.8,585.2 531.3,585.2 530.5,586.5 			"/>
			<line class="st12" x1="529.1" y1="589" x2="501.1" y2="637.5"/>
			<polyline class="st10" points="500.4,638.7 499.7,640 500.4,641.3 			"/>
			<line class="st12" x1="501.9" y1="643.8" x2="529.8" y2="692.2"/>
			<polyline class="st10" points="530.5,693.5 531.3,694.8 532.8,694.8 			"/>
			<line class="st11" x1="535.8" y1="694.8" x2="751.4" y2="694.8"/>
			<polyline class="st10" points="752.9,694.8 754.4,694.8 755.1,693.5 			"/>
			<line class="st12" x1="756.6" y1="691" x2="784.5" y2="642.5"/>
			<polyline class="st10" points="785.2,641.3 786,640 785.2,638.7 			"/>
			<line class="st12" x1="783.8" y1="636.2" x2="755.8" y2="587.8"/>
		</g>
	</g>
</g>
<g id="showreel-button">
	<polygon class="st13" points="731.1,608.3 554.5,608.3 536.2,640 554.5,671.7 731.1,671.7 749.5,640 	"/>
</g>
</svg>
