<svg xmlns="http://www.w3.org/2000/svg" width="240" height="165" viewBox="0 0 240 165">
  <g fill="none" fill-rule="evenodd" stroke="#EFEFEF" stroke-linecap="square" opacity=".7">
    <line x1=".5" x2="8.5" y1="4.5" y2="4.5"/>
    <line x1="4.5" x2="4.5" y1=".5" y2="8.5"/>
    <g transform="translate(26)">
      <line x1=".5" x2="8.5" y1="4.5" y2="4.5"/>
      <line x1="4.5" x2="4.5" y1=".5" y2="8.5"/>
    </g>
    <g transform="translate(51)">
      <line x1=".5" x2="8.5" y1="4.5" y2="4.5"/>
      <line x1="4.5" x2="4.5" y1=".5" y2="8.5"/>
    </g>
    <g transform="translate(128)">
      <line x1=".5" x2="8.5" y1="4.5" y2="4.5"/>
      <line x1="4.5" x2="4.5" y1=".5" y2="8.5"/>
    </g>
    <g transform="translate(77)">
      <line x1=".5" x2="8.5" y1="4.5" y2="4.5"/>
      <line x1="4.5" x2="4.5" y1=".5" y2="8.5"/>
    </g>
    <g transform="translate(154)">
      <line x1=".5" x2="8.5" y1="4.5" y2="4.5"/>
      <line x1="4.5" x2="4.5" y1=".5" y2="8.5"/>
    </g>
    <g transform="translate(103)">
      <line x1=".5" x2="8.5" y1="4.5" y2="4.5"/>
      <line x1="4.5" x2="4.5" y1=".5" y2="8.5"/>
    </g>
    <g transform="translate(180)">
      <line x1=".5" x2="8.5" y1="4.5" y2="4.5"/>
      <line x1="4.5" x2="4.5" y1=".5" y2="8.5"/>
    </g>
    <g transform="translate(205)">
      <line x1=".5" x2="8.5" y1="4.5" y2="4.5"/>
      <line x1="4.5" x2="4.5" y1=".5" y2="8.5"/>
    </g>
    <g transform="translate(231)">
      <line x1=".5" x2="8.5" y1="4.5" y2="4.5"/>
      <line x1="4.5" x2="4.5" y1=".5" y2="8.5"/>
    </g>
    <g transform="translate(0 26)">
      <line x1=".5" x2="8.5" y1="4.5" y2="4.5"/>
      <line x1="4.5" x2="4.5" y1=".5" y2="8.5"/>
      <g transform="translate(26)">
        <line x1=".5" x2="8.5" y1="4.5" y2="4.5"/>
        <line x1="4.5" x2="4.5" y1=".5" y2="8.5"/>
      </g>
      <g transform="translate(51)">
        <line x1=".5" x2="8.5" y1="4.5" y2="4.5"/>
        <line x1="4.5" x2="4.5" y1=".5" y2="8.5"/>
      </g>
      <g transform="translate(128)">
        <line x1=".5" x2="8.5" y1="4.5" y2="4.5"/>
        <line x1="4.5" x2="4.5" y1=".5" y2="8.5"/>
      </g>
      <g transform="translate(77)">
        <line x1=".5" x2="8.5" y1="4.5" y2="4.5"/>
        <line x1="4.5" x2="4.5" y1=".5" y2="8.5"/>
      </g>
      <g transform="translate(154)">
        <line x1=".5" x2="8.5" y1="4.5" y2="4.5"/>
        <line x1="4.5" x2="4.5" y1=".5" y2="8.5"/>
      </g>
      <g transform="translate(103)">
        <line x1=".5" x2="8.5" y1="4.5" y2="4.5"/>
        <line x1="4.5" x2="4.5" y1=".5" y2="8.5"/>
      </g>
      <g transform="translate(180)">
        <line x1=".5" x2="8.5" y1="4.5" y2="4.5"/>
        <line x1="4.5" x2="4.5" y1=".5" y2="8.5"/>
      </g>
      <g transform="translate(205)">
        <line x1=".5" x2="8.5" y1="4.5" y2="4.5"/>
        <line x1="4.5" x2="4.5" y1=".5" y2="8.5"/>
      </g>
      <g transform="translate(231)">
        <line x1=".5" x2="8.5" y1="4.5" y2="4.5"/>
        <line x1="4.5" x2="4.5" y1=".5" y2="8.5"/>
      </g>
    </g>
    <g transform="translate(0 130)">
      <line x1=".5" x2="8.5" y1="4.5" y2="4.5"/>
      <line x1="4.5" x2="4.5" y1=".5" y2="8.5"/>
      <g transform="translate(26)">
        <line x1=".5" x2="8.5" y1="4.5" y2="4.5"/>
        <line x1="4.5" x2="4.5" y1=".5" y2="8.5"/>
      </g>
      <g transform="translate(51)">
        <line x1=".5" x2="8.5" y1="4.5" y2="4.5"/>
        <line x1="4.5" x2="4.5" y1=".5" y2="8.5"/>
      </g>
      <g transform="translate(128)">
        <line x1=".5" x2="8.5" y1="4.5" y2="4.5"/>
        <line x1="4.5" x2="4.5" y1=".5" y2="8.5"/>
      </g>
      <g transform="translate(77)">
        <line x1=".5" x2="8.5" y1="4.5" y2="4.5"/>
        <line x1="4.5" x2="4.5" y1=".5" y2="8.5"/>
      </g>
      <g transform="translate(154)">
        <line x1=".5" x2="8.5" y1="4.5" y2="4.5"/>
        <line x1="4.5" x2="4.5" y1=".5" y2="8.5"/>
      </g>
      <g transform="translate(103)">
        <line x1=".5" x2="8.5" y1="4.5" y2="4.5"/>
        <line x1="4.5" x2="4.5" y1=".5" y2="8.5"/>
      </g>
      <g transform="translate(180)">
        <line x1=".5" x2="8.5" y1="4.5" y2="4.5"/>
        <line x1="4.5" x2="4.5" y1=".5" y2="8.5"/>
      </g>
      <g transform="translate(205)">
        <line x1=".5" x2="8.5" y1="4.5" y2="4.5"/>
        <line x1="4.5" x2="4.5" y1=".5" y2="8.5"/>
      </g>
      <g transform="translate(231)">
        <line x1=".5" x2="8.5" y1="4.5" y2="4.5"/>
        <line x1="4.5" x2="4.5" y1=".5" y2="8.5"/>
      </g>
    </g>
    <g transform="translate(0 156)">
      <line x1=".5" x2="8.5" y1="4.5" y2="4.5"/>
      <line x1="4.5" x2="4.5" y1=".5" y2="8.5"/>
      <g transform="translate(26)">
        <line x1=".5" x2="8.5" y1="4.5" y2="4.5"/>
        <line x1="4.5" x2="4.5" y1=".5" y2="8.5"/>
      </g>
      <g transform="translate(51)">
        <line x1=".5" x2="8.5" y1="4.5" y2="4.5"/>
        <line x1="4.5" x2="4.5" y1=".5" y2="8.5"/>
      </g>
      <g transform="translate(128)">
        <line x1=".5" x2="8.5" y1="4.5" y2="4.5"/>
        <line x1="4.5" x2="4.5" y1=".5" y2="8.5"/>
      </g>
      <g transform="translate(77)">
        <line x1=".5" x2="8.5" y1="4.5" y2="4.5"/>
        <line x1="4.5" x2="4.5" y1=".5" y2="8.5"/>
      </g>
      <g transform="translate(154)">
        <line x1=".5" x2="8.5" y1="4.5" y2="4.5"/>
        <line x1="4.5" x2="4.5" y1=".5" y2="8.5"/>
      </g>
      <g transform="translate(103)">
        <line x1=".5" x2="8.5" y1="4.5" y2="4.5"/>
        <line x1="4.5" x2="4.5" y1=".5" y2="8.5"/>
      </g>
      <g transform="translate(180)">
        <line x1=".5" x2="8.5" y1="4.5" y2="4.5"/>
        <line x1="4.5" x2="4.5" y1=".5" y2="8.5"/>
      </g>
      <g transform="translate(205)">
        <line x1=".5" x2="8.5" y1="4.5" y2="4.5"/>
        <line x1="4.5" x2="4.5" y1=".5" y2="8.5"/>
      </g>
      <g transform="translate(231)">
        <line x1=".5" x2="8.5" y1="4.5" y2="4.5"/>
        <line x1="4.5" x2="4.5" y1=".5" y2="8.5"/>
      </g>
    </g>
    <g transform="translate(0 52)">
      <line x1=".5" x2="8.5" y1="4.5" y2="4.5"/>
      <line x1="4.5" x2="4.5" y1=".5" y2="8.5"/>
      <g transform="translate(26)">
        <line x1=".5" x2="8.5" y1="4.5" y2="4.5"/>
        <line x1="4.5" x2="4.5" y1=".5" y2="8.5"/>
      </g>
      <g transform="translate(51)">
        <line x1=".5" x2="8.5" y1="4.5" y2="4.5"/>
        <line x1="4.5" x2="4.5" y1=".5" y2="8.5"/>
      </g>
      <g transform="translate(128)">
        <line x1=".5" x2="8.5" y1="4.5" y2="4.5"/>
        <line x1="4.5" x2="4.5" y1=".5" y2="8.5"/>
      </g>
      <g transform="translate(77)">
        <line x1=".5" x2="8.5" y1="4.5" y2="4.5"/>
        <line x1="4.5" x2="4.5" y1=".5" y2="8.5"/>
      </g>
      <g transform="translate(154)">
        <line x1=".5" x2="8.5" y1="4.5" y2="4.5"/>
        <line x1="4.5" x2="4.5" y1=".5" y2="8.5"/>
      </g>
      <g transform="translate(103)">
        <line x1=".5" x2="8.5" y1="4.5" y2="4.5"/>
        <line x1="4.5" x2="4.5" y1=".5" y2="8.5"/>
      </g>
      <g transform="translate(180)">
        <line x1=".5" x2="8.5" y1="4.5" y2="4.5"/>
        <line x1="4.5" x2="4.5" y1=".5" y2="8.5"/>
      </g>
      <g transform="translate(205)">
        <line x1=".5" x2="8.5" y1="4.5" y2="4.5"/>
        <line x1="4.5" x2="4.5" y1=".5" y2="8.5"/>
      </g>
      <g transform="translate(231)">
        <line x1=".5" x2="8.5" y1="4.5" y2="4.5"/>
        <line x1="4.5" x2="4.5" y1=".5" y2="8.5"/>
      </g>
    </g>
    <g transform="translate(0 78)">
      <line x1=".5" x2="8.5" y1="4.5" y2="4.5"/>
      <line x1="4.5" x2="4.5" y1=".5" y2="8.5"/>
      <g transform="translate(26)">
        <line x1=".5" x2="8.5" y1="4.5" y2="4.5"/>
        <line x1="4.5" x2="4.5" y1=".5" y2="8.5"/>
      </g>
      <g transform="translate(51)">
        <line x1=".5" x2="8.5" y1="4.5" y2="4.5"/>
        <line x1="4.5" x2="4.5" y1=".5" y2="8.5"/>
      </g>
      <g transform="translate(128)">
        <line x1=".5" x2="8.5" y1="4.5" y2="4.5"/>
        <line x1="4.5" x2="4.5" y1=".5" y2="8.5"/>
      </g>
      <g transform="translate(77)">
        <line x1=".5" x2="8.5" y1="4.5" y2="4.5"/>
        <line x1="4.5" x2="4.5" y1=".5" y2="8.5"/>
      </g>
      <g transform="translate(154)">
        <line x1=".5" x2="8.5" y1="4.5" y2="4.5"/>
        <line x1="4.5" x2="4.5" y1=".5" y2="8.5"/>
      </g>
      <g transform="translate(103)">
        <line x1=".5" x2="8.5" y1="4.5" y2="4.5"/>
        <line x1="4.5" x2="4.5" y1=".5" y2="8.5"/>
      </g>
      <g transform="translate(180)">
        <line x1=".5" x2="8.5" y1="4.5" y2="4.5"/>
        <line x1="4.5" x2="4.5" y1=".5" y2="8.5"/>
      </g>
      <g transform="translate(205)">
        <line x1=".5" x2="8.5" y1="4.5" y2="4.5"/>
        <line x1="4.5" x2="4.5" y1=".5" y2="8.5"/>
      </g>
      <g transform="translate(231)">
        <line x1=".5" x2="8.5" y1="4.5" y2="4.5"/>
        <line x1="4.5" x2="4.5" y1=".5" y2="8.5"/>
      </g>
    </g>
    <g transform="translate(0 104)">
      <line x1=".5" x2="8.5" y1="4.5" y2="4.5"/>
      <line x1="4.5" x2="4.5" y1=".5" y2="8.5"/>
      <g transform="translate(26)">
        <line x1=".5" x2="8.5" y1="4.5" y2="4.5"/>
        <line x1="4.5" x2="4.5" y1=".5" y2="8.5"/>
      </g>
      <g transform="translate(51)">
        <line x1=".5" x2="8.5" y1="4.5" y2="4.5"/>
        <line x1="4.5" x2="4.5" y1=".5" y2="8.5"/>
      </g>
      <g transform="translate(128)">
        <line x1=".5" x2="8.5" y1="4.5" y2="4.5"/>
        <line x1="4.5" x2="4.5" y1=".5" y2="8.5"/>
      </g>
      <g transform="translate(77)">
        <line x1=".5" x2="8.5" y1="4.5" y2="4.5"/>
        <line x1="4.5" x2="4.5" y1=".5" y2="8.5"/>
      </g>
      <g transform="translate(154)">
        <line x1=".5" x2="8.5" y1="4.5" y2="4.5"/>
        <line x1="4.5" x2="4.5" y1=".5" y2="8.5"/>
      </g>
      <g transform="translate(103)">
        <line x1=".5" x2="8.5" y1="4.5" y2="4.5"/>
        <line x1="4.5" x2="4.5" y1=".5" y2="8.5"/>
      </g>
      <g transform="translate(180)">
        <line x1=".5" x2="8.5" y1="4.5" y2="4.5"/>
        <line x1="4.5" x2="4.5" y1=".5" y2="8.5"/>
      </g>
      <g transform="translate(205)">
        <line x1=".5" x2="8.5" y1="4.5" y2="4.5"/>
        <line x1="4.5" x2="4.5" y1=".5" y2="8.5"/>
      </g>
      <g transform="translate(231)">
        <line x1=".5" x2="8.5" y1="4.5" y2="4.5"/>
        <line x1="4.5" x2="4.5" y1=".5" y2="8.5"/>
      </g>
    </g>
  </g>
</svg>
