<?xml version="1.0" encoding="UTF-8" standalone="no"?><!DOCTYPE svg PUBLIC "-//W3C//DTD SVG 1.1//EN" "http://www.w3.org/Graphics/SVG/1.1/DTD/svg11.dtd"><svg width="100%" height="100%" viewBox="0 0 220 110" version="1.1" xmlns="http://www.w3.org/2000/svg" xmlns:xlink="http://www.w3.org/1999/xlink" xml:space="preserve" xmlns:serif="http://www.serif.com/" style="fill-rule:evenodd;clip-rule:evenodd;stroke-linejoin:round;stroke-miterlimit:2;"><rect x="-1635" y="-1218" width="7301.84" height="5695.95"/><g id="Logos"><path d="M167.137,60.448l0,-0.554c-0.073,-2.218 -1.284,-4.248 -3.201,-5.366c0.143,-0.105 0.292,-0.2 0.447,-0.286c1.348,-1.203 2.133,-2.916 2.164,-4.722l0,-0.555l0,-0.554l0,-3.023c0.116,-2.061 -0.52,-4.096 -1.789,-5.724c-1.645,-1.646 -4.239,-1.789 -6.403,-1.789l-7.155,0l0,6.726l5.688,0c0.487,0.013 0.971,0.067 1.449,0.161c0.108,0.028 0.206,0.083 0.286,0.161c0.178,0.217 0.279,0.488 0.286,0.769l0,4.328c-0.004,0.314 -0.071,0.625 -0.196,0.913c-0.146,0.191 -0.369,0.308 -0.608,0.322c-0.411,0.04 -0.824,0.04 -1.235,0l-5.616,0l0,6.564l6.314,0c0.515,-0.036 1.032,0.031 1.52,0.197c0.489,0.166 0.126,0 0.161,0c0.021,0.051 0.021,0.109 0,0.161c0.146,0.369 0.213,0.765 0.197,1.162l0,3.882c0.033,0.526 -0.034,1.054 -0.197,1.556l-0.125,0.233c0,0 -0.161,0 -0.232,0.125c-0.473,0.127 -0.96,0.194 -1.449,0.197l-6.225,0l0,6.725l7.316,0c2.647,0 5.724,-0.358 7.316,-2.719c0.773,-1.132 1.219,-2.457 1.287,-3.828l0,-0.679l0,-0.68l0,-3.703Zm-33.985,-20.695c-1.214,1.616 -1.8,3.62 -1.645,5.635l0,3.488c0.012,1.046 0.231,2.079 0.644,3.04c0.401,0.987 1.062,1.846 1.914,2.487l-0.394,0.232c-1.646,1.178 -2.652,3.058 -2.719,5.08l0,5.152c-0.066,2.025 0.616,4.006 1.914,5.562c1.49,1.18 3.341,1.812 5.241,1.789l8.8,0l0,-6.547l-6.099,0c-0.565,0.006 -1.128,-0.048 -1.681,-0.161c-0.129,-0.029 -0.251,-0.083 -0.358,-0.161c-0.108,-0.102 -0.166,-0.245 -0.161,-0.393c-0.081,-0.461 -0.123,-0.927 -0.125,-1.395l0,-3.882c0.019,-0.385 0.097,-0.765 0.232,-1.127c0.033,-0.07 0.075,-0.137 0.125,-0.196c0.072,-0.084 0.177,-0.13 0.287,-0.126c0.452,-0.133 0.924,-0.188 1.395,-0.161l6.403,0l0,-6.564l-5.724,0c-0.499,0.006 -0.998,-0.048 -1.484,-0.161c-0.487,-0.113 -0.197,0 -0.286,-0.125c-0.069,-0.086 -0.124,-0.183 -0.161,-0.286c-0.133,-0.52 -0.188,-1.057 -0.161,-1.592l0,-2.504c-0.04,-0.375 -0.04,-0.753 0,-1.127c-0.006,-0.347 0.18,-0.671 0.483,-0.841c0.333,-0.115 0.684,-0.169 1.037,-0.161l6.171,0l0,-6.761l-7.155,0c-2.2,0 -4.919,0.125 -6.493,1.806Zm-31.713,19.837l-7.53,1.789c-0.176,2.234 -0.067,4.482 0.321,6.689c0.241,1.066 0.781,2.04 1.557,2.809c0.743,0.629 1.636,1.054 2.593,1.234c1.179,0.226 2.377,0.334 3.578,0.322l6.725,0l0,-6.887l-7.155,0l0,-5.956l-0.089,0Zm0.161,-9.731l0,-5.187l7.155,0l0,-6.725c-3.283,-0.132 -6.571,-0.024 -9.838,0.322c-1.186,0.236 -2.258,0.867 -3.041,1.788c-1.878,2.2 -1.449,5.724 -1.449,8.407l7.173,1.395Zm25.489,6.887c-0.646,-1.031 -1.537,-1.885 -2.594,-2.486l-0.125,0l0.125,-0.126l0.358,-0.232c1.253,-1.118 1.97,-2.721 1.967,-4.4l0,-0.555l0,-3.577c0.113,-1.786 -0.304,-3.566 -1.198,-5.116c-0.68,-0.884 -1.638,-1.514 -2.719,-1.789c-1.131,-0.34 -2.307,-0.503 -3.488,-0.482l-6.26,0l0,6.725l4.4,0c0.394,-0.009 0.786,0.046 1.163,0.161c0.376,0.115 0.161,0 0.196,0.125c0.036,0.125 0.197,0.68 0.233,0.966l0,3.935c0,0.394 0,1.127 -0.358,1.36c-0.305,0.167 -0.655,0.236 -1.001,0.196l-11.627,0l0,6.529l10.16,0c1.159,-0.121 2.328,-0.121 3.488,0l0.232,0c0.052,-0.021 0.11,-0.021 0.161,0c0.022,0.064 0.022,0.133 0,0.197c0.202,1.817 0.244,3.649 0.125,5.473c0.006,0.447 -0.048,0.892 -0.161,1.324c-0.02,0.118 -0.114,0.212 -0.232,0.232c-1.123,0.182 -2.265,0.224 -3.399,0.126l-3.416,0l0,6.85l6.368,0c1.364,0.04 2.726,-0.123 4.042,-0.483c1.344,-0.348 2.522,-1.159 3.327,-2.289c0.35,-0.552 0.609,-1.156 0.769,-1.789c0.252,-0.915 0.384,-1.859 0.394,-2.808l0,-0.68l0,-3.255l0,-0.555c-0.031,-1.248 -0.349,-2.472 -0.93,-3.577Zm-56.899,-18.799l-17.529,34.45l8.157,0l3.488,-6.851l12.091,0l-3.72,-7.28l-4.615,0l4.794,-9.408l12.002,23.539l8.281,0l-17.672,-34.45l-5.277,0Z" style="fill:#fff;fill-rule:nonzero;"/></g></svg>