<?xml version="1.0" encoding="UTF-8" standalone="no"?><!DOCTYPE svg PUBLIC "-//W3C//DTD SVG 1.1//EN" "http://www.w3.org/Graphics/SVG/1.1/DTD/svg11.dtd"><svg width="100%" height="100%" viewBox="0 0 146 60" version="1.1" xmlns="http://www.w3.org/2000/svg" xmlns:xlink="http://www.w3.org/1999/xlink" xml:space="preserve" xmlns:serif="http://www.serif.com/" style="fill-rule:evenodd;clip-rule:evenodd;stroke-linejoin:round;stroke-miterlimit:2;"><rect x="-1635" y="-1768" width="7301.84" height="5695.95"/><g id="Logos"></g><g><clipPath id="_clip1"><path d="M2.671,26.575c0.5,-2.6 2.8,-4.4 6,-4.4c3.7,0 6.6,1.6 6.6,6.6l0,9.3l-3.2,0l-0.4,-2c-1.1,1.4 -2.6,2.3 -4.8,2.3c-2.7,0 -4.8,-1.7 -4.8,-4.8c0,-3.1 2.8,-5.1 6.7,-5.1l2.6,0l0,-0.7c0,-1.8 -1.3,-2.3 -2.8,-2.3c-1.1,0 -2.2,0.4 -2.7,1.8l-3.2,-0.7Zm5.1,8.5c1.8,0 3.6,-1.2 3.6,-3.2l0,-0.3l-2.5,0c-1.7,-0.1 -2.7,0.6 -2.7,2c0,0.7 0.6,1.5 1.6,1.5Z" clip-rule="nonzero"/></clipPath><g clip-path="url(#_clip1)"><rect x="-2.929" y="17.175" width="23.2" height="26.2" style="fill:#fff;"/></g><clipPath id="_clip2"><path d="M78.071,26.575c0.5,-2.6 2.8,-4.4 6,-4.4c3.7,0 6.6,1.6 6.6,6.6l0,9.3l-3.2,0l-0.4,-2c-1.1,1.4 -2.6,2.3 -4.8,2.3c-2.7,0 -4.8,-1.7 -4.8,-4.8c0,-3.1 2.8,-5.1 6.7,-5.1l2.6,0l0,-0.7c0,-1.8 -1.3,-2.3 -2.8,-2.3c-1.1,0 -2.2,0.4 -2.7,1.8l-3.2,-0.7Zm5.1,8.5c1.8,0 3.6,-1.2 3.6,-3.2l0,-0.3l-2.6,0c-1.7,0 -2.7,0.6 -2.7,2c0.1,0.7 0.7,1.5 1.7,1.5Z" clip-rule="nonzero"/></clipPath><g clip-path="url(#_clip2)"><rect x="72.471" y="17.175" width="23.2" height="26.2" style="fill:#fff;"/></g><clipPath id="_clip3"><path d="M94.171,38.175l0,-15.8l3.9,0l0,2.6c1.1,-1.9 2.9,-2.8 4.6,-2.8c0.7,0 1.3,0.1 1.9,0.3l-0.7,3.6c-0.5,-0.3 -1,-0.5 -1.6,-0.5c-2.3,0 -4.2,1.9 -4.2,6.9l0,5.6l-3.9,0.1Z" clip-rule="nonzero"/></clipPath><g clip-path="url(#_clip3)"><rect x="89.171" y="17.175" width="20.4" height="26" style="fill:#fff;"/></g><clipPath id="_clip4"><path d="M112.871,22.175c1.6,0 3.1,0.8 3.8,1.7l0,-7.8l3.9,0l0,22.1l-3.9,0l0,-1.6c-0.5,0.8 -1.9,1.9 -3.8,1.9c-4.7,0 -7.1,-3.3 -7.1,-8.1c0,-4.8 2.4,-8.2 7.1,-8.2Zm0.6,12.9c2,0 3.6,-1.7 3.6,-4.8c0,-3.1 -1.6,-4.8 -3.6,-4.8c-2,0 -3.6,1.7 -3.6,4.8c0,3.1 1.6,4.8 3.6,4.8Z" clip-rule="nonzero"/></clipPath><g clip-path="url(#_clip4)"><rect x="100.771" y="11.075" width="24.8" height="32.4" style="fill:#fff;"/></g><clipPath id="_clip5"><path d="M134.571,24.675l-2.3,2.1c-0.7,-1 -1.8,-1.4 -2.6,-1.4c-0.8,0 -1.5,0.5 -1.5,1.3c0,0.7 0.6,1.2 1.5,1.5c2.2,0.8 5.7,1.5 5.7,4.8c0,2.9 -2.2,5.2 -5.6,5.2c-3.3,0 -5.5,-2.3 -6.2,-4.2l3.1,-1.7c0.6,1.5 1.6,2.6 3.2,2.6c1.2,0 2,-0.6 2,-1.7c0,-1.3 -2,-1.6 -3.9,-2.4c-1.7,-0.7 -3.2,-1.8 -3.2,-4.2c0,-2.4 2,-4.6 5,-4.6c2,0.1 3.9,1.2 4.8,2.7Z" clip-rule="nonzero"/></clipPath><g clip-path="url(#_clip5)"><rect x="118.571" y="16.975" width="21.8" height="26.2" style="fill:#fff;"/></g><clipPath id="_clip6"><path d="M53.971,22.375l-2.8,10.9l-2.7,-10.9l-3.6,0l-2.6,10.9l-2.2,-6.3l-0.3,0.7l-1.2,4.1l2,6.4l3.4,0l2.7,-10.2l2.7,10.2l3.5,0l5,-15.8l-3.9,0Z" clip-rule="nonzero"/></clipPath><g clip-path="url(#_clip6)"><rect x="33.571" y="17.375" width="29.3" height="25.8" style="fill:#fff;"/></g><clipPath id="_clip7"><path d="M72.671,22.375l-2.8,10.9l-2.7,-10.9l-3.6,0l-2.6,10.9l-2.2,-6.3l-0.3,0.7l-1.3,4.1l2.1,6.4l3.4,0l2.7,-10.2l2.7,10.2l3.4,0l5.1,-15.8l-3.9,0Z" clip-rule="nonzero"/></clipPath><g clip-path="url(#_clip7)"><rect x="52.171" y="17.375" width="29.4" height="25.8" style="fill:#fff;"/></g><clipPath id="_clip8"><path d="M39.171,22.375l-5,15.7l-3.4,0l-2.7,-10.1l-2.7,10.2l-3.4,0l-5,-15.7l3.9,0l2.8,10.8l2.7,-10.8l3.6,0l2.7,10.8l2.8,-10.8l3.7,-0.1Z" clip-rule="nonzero"/></clipPath><g clip-path="url(#_clip8)"><rect x="11.971" y="17.375" width="32.2" height="25.8" style="fill:#fff;"/></g><clipPath id="_clip9"><path d="M140.471,33.075c1.5,0 2.6,1.1 2.6,2.6c0,1.5 -1.1,2.6 -2.6,2.6c-1.5,0 -2.6,-1.1 -2.6,-2.6c0,-1.5 1.1,-2.6 2.6,-2.6Z" clip-rule="nonzero"/></clipPath><g clip-path="url(#_clip9)"><rect x="132.871" y="28.075" width="15.2" height="15.2" style="fill:#fff;"/></g></g></svg>