<?xml version="1.0" encoding="UTF-8" standalone="no"?><!DOCTYPE svg PUBLIC "-//W3C//DTD SVG 1.1//EN" "http://www.w3.org/Graphics/SVG/1.1/DTD/svg11.dtd"><svg width="100%" height="100%" viewBox="0 0 45 60" version="1.1" xmlns="http://www.w3.org/2000/svg" xmlns:xlink="http://www.w3.org/1999/xlink" xml:space="preserve" xmlns:serif="http://www.serif.com/" style="fill-rule:evenodd;clip-rule:evenodd;stroke-linejoin:round;stroke-miterlimit:2;"><rect x="-2067" y="-1689" width="7301.84" height="5695.95"/><g id="Logos"></g><g><clipPath id="_clip1"><path d="M20.08,10.491c1.203,0 2.188,0.948 2.188,2.152l0,18.341c0,1.203 -0.984,2.188 -2.188,2.188c-1.167,0 -2.15,-0.985 -2.15,-2.188l0,-18.34c0,-1.203 0.983,-2.151 2.15,-2.151l0,-0.002Z"/></clipPath><g clip-path="url(#_clip1)"><rect x="15.982" y="8.544" width="8.233" height="26.576" style="fill:#a5a5a5;"/></g><clipPath id="_clip2"><path d="M25.954,24.529c1.165,0 2.151,0.84 2.151,1.715l0,13.673c0,0.912 -0.986,1.751 -2.151,1.751c-1.169,0 -2.153,-0.876 -2.153,-1.751l0,-13.673c0,-0.875 0.984,-1.715 2.153,-1.715Z"/></clipPath><g clip-path="url(#_clip2)"><rect x="21.853" y="22.582" width="8.2" height="21.034" style="fill:#a5a5a5;"/></g><clipPath id="_clip3"><path d="M31.31,25.44c1.203,0 2.188,0.877 2.188,1.642l0,11.85c0,0.802 -0.985,1.605 -2.188,1.605c-1.167,0 -2.152,-0.876 -2.152,-1.678l0,-11.668c0,-0.803 0.985,-1.751 2.152,-1.751Z"/></clipPath><g clip-path="url(#_clip3)"><rect x="27.211" y="23.492" width="8.235" height="18.992" style="fill:#a5a5a5;"/></g><clipPath id="_clip4"><path d="M36.416,26.5c1.167,0 2.152,1.021 2.152,1.714l0,9.845c0,0.692 -0.985,1.677 -2.152,1.677c-1.203,0 -2.186,-0.875 -2.186,-1.568l0.036,-10.027c0,-0.692 0.947,-1.641 2.15,-1.641l0,0Z"/></clipPath><g clip-path="url(#_clip4)"><rect x="32.282" y="24.552" width="8.233" height="17.131" style="fill:#a5a5a5;"/></g><clipPath id="_clip5"><path d="M25.658,53.517c0,-1.24 1.132,-2.042 2.226,-2.042c4.046,0 7.001,-3.428 7.001,-7.657l0,-0.73c0,-0.802 0.911,-1.932 2.04,-1.932c1.167,0 2.042,1.203 2.042,2.005c0,0.218 0.038,0.402 0.038,0.619c-0.073,7.039 -4.231,11.961 -11.304,11.996c-1.167,0 -2.043,-1.021 -2.043,-2.259l0,0Z"/></clipPath><g clip-path="url(#_clip5)"><rect x="23.71" y="39.208" width="17.243" height="18.516" style="fill:#a5a5a5;"/></g><clipPath id="_clip6"><path d="M24.894,53.739c0,-1.058 -0.913,-2.152 -2.043,-2.152c-4.046,0 -6.672,-3.209 -6.672,-7.585l0,-9.371c0,-4.338 -2.298,-8.46 -6.199,-10.539c-0.183,-0.108 -0.364,-0.181 -0.51,-0.29c-0.694,-0.329 -2.08,-0.037 -2.589,1.021c-0.51,1.021 0.036,2.407 0.73,2.77l0.291,0.148c0,0 0.255,0.144 0.29,0.144c2.482,1.35 3.866,3.975 3.939,6.745l0,9.372c0,0.073 0,0.146 0.037,0.219c0.146,6.489 4.594,11.813 10.794,11.594c0.765,-0.036 1.932,-0.909 1.932,-2.076l0,0Z"/></clipPath><g clip-path="url(#_clip6)"><rect x="4.733" y="21.726" width="22.109" height="36.044" style="fill:#a5a5a5;"/></g><clipPath id="_clip7"><path d="M20.154,1.23l2.261,6.927l7.22,0l-5.835,4.267l2.224,6.891l-5.87,-4.265l-5.87,4.265l2.261,-6.891l-5.87,-4.267l7.256,0l2.223,-6.927Z"/></clipPath><g clip-path="url(#_clip7)"><rect x="8.727" y="-0.718" width="22.855" height="21.98" style="fill:#fff;"/></g></g></svg>