<?xml version="1.0" encoding="UTF-8" standalone="no"?><!DOCTYPE svg PUBLIC "-//W3C//DTD SVG 1.1//EN" "http://www.w3.org/Graphics/SVG/1.1/DTD/svg11.dtd"><svg width="100%" height="100%" viewBox="0 0 34 60" version="1.1" xmlns="http://www.w3.org/2000/svg" xmlns:xlink="http://www.w3.org/1999/xlink" xml:space="preserve" xmlns:serif="http://www.serif.com/" style="fill-rule:evenodd;clip-rule:evenodd;stroke-linejoin:round;stroke-miterlimit:2;"><rect x="-2158" y="-1689" width="7301.84" height="5695.95"/><g id="Logos"></g><g><clipPath id="_clip1"><path d="M3.11,2.011l0,53.03l14.467,-8.141l14.374,8.141l0,-53.03l-28.841,0Z" clip-rule="nonzero"/></clipPath><g clip-path="url(#_clip1)"><rect x="0.784" y="-0.315" width="33.493" height="57.682" style="fill:#fff;"/></g><clipPath id="_clip2"><path d="M24.554,30.014l-4.372,0l0,-1.069l4.372,0l0,1.069Zm-7.257,4.094c0.326,0.465 0.466,1.07 0.466,1.721c0,0.558 -0.093,1.024 -0.326,1.396c-0.233,0.418 -0.512,0.744 -0.837,0.977c-0.372,0.232 -0.745,0.418 -1.21,0.558c-0.465,0.139 -0.93,0.186 -1.395,0.186l-5.21,0l0,-10.746l5.07,0c0.512,0 0.977,0.047 1.396,0.14c0.418,0.093 0.79,0.232 1.07,0.465c0.279,0.186 0.511,0.465 0.697,0.837c0.186,0.326 0.233,0.745 0.233,1.256c0,0.559 -0.14,0.977 -0.372,1.349c-0.233,0.372 -0.605,0.652 -1.117,0.884c0.745,0.186 1.21,0.512 1.535,0.977Zm-6.14,-1.535l2.373,0c0.418,0 0.744,-0.093 1.023,-0.279c0.279,-0.186 0.419,-0.512 0.419,-0.977c0,-0.233 -0.047,-0.465 -0.14,-0.605c-0.093,-0.139 -0.233,-0.279 -0.372,-0.372c-0.14,-0.093 -0.326,-0.139 -0.512,-0.186c-0.186,-0.046 -0.418,-0.046 -0.605,-0.046l-2.232,0l0.046,2.465Zm4.28,3.117c0,-0.559 -0.14,-0.931 -0.465,-1.163c-0.326,-0.233 -0.745,-0.372 -1.21,-0.372l-2.558,0l0,2.977l2.512,0c0.232,0 0.465,0 0.651,-0.047c0.232,-0.046 0.419,-0.139 0.558,-0.232c0.14,-0.093 0.279,-0.233 0.372,-0.419c0.093,-0.233 0.14,-0.465 0.14,-0.744Zm10.792,-0.093l-5.582,0c0,0.604 0.186,1.209 0.511,1.488c0.326,0.326 0.791,0.465 1.396,0.465c0.419,0 0.791,-0.093 1.116,-0.325c0.326,-0.233 0.512,-0.465 0.559,-0.698l1.86,0c-0.279,0.93 -0.744,1.582 -1.395,2c-0.605,0.419 -1.349,0.605 -2.233,0.605c-0.605,0 -1.163,-0.093 -1.675,-0.279c-0.511,-0.186 -0.93,-0.465 -1.256,-0.838c-0.325,-0.372 -0.604,-0.79 -0.79,-1.302c-0.187,-0.512 -0.28,-1.07 -0.28,-1.675c0,-0.558 0.093,-1.116 0.28,-1.628c0.186,-0.511 0.465,-0.93 0.79,-1.302c0.372,-0.372 0.791,-0.651 1.256,-0.884c0.465,-0.233 1.024,-0.326 1.628,-0.326c0.652,0 1.256,0.14 1.722,0.372c0.511,0.233 0.883,0.605 1.209,1.024c0.326,0.418 0.558,0.93 0.698,1.488c0.186,0.605 0.232,1.21 0.186,1.815Zm-2.14,-1.349c-0.046,-0.559 -0.233,-0.931 -0.512,-1.21c-0.232,-0.279 -0.697,-0.419 -1.209,-0.419c-0.326,0 -0.605,0.047 -0.837,0.187c-0.233,0.093 -0.419,0.279 -0.559,0.418c-0.139,0.186 -0.232,0.372 -0.279,0.558c-0.046,0.186 -0.093,0.373 -0.093,0.512l3.489,0l0,-0.046Z" clip-rule="nonzero"/></clipPath><g clip-path="url(#_clip2)"><rect x="6.459" y="25.874" width="22.113" height="15.583"/></g></g></svg>