<?xml version="1.0" encoding="UTF-8" standalone="no"?><!DOCTYPE svg PUBLIC "-//W3C//DTD SVG 1.1//EN" "http://www.w3.org/Graphics/SVG/1.1/DTD/svg11.dtd"><svg width="100%" height="100%" viewBox="0 0 220 110" version="1.1" xmlns="http://www.w3.org/2000/svg" xmlns:xlink="http://www.w3.org/1999/xlink" xml:space="preserve" xmlns:serif="http://www.serif.com/" style="fill-rule:evenodd;clip-rule:evenodd;stroke-linejoin:round;stroke-miterlimit:2;"><rect x="-2075" y="-1218" width="7301.84" height="5695.95"/><g id="Logos"><g><clipPath id="_clip1"><path d="M66.942,81.873c0,0 0.034,-4.328 -0.086,-5.891c-0.121,-1.578 -0.221,-2.818 -0.727,-5.864c-0.442,-2.655 -0.781,-3.774 -1.349,-5.413c-0.552,-1.598 -1.748,-3.802 -2.374,-5.086c-0.628,-1.284 -1.563,-2.746 -2.333,-5.378c-0.69,-2.358 -1.034,-4.922 -1.006,-5.407l0.029,-0.485c0,0 0.428,1.797 1.255,3.167c0.828,1.37 1.826,2.482 2.396,2.853c0.572,0.371 0.913,0.457 0.942,-0.029c0.029,-0.484 -0.285,-1.284 0.514,-0.798c0.799,0.485 2.111,1.54 3.024,2.767c0.913,1.227 1.883,2.797 2.34,3.51c0.456,0.713 0.542,0.884 1.027,0.998c0.485,0.114 0.828,-0.285 1.227,-0.741c0.399,-0.457 0.542,-0.571 0.799,-1.398c0.257,-0.828 0.341,-1.113 0.37,-1.57c0.029,-0.456 -0.085,-1.255 0,-1.455c0.087,-0.199 0.115,-0.485 0.315,-0.172c0.199,0.315 0.684,0.971 0.856,2.055c0.171,1.084 0.512,2.225 0.227,5.735c-0.284,3.509 -0.256,2.911 -0.399,4.223c-0.142,1.311 -0.371,2.681 -0.371,2.681c0,0 1.512,-2.995 1.998,-4.194c0.484,-1.197 1.647,-4.689 1.704,-5.916c0.057,-1.227 0.264,-3.956 -0.278,-6.267c-0.543,-2.311 -0.655,-2.568 -0.655,-2.568c0,0 1.453,1.113 2.681,3.225c1.226,2.111 1.626,3.523 1.711,4.95c0.086,1.427 -0.085,2.867 -0.284,3.895c-0.201,1.026 -0.628,2.282 -0.628,2.282c0,0 1.169,-1.454 2.082,-2.196c0.914,-0.743 1.444,-0.941 2.071,-1.74c0.627,-0.799 0.869,-1.285 0.982,-1.999c0.115,-0.713 0.144,-1.797 0.144,-1.797c0,0 1.498,1.73 1.539,4.765c0.029,2.155 -0.541,4.451 -3.622,7.703c-3.082,3.253 -3.51,3.481 -4.965,4.936c-1.454,1.455 -2.797,2.882 -3.509,4.136c-0.714,1.256 -0.91,1.841 -1.037,2.38c-0.181,0.759 0.009,1.387 0.009,1.387c0,0 -0.598,-0.285 -0.855,-0.741c-0.257,-0.458 -0.486,-0.743 -0.657,-1.855c-0.171,-1.113 -0.314,-1.798 -0.314,-1.798c0,0 -0.4,2.312 -1.027,3.938c-0.628,1.626 -1.684,3.823 -1.684,3.823c0,0 1.028,-1.114 1.484,-2.026c0.456,-0.913 1.171,-2.51 1.171,-2.51c0,0 0.303,0.656 0.822,1.027c0.518,0.37 1.517,0.798 1.517,0.798c0,0 -0.535,-1.152 -0.079,-2.29c0.534,-1.331 0.935,-2.19 2.845,-4.044c1.913,-1.855 5.201,-4.879 6.314,-5.82c1.112,-0.942 5.01,-5.149 4.72,-9.8c-0.289,-4.651 -1.19,-6.12 -3.758,-10.2c-2.567,-4.08 -2.681,-3.766 -3.452,-4.879c-0.77,-1.113 -1.226,-1.451 -1.455,-2.122c-0.16,-0.471 -0.071,-0.991 -0.017,-1.225c0.031,-0.144 0.331,-0.908 0.331,-0.908c0,0 -0.703,0.672 -0.913,1.288c-0.428,1.252 -0.171,1.711 0.599,3.28c0.77,1.57 0.97,1.97 1.027,2.54l0.058,0.57c0,0 -1.457,-1.768 -2.626,-3.537c-1.169,-1.77 -2.387,-3.051 -3.224,-5.603c-0.428,-1.305 -0.456,-3.242 -0.028,-4.526c0.428,-1.284 0.599,-1.712 0.599,-1.712c0,0 -1.911,2.282 -2.225,4.08c-0.315,1.797 -0.014,3.281 0.706,5.763c0.721,2.483 2.29,6.049 2.718,8.018c0.428,1.968 0.626,2.996 0.57,5.107c-0.057,2.111 -0.229,3.053 -0.57,4.08c-0.343,1.027 -0.771,1.712 -0.771,1.712c0,0 0.456,-3.73 -0.806,-8.267c-1.337,-4.807 -3.418,-5.685 -4.9,-9.166c-1.484,-3.481 -2.083,-5.05 -1.997,-7.503c0.085,-2.454 0.399,-3.757 1.312,-6.477c0.714,-2.125 1.313,-2.04 1.427,-4.851c0.075,-1.855 -0.428,-3.68 -0.428,-3.68c0,0 -0.642,2.932 -1.384,4.009c-1.062,1.541 -1.896,2.174 -2.794,3.179c-1.034,1.157 -1.671,2.883 -1.671,2.883c0,0 -0.2,-0.37 -0.029,-1.112c0.171,-0.742 0.322,-1.031 0.399,-1.941c0.083,-0.955 0.019,-1.119 -0.153,-1.661c-0.171,-0.542 -0.588,-0.906 -0.588,-0.906c0,0 0.404,0.98 0.256,1.483c-0.417,1.424 -1.198,1.712 -3.023,4.765c-1.827,3.053 -2.683,5.136 -3.31,8.217c-0.628,3.082 -0.685,4.401 -0.257,7.597c0.428,3.195 1.655,6.098 2.339,7.411c0.686,1.312 3.823,6.369 4.615,8.787c1.326,4.047 1.284,4.842 1.712,7.254c0.316,1.78 0.835,8.267 0.835,8.267Z"/></clipPath><g clip-path="url(#_clip1)"><rect x="54.119" y="20.595" width="36.76" height="68.975" style="fill:#fff;"/></g><clipPath id="_clip2"><path d="M77.383,29.721c0,0 1.134,0.835 1.091,2.676c-0.043,1.839 -0.471,2.353 -0.642,2.931c-0.172,0.578 -0.385,1.07 -0.343,1.755c0.044,0.684 0.771,1.52 0.771,1.52c0,0 -2.083,-0.431 -1.969,-2.547c0.086,-1.584 0.599,-1.691 1.092,-3.36c0.499,-1.688 0,-2.975 0,-2.975Z"/></clipPath><g clip-path="url(#_clip2)"><rect x="73.241" y="26.676" width="8.28" height="14.973" style="fill:#fff;"/></g><clipPath id="_clip3"><path d="M110.834,69.609c0,0 -0.044,0.664 -0.505,1.172c-0.548,0.605 -1.208,0.668 -1.208,0.668l-2.996,0l0,-15.45l3.225,0c0,0 0.789,0.031 1.132,0.459c0.342,0.427 0.352,1.01 0.352,1.01l0,12.141Zm4.023,2.697l0,-17.676c0,0 -0.087,-0.898 -1.114,-1.969c-1.026,-1.07 -1.925,-0.984 -1.925,-0.984l-5.693,0l0,-8.604l-4.493,0l0,31.885l10.6,0c0,0 0.744,-0.046 1.6,-0.816c0.855,-0.77 1.025,-1.836 1.025,-1.836Z"/></clipPath><g clip-path="url(#_clip3)"><rect x="98.586" y="40.027" width="19.316" height="37.976" style="fill:#fff;"/></g><clipPath id="_clip4"><path d="M145.615,51.667l-6.544,-0.011c0,0 -0.768,0.021 -1.591,1.073c-0.817,1.049 -0.797,1.779 -0.797,1.779l0,20.429l4.665,0l-0.014,-17.078c0,0 0.037,-0.685 0.437,-1.256c0.398,-0.57 0.883,-0.626 0.883,-0.626l2.961,0l0,-4.31Z"/></clipPath><g clip-path="url(#_clip4)"><rect x="133.638" y="48.61" width="15.023" height="29.373" style="fill:#fff;"/></g><clipPath id="_clip5"><path d="M119.114,51.677l4.665,0l0,17.891c0,0 0.037,0.686 0.436,1.256c0.399,0.571 0.885,0.625 0.885,0.625l3.395,0l0,-19.772l4.223,0l0,23.26l-11.214,0.021c0,0 -0.769,-0.021 -1.592,-1.073c-0.817,-1.049 -0.798,-1.779 -0.798,-1.779l0,-20.429Z"/></clipPath><g clip-path="url(#_clip5)"><rect x="116.069" y="48.631" width="19.695" height="29.373" style="fill:#fff;"/></g><clipPath id="_clip6"><path d="M162.634,74.958l-4.665,0l0.014,-17.075c0,0 -0.036,-0.687 -0.436,-1.256c-0.399,-0.571 -0.885,-0.628 -0.885,-0.628l-3.395,0l-0.014,18.959l-4.221,0l0,-23.259l11.214,-0.022c0,0 0.768,0.022 1.589,1.074c0.819,1.048 0.799,1.779 0.799,1.779l0,20.428Z"/></clipPath><g clip-path="url(#_clip6)"><rect x="145.986" y="48.631" width="19.694" height="29.373" style="fill:#fff;"/></g></g></g></svg>