<?xml version="1.0" encoding="UTF-8" standalone="no"?><!DOCTYPE svg PUBLIC "-//W3C//DTD SVG 1.1//EN" "http://www.w3.org/Graphics/SVG/1.1/DTD/svg11.dtd"><svg width="100%" height="100%" viewBox="0 0 210 60" version="1.1" xmlns="http://www.w3.org/2000/svg" xmlns:xlink="http://www.w3.org/1999/xlink" xml:space="preserve" xmlns:serif="http://www.serif.com/" style="fill-rule:evenodd;clip-rule:evenodd;stroke-linejoin:round;stroke-miterlimit:2;"><g id="Logos"></g><g><clipPath id="_clip1"><path d="M21.562,35.346l-10.249,-10.135l10.249,-10.136l-10.249,0l-10.25,10.136l5.125,5.125l5.125,5.01l5.124,5.011l5.125,-5.011Z" clip-rule="nonzero"/></clipPath><g clip-path="url(#_clip1)"><rect x="-5.256" y="8.756" width="33.137" height="37.92" style="fill:#fff;"/></g><clipPath id="_clip2"><path d="M28.85,30.336l-5.124,-5.125l-5.125,-5.011l-5.011,5.011l10.136,10.135l-10.25,10.136l10.25,0l5.124,-5.011l5.125,-5.125l-5.125,-5.01Z" clip-rule="nonzero"/></clipPath><g clip-path="url(#_clip2)"><rect x="7.157" y="13.881" width="33.137" height="37.92" style="fill:#fff;"/></g><clipPath id="_clip3"><path d="M46.73,25.211c-1.481,0 -2.733,0.455 -3.644,1.48c-0.911,1.025 -1.367,2.392 -1.367,4.214c0,1.822 0.456,3.189 1.253,4.214c0.911,1.025 2.05,1.48 3.644,1.48c1.025,0 2.05,-0.228 3.303,-0.569l0,1.48c-1.025,0.342 -2.164,0.57 -3.531,0.57c-2.05,0 -3.644,-0.57 -4.783,-1.823c-1.139,-1.252 -1.708,-3.074 -1.708,-5.352c0,-1.48 0.228,-2.733 0.797,-3.758c0.57,-1.025 1.367,-1.936 2.278,-2.506c0.911,-0.569 2.164,-0.911 3.644,-0.911c1.48,0 2.733,0.228 3.872,0.798l-0.683,1.366c-0.911,-0.341 -1.936,-0.683 -3.075,-0.683Z" clip-rule="nonzero"/></clipPath><g clip-path="url(#_clip3)"><rect x="33.578" y="17.411" width="23.229" height="26.987" style="fill:#fff;"/></g><clipPath id="_clip4"><path d="M60.965,34.208c0,1.252 -0.455,2.163 -1.366,2.847c-0.912,0.683 -2.05,1.025 -3.645,1.025c-1.708,0 -2.961,-0.228 -3.872,-0.684l0,-1.594c0.57,0.228 1.253,0.455 1.822,0.569c0.57,0.114 1.367,0.228 2.05,0.228c1.139,0 1.936,-0.228 2.392,-0.569c0.569,-0.456 0.797,-1.025 0.797,-1.709c0,-0.455 -0.114,-0.911 -0.342,-1.138c-0.227,-0.342 -0.569,-0.57 -1.025,-0.911c-0.455,-0.228 -1.138,-0.57 -2.049,-0.912c-1.253,-0.455 -2.278,-1.024 -2.734,-1.708c-0.569,-0.683 -0.797,-1.48 -0.797,-2.505c0,-1.025 0.456,-1.936 1.253,-2.619c0.797,-0.684 1.936,-0.911 3.189,-0.911c1.366,0 2.619,0.227 3.872,0.797l-0.456,1.366c-1.139,-0.455 -2.278,-0.683 -3.416,-0.683c-0.911,0 -1.481,0.228 -2.05,0.569c-0.456,0.342 -0.684,0.911 -0.684,1.595c0,0.455 0.114,0.911 0.228,1.139c0.228,0.341 0.456,0.569 0.911,0.797c0.456,0.228 1.025,0.569 1.936,0.911c1.481,0.569 2.506,1.139 3.075,1.708c0.683,0.683 0.911,1.48 0.911,2.392Z" clip-rule="nonzero"/></clipPath><g clip-path="url(#_clip4)"><rect x="45.763" y="17.297" width="21.521" height="27.101" style="fill:#fff;"/></g><clipPath id="_clip5"><path d="M71.784,34.208c0,1.252 -0.456,2.163 -1.367,2.847c-0.911,0.683 -2.05,1.025 -3.644,1.025c-1.708,0 -2.961,-0.228 -3.872,-0.684l0,-1.594c0.569,0.228 1.253,0.455 1.822,0.569c0.57,0.114 1.367,0.228 2.05,0.228c1.139,0 1.936,-0.228 2.392,-0.569c0.569,-0.456 0.797,-1.025 0.797,-1.709c0,-0.455 -0.114,-0.911 -0.342,-1.138c-0.228,-0.342 -0.569,-0.57 -1.025,-0.911c-0.455,-0.228 -1.139,-0.57 -2.05,-0.912c-1.252,-0.455 -2.277,-1.024 -2.733,-1.708c-0.569,-0.683 -0.797,-1.48 -0.797,-2.505c0,-1.025 0.455,-1.936 1.253,-2.619c0.797,-0.684 1.936,-0.911 3.188,-0.911c1.367,0 2.62,0.227 3.872,0.797l-0.455,1.366c-1.139,-0.455 -2.278,-0.683 -3.417,-0.683c-0.911,0 -1.48,0.228 -2.05,0.569c-0.455,0.342 -0.683,0.911 -0.683,1.595c0,0.455 0.114,0.911 0.228,1.139c0.228,0.341 0.455,0.569 0.911,0.797c0.456,0.228 1.025,0.569 1.936,0.911c1.48,0.569 2.505,1.139 3.075,1.708c0.569,0.683 0.911,1.48 0.911,2.392Z" clip-rule="nonzero"/></clipPath><g clip-path="url(#_clip5)"><rect x="56.582" y="17.297" width="21.521" height="27.101" style="fill:#fff;"/></g><clipPath id="_clip6"><path d="M86.019,30.677c0,2.278 -0.683,4.1 -1.936,5.353c-1.253,1.252 -3.075,1.936 -5.466,1.936l-4.556,0l0,-14.008l4.784,0c2.277,0 3.985,0.57 5.238,1.708c1.253,1.139 1.936,2.847 1.936,5.011Zm-3.872,0.114c0,-1.253 -0.228,-2.278 -0.797,-2.847c-0.456,-0.569 -1.253,-0.911 -2.278,-0.911l-1.139,0l0,7.858l0.798,0c1.138,0 1.936,-0.342 2.505,-1.025c0.683,-0.683 0.911,-1.708 0.911,-3.075Z" clip-rule="nonzero"/></clipPath><g clip-path="url(#_clip6)"><rect x="67.742" y="17.639" width="24.596" height="26.646" style="fill:#fff;"/></g><clipPath id="_clip7"><path d="M93.535,38.193c-1.822,0 -3.188,-0.455 -4.213,-1.48c-1.025,-0.911 -1.481,-2.278 -1.481,-4.1c0,-1.822 0.456,-3.188 1.367,-4.213c0.911,-1.025 2.277,-1.481 3.986,-1.481c1.594,0 2.847,0.456 3.758,1.253c0.911,0.797 1.366,2.05 1.366,3.644l0,1.708l-6.719,0c0,0.57 0.228,1.025 0.684,1.481c0.455,0.341 1.024,0.569 1.708,0.569c0.683,0 1.252,-0.114 1.822,-0.228c0.569,-0.114 1.139,-0.341 1.822,-0.683l0,2.733c-0.569,0.342 -1.139,0.456 -1.822,0.57c-0.683,0.114 -1.367,0.227 -2.278,0.227Zm-0.228,-8.655c-0.455,0 -0.797,0.114 -1.138,0.456c-0.342,0.228 -0.456,0.683 -0.57,1.253l3.189,0c0,-0.57 -0.114,-0.911 -0.456,-1.253c-0.113,-0.342 -0.455,-0.456 -1.025,-0.456Z" clip-rule="nonzero"/></clipPath><g clip-path="url(#_clip7)"><rect x="81.522" y="20.6" width="23.115" height="23.912" style="fill:#fff;"/></g><clipPath id="_clip8"><path d="M108.795,34.663c0,1.139 -0.341,2.05 -1.138,2.619c-0.798,0.57 -1.936,0.911 -3.417,0.911c-0.797,0 -1.48,0 -2.05,-0.113c-0.569,-0.114 -1.252,-0.228 -1.822,-0.456l0,-2.961c0.57,0.228 1.253,0.456 1.936,0.683c0.683,0.114 1.253,0.228 1.822,0.228c0.797,0 1.253,-0.228 1.253,-0.569c0,-0.228 -0.114,-0.342 -0.342,-0.456c-0.227,-0.114 -0.911,-0.455 -1.936,-0.911c-1.025,-0.455 -1.708,-0.911 -2.05,-1.366c-0.341,-0.57 -0.569,-1.139 -0.569,-1.936c0,-1.025 0.342,-1.823 1.139,-2.392c0.797,-0.569 1.822,-0.797 3.302,-0.797c0.684,0 1.367,0.114 2.05,0.228c0.684,0.114 1.253,0.341 1.936,0.683l-1.025,2.391c-0.455,-0.227 -1.025,-0.455 -1.594,-0.569c-0.569,-0.114 -1.025,-0.228 -1.367,-0.228c-0.569,0 -0.911,0.114 -0.911,0.456c0,0.228 0.114,0.341 0.342,0.455c0.228,0.114 0.797,0.342 1.822,0.797c0.797,0.342 1.367,0.57 1.708,0.912c0.342,0.341 0.684,0.683 0.797,1.024c0,0.228 0.114,0.798 0.114,1.367Z" clip-rule="nonzero"/></clipPath><g clip-path="url(#_clip8)"><rect x="94.049" y="20.828" width="21.179" height="23.685" style="fill:#fff;"/></g><clipPath id="_clip9"><path d="M110.845,24.414c0,-0.57 0.114,-1.025 0.456,-1.253c0.341,-0.228 0.797,-0.456 1.48,-0.456c0.684,0 1.253,0.114 1.481,0.456c0.341,0.228 0.455,0.683 0.455,1.253c0,1.139 -0.683,1.594 -2.05,1.594c-1.252,0.114 -1.822,-0.455 -1.822,-1.594Zm3.758,13.552l-3.758,0l0,-10.819l3.758,0l0,10.819Z" clip-rule="nonzero"/></clipPath><g clip-path="url(#_clip9)"><rect x="104.526" y="16.386" width="16.51" height="27.898" style="fill:#fff;"/></g><clipPath id="_clip10"><path d="M127.472,27.147l0,1.822l-1.481,0.569c0.228,0.342 0.342,0.798 0.342,1.253c0,1.139 -0.455,2.05 -1.253,2.733c-0.797,0.684 -2.049,0.911 -3.644,0.911c-0.455,0 -0.683,0 -0.911,-0.114c-0.114,0.114 -0.114,0.342 -0.114,0.456c0,0.228 0.114,0.342 0.456,0.455c0.341,0.114 0.683,0.114 1.139,0.114l1.822,0c2.391,0 3.644,1.025 3.644,3.075c0,1.367 -0.569,2.392 -1.708,3.075c-1.139,0.683 -2.733,1.139 -4.783,1.139c-1.481,0 -2.733,-0.228 -3.531,-0.797c-0.797,-0.456 -1.252,-1.253 -1.252,-2.164c0,-1.253 0.797,-2.164 2.391,-2.506c-0.341,-0.113 -0.569,-0.341 -0.911,-0.683c-0.228,-0.341 -0.342,-0.569 -0.342,-0.911c0,-0.342 0.114,-0.683 0.228,-0.911c0.228,-0.228 0.57,-0.569 1.139,-0.911c-0.569,-0.228 -1.025,-0.683 -1.367,-1.139c-0.341,-0.569 -0.455,-1.139 -0.455,-1.936c0,-1.139 0.455,-2.05 1.253,-2.733c0.797,-0.683 1.936,-1.025 3.416,-1.025c0.228,0 0.57,0 1.025,0.114c0.456,0 0.797,0.114 1.025,0.114l3.872,0Zm-8.2,12.185c0,0.342 0.114,0.57 0.456,0.797c0.342,0.228 0.797,0.228 1.367,0.228c0.911,0 1.594,-0.114 2.163,-0.342c0.57,-0.227 0.798,-0.569 0.798,-0.911c0,-0.341 -0.114,-0.455 -0.456,-0.569c-0.342,-0.114 -0.797,-0.228 -1.48,-0.228l-1.481,0c-0.455,0 -0.683,0.114 -1.025,0.228c-0.228,0.228 -0.342,0.456 -0.342,0.797Zm1.139,-8.655c0,1.139 0.342,1.708 1.139,1.708c0.342,0 0.683,-0.113 0.797,-0.455c0.228,-0.228 0.342,-0.683 0.342,-1.253c0,-1.139 -0.342,-1.708 -1.139,-1.708c-0.683,0 -1.139,0.569 -1.139,1.708Z" clip-rule="nonzero"/></clipPath><g clip-path="url(#_clip10)"><rect x="109.879" y="20.6" width="23.912" height="28.354" style="fill:#fff;"/></g><clipPath id="_clip11"><path d="M135.899,37.966l0,-5.922c0,-0.684 -0.114,-1.253 -0.341,-1.595c-0.228,-0.341 -0.57,-0.569 -1.025,-0.569c-0.684,0 -1.139,0.228 -1.367,0.797c-0.228,0.456 -0.456,1.367 -0.456,2.619l0,4.784l-3.758,0l0,-10.819l2.848,0l0.455,1.366l0.228,0c0.341,-0.455 0.797,-0.911 1.366,-1.138c0.57,-0.228 1.253,-0.342 1.936,-0.342c1.253,0 2.164,0.342 2.847,1.025c0.684,0.683 1.025,1.708 1.025,2.961l0,7.06l-3.758,0l0,-0.227Z" clip-rule="nonzero"/></clipPath><g clip-path="url(#_clip11)"><rect x="122.633" y="20.828" width="23.343" height="23.685" style="fill:#fff;"/></g><clipPath id="_clip12"><path d="M151.615,37.966l-1.708,-4.442l-5.581,0l-1.708,4.442l-1.594,0l5.58,-14.008l1.367,0l5.466,14.008l-1.822,0Zm-2.278,-5.922l-1.594,-4.328c-0.228,-0.569 -0.456,-1.252 -0.683,-2.05c-0.114,0.57 -0.342,1.253 -0.57,2.05l-1.594,4.328l4.441,0Z" clip-rule="nonzero"/></clipPath><g clip-path="url(#_clip12)"><rect x="134.705" y="17.639" width="25.051" height="26.646" style="fill:#fff;"/></g><clipPath id="_clip13"><path d="M163.572,37.966l-1.936,-6.15c-0.113,-0.342 -0.341,-1.253 -0.683,-2.505l-0.114,0c-0.227,1.138 -0.455,1.936 -0.683,2.619l-1.936,6.15l-1.822,0l-2.847,-10.478l1.708,0c0.683,2.62 1.139,4.67 1.594,6.036c0.342,1.367 0.57,2.278 0.57,2.733l0.114,0c0.114,-0.341 0.227,-0.797 0.341,-1.366c0.114,-0.57 0.342,-1.025 0.456,-1.367l1.936,-6.036l1.708,0l1.822,6.036c0.342,1.139 0.57,2.05 0.683,2.733l0.114,0c0,-0.227 0.114,-0.569 0.228,-1.025c0.114,-0.455 0.797,-3.074 1.936,-7.744l1.594,0l-2.847,10.478l-1.936,0l0,-0.114Z" clip-rule="nonzero"/></clipPath><g clip-path="url(#_clip13)"><rect x="147.232" y="21.283" width="27.443" height="23.115" style="fill:#fff;"/></g><clipPath id="_clip14"><path d="M176.669,37.966l-0.342,-1.481l-0.114,0c-0.569,0.683 -1.025,1.139 -1.594,1.367c-0.569,0.228 -1.139,0.341 -1.936,0.341c-1.025,0 -1.822,-0.227 -2.392,-0.797c-0.569,-0.569 -0.911,-1.252 -0.911,-2.277c0,-2.164 1.709,-3.189 5.125,-3.303l1.822,-0.114l0,-0.683c0,-0.797 -0.228,-1.481 -0.569,-1.822c-0.342,-0.342 -0.911,-0.57 -1.708,-0.57c-0.912,0 -1.823,0.228 -2.961,0.798l-0.456,-1.253c0.57,-0.228 1.025,-0.456 1.708,-0.683c0.57,-0.114 1.253,-0.228 1.822,-0.228c1.253,0 2.164,0.228 2.734,0.797c0.569,0.569 0.911,1.48 0.911,2.619l0,7.175l-1.139,0l0,0.114Zm-3.644,-1.139c1.025,0 1.708,-0.228 2.277,-0.797c0.57,-0.57 0.797,-1.253 0.797,-2.278l0,-0.911l-1.594,0.114c-1.253,0 -2.164,0.228 -2.733,0.569c-0.569,0.342 -0.797,0.911 -0.797,1.595c0,0.569 0.228,1.025 0.569,1.252c0.456,0.342 0.911,0.456 1.481,0.456Z" clip-rule="nonzero"/></clipPath><g clip-path="url(#_clip14)"><rect x="163.061" y="20.942" width="21.065" height="23.571" style="fill:#fff;"/></g><clipPath id="_clip15"><path d="M185.893,27.261c0.456,0 0.911,0 1.253,0.114l-0.228,1.48c-0.455,-0.114 -0.797,-0.114 -1.139,-0.114c-0.797,0 -1.594,0.342 -2.163,1.025c-0.57,0.683 -0.911,1.594 -0.911,2.619l0,5.581l-1.595,0l0,-10.477l1.253,0l0.228,1.936l0.114,0c0.341,-0.684 0.911,-1.253 1.366,-1.595c0.569,-0.341 1.139,-0.569 1.822,-0.569Z" clip-rule="nonzero"/></clipPath><g clip-path="url(#_clip15)"><rect x="174.791" y="20.942" width="18.674" height="23.343" style="fill:#fff;"/></g><clipPath id="_clip16"><path d="M196.257,36.599c-0.798,1.025 -1.937,1.594 -3.417,1.594c-1.367,0 -2.392,-0.455 -3.189,-1.366c-0.797,-0.911 -1.138,-2.278 -1.138,-3.986c0,-1.708 0.341,-3.075 1.138,-3.986c0.797,-0.911 1.822,-1.48 3.189,-1.48c1.367,0 2.505,0.569 3.303,1.594l0.114,0l-0.114,-0.797l0,-0.683l0,-4.442l1.594,0l0,14.919l-1.253,0l-0.227,-1.367Zm-3.189,0.228c1.139,0 1.822,-0.342 2.391,-0.911c0.456,-0.57 0.684,-1.595 0.684,-2.847l0,-0.342c0,-1.48 -0.228,-2.505 -0.798,-3.189c-0.455,-0.683 -1.252,-0.911 -2.391,-0.911c-0.911,0 -1.594,0.342 -2.164,1.139c-0.455,0.683 -0.797,1.708 -0.797,3.075c0,1.367 0.228,2.391 0.683,3.075c0.684,0.569 1.367,0.911 2.392,0.911Z" clip-rule="nonzero"/></clipPath><g clip-path="url(#_clip16)"><rect x="182.193" y="16.728" width="21.862" height="27.784" style="fill:#fff;"/></g><clipPath id="_clip17"><path d="M207.872,35.119c0,1.025 -0.341,1.708 -1.138,2.277c-0.684,0.57 -1.709,0.797 -3.075,0.797c-1.367,0 -2.506,-0.227 -3.303,-0.683l0,-1.48c0.456,0.227 1.025,0.455 1.594,0.569c0.57,0.114 1.139,0.228 1.709,0.228c0.797,0 1.48,-0.114 1.936,-0.342c0.455,-0.228 0.683,-0.683 0.683,-1.253c0,-0.455 -0.228,-0.797 -0.569,-1.024c-0.342,-0.342 -1.025,-0.684 -2.05,-1.025c-1.025,-0.342 -1.709,-0.684 -2.05,-0.911c-0.456,-0.228 -0.683,-0.57 -0.911,-0.912c-0.228,-0.341 -0.342,-0.797 -0.342,-1.252c0,-0.797 0.342,-1.481 1.025,-2.05c0.683,-0.569 1.594,-0.797 2.847,-0.797c1.139,0 2.278,0.228 3.303,0.683l-0.57,1.253c-1.025,-0.456 -2.05,-0.684 -2.847,-0.684c-0.797,0 -1.366,0.114 -1.708,0.342c-0.342,0.228 -0.569,0.57 -0.569,1.025c0,0.228 0.113,0.569 0.227,0.683c0.114,0.228 0.342,0.342 0.684,0.57c0.341,0.227 0.911,0.455 1.822,0.797c1.253,0.455 2.05,0.911 2.505,1.366c0.57,0.57 0.797,1.139 0.797,1.823Z" clip-rule="nonzero"/></clipPath><g clip-path="url(#_clip17)"><rect x="194.037" y="20.942" width="20.154" height="23.571" style="fill:#fff;"/></g></g></svg>