<?xml version="1.0" encoding="UTF-8" standalone="no"?><!DOCTYPE svg PUBLIC "-//W3C//DTD SVG 1.1//EN" "http://www.w3.org/Graphics/SVG/1.1/DTD/svg11.dtd"><svg width="100%" height="100%" viewBox="0 0 105 60" version="1.1" xmlns="http://www.w3.org/2000/svg" xmlns:xlink="http://www.w3.org/1999/xlink" xml:space="preserve" xmlns:serif="http://www.serif.com/" style="fill-rule:evenodd;clip-rule:evenodd;stroke-linejoin:round;stroke-miterlimit:2;"><g id="Logos"></g><g><clipPath id="_clip1"><path d="M0.441,37.037l4.306,-13.753l5.259,1.137l-1.137,3.411l1.066,0.355l4.05,-12.863l5.756,0.854l-2.985,10.091l1.387,0.319l4.157,-14.461l9.664,1.208l-9.139,31.589l-22.384,-7.887Z"/></clipPath><g clip-path="url(#_clip1)"><rect x="-0.127" y="11.56" width="32.658" height="33.932" style="fill:#fff;"/></g><clipPath id="_clip2"><path d="M22.825,44.924l12.791,-6.394l-1.137,-1.919l3.312,-11.694l-5.827,-11.582l-9.139,31.589Z"/></clipPath><g clip-path="url(#_clip2)"><rect x="22.258" y="12.767" width="16.1" height="32.725" style="fill:#a5a5a5;"/></g><clipPath id="_clip3"><path d="M19.741,16.178l0.967,1.484l-2.565,8.926l-1.387,-0.319l2.985,-10.091Z"/></clipPath><g clip-path="url(#_clip3)"><rect x="16.189" y="15.61" width="5.087" height="11.546" style="fill:#a5a5a5;"/></g><clipPath id="_clip4"><path d="M10.006,24.421l-1.137,3.411l1.066,0.355l0.897,-2.851l-0.826,-0.915Z"/></clipPath><g clip-path="url(#_clip4)"><rect x="8.302" y="23.853" width="3.098" height="4.901" style="fill:#a5a5a5;"/></g><clipPath id="_clip5"><path d="M50.413,35.992c1.276,0 2.345,-1.05 2.345,-2.437c0,-1.443 -1.069,-2.53 -2.456,-2.53c-1.407,0 -2.493,1.143 -2.493,2.493c0,1.406 1.086,2.474 2.604,2.474Zm2.326,1.5c-0.881,0.863 -1.781,1.18 -2.981,1.18c-1.218,0 -2.268,-0.393 -3.149,-1.18c-1.163,-1.03 -1.763,-2.38 -1.763,-3.956c0,-1.444 0.563,-2.736 1.613,-3.748c0.937,-0.919 2.081,-1.387 3.355,-1.387c1.218,0 2.156,0.411 2.831,1.274l0,-1.126l2.962,0l0,10.068l-2.868,0l0,-1.125Z"/></clipPath><g clip-path="url(#_clip5)"><rect x="43.962" y="27.517" width="12.529" height="12.039" style="fill:#a5a5a5;"/></g><clipPath id="_clip6"><path d="M64.688,38.617l-1.856,-5.906l-1.876,5.906l-2.97,0l-3.341,-10.068l3.321,0l1.67,5.981l1.773,-5.981l2.826,0l1.814,5.981l1.691,-5.981l3.3,0l-3.341,10.068l-3.011,0Z"/></clipPath><g clip-path="url(#_clip6)"><rect x="53.761" y="27.665" width="18.162" height="11.836" style="fill:#a5a5a5;"/></g><clipPath id="_clip7"><path d="M74.527,35.992c1.274,0 2.343,-1.05 2.343,-2.437c0,-1.443 -1.069,-2.53 -2.455,-2.53c-1.407,0 -2.495,1.143 -2.495,2.493c0,1.406 1.088,2.474 2.607,2.474Zm2.325,1.5c-0.882,0.863 -1.782,1.18 -2.981,1.18c-1.219,0 -2.269,-0.393 -3.15,-1.18c-1.163,-1.03 -1.763,-2.38 -1.763,-3.956c0,-1.444 0.563,-2.736 1.614,-3.748c0.935,-0.919 2.08,-1.387 3.355,-1.387c1.218,0 2.155,0.411 2.831,1.274l0,-1.126l2.962,0l0,10.068l-2.868,0l0,-1.125Z"/></clipPath><g clip-path="url(#_clip7)"><rect x="68.074" y="27.517" width="12.529" height="12.039" style="fill:#a5a5a5;"/></g><clipPath id="_clip8"><path d="M82.813,28.549l0,1.369c0.487,-1.012 1.331,-1.517 2.531,-1.517l0,2.736l-0.075,0c-1.876,0 -2.269,0.637 -2.269,2.493l0,4.987l-2.999,0l0,-10.068l2.812,0Z"/></clipPath><g clip-path="url(#_clip8)"><rect x="79.118" y="27.517" width="7.111" height="11.984" style="fill:#a5a5a5;"/></g><clipPath id="_clip9"><path d="M90.049,35.992c1.275,0 2.343,-1.05 2.343,-2.437c0,-1.443 -1.068,-2.53 -2.455,-2.53c-1.407,0 -2.494,1.143 -2.494,2.493c0,1.406 1.087,2.474 2.606,2.474Zm2.325,1.5c-0.881,0.863 -1.782,1.18 -2.981,1.18c-1.219,0 -2.268,-0.393 -3.149,-1.18c-1.162,-1.03 -1.763,-2.38 -1.763,-3.956c0,-1.444 0.564,-2.736 1.613,-3.748c0.936,-0.919 2.08,-1.387 3.354,-1.387c1.22,0 2.157,0.411 2.832,1.274l0,-4.388l2.962,0l0,13.33l-2.868,0l0,-1.125Z"/></clipPath><g clip-path="url(#_clip9)"><rect x="83.597" y="24.404" width="12.529" height="15.152" style="fill:#a5a5a5;"/></g><clipPath id="_clip10"><path d="M97.792,35.617l0,0.094c0,0.563 0.449,0.957 1.087,0.957c0.638,0 1.012,-0.319 1.012,-0.882c0,-0.824 -0.806,-0.786 -2.062,-1.181c-1.743,-0.544 -2.587,-1.48 -2.587,-2.999c0,-1.969 1.444,-3.356 3.843,-3.356c2.081,0 3.412,1.181 3.525,3.093l-2.682,0c-0.112,-0.656 -0.356,-0.937 -0.882,-0.937c-0.58,0 -0.918,0.338 -0.918,0.825c0,0.693 0.619,0.861 1.651,1.143c2.063,0.563 3.093,1.35 3.093,3.019c0,2.025 -1.594,3.487 -4.031,3.487c-2.25,0 -3.636,-1.22 -3.842,-3.263l2.793,0Z"/></clipPath><g clip-path="url(#_clip10)"><rect x="94.115" y="27.366" width="9.641" height="12.397" style="fill:#a5a5a5;"/></g><clipPath id="_clip11"><path d="M52.463,21.938c-0.354,-1.023 -1.193,-1.582 -2.365,-1.582c-1.229,0 -2.104,0.631 -2.31,1.582l4.675,0Zm2.496,3.147c-0.969,2.086 -2.627,3.148 -4.861,3.148c-1.527,0 -2.756,-0.522 -3.782,-1.601c-0.968,-1.025 -1.47,-2.292 -1.47,-3.706c0,-1.397 0.54,-2.683 1.527,-3.671c1.006,-1.003 2.328,-1.562 3.688,-1.562c3.184,0 5.426,2.289 5.362,6.015c-0.001,0.091 0,0.204 0,0.316l-7.542,0c0.261,1.061 1.025,1.62 2.31,1.62c0.595,0 1.079,-0.168 1.527,-0.559l3.241,0Z"/></clipPath><g clip-path="url(#_clip11)"><rect x="43.962" y="16.809" width="12.346" height="12.308" style="fill:#fff;"/></g><clipPath id="_clip12"><path d="M58.537,17.991c0,0 -0.162,-1.814 1.912,-1.711c-0.161,0.581 -0.243,1.174 -0.243,1.711l-1.669,0Zm6.226,0l-1.67,0c0,-1.524 0.772,-2.174 1.845,-2.174c0.985,0 1.441,0.533 1.441,0.533l1.471,-1.669c-0.666,-0.995 -2.538,-1.996 -4.912,-1.299c-0.595,0.17 -1.066,0.509 -1.451,0.929c-0.715,-0.368 -1.756,-0.636 -3.096,-0.269c-1.989,0.572 -2.742,2.404 -2.742,3.949l-1.055,0l0,2.234l1.055,0l0,7.766l2.888,0l0,-7.766l1.669,0l0,7.766l2.887,0l0,-7.766l1.67,0l0,7.766l2.924,0l0,-10l-2.924,0Z"/></clipPath><g clip-path="url(#_clip12)"><rect x="53.71" y="12.266" width="15.023" height="16.609" style="fill:#fff;"/></g><clipPath id="_clip13"><path d="M75.603,21.938c-0.353,-1.023 -1.192,-1.582 -2.366,-1.582c-1.229,0 -2.105,0.631 -2.308,1.582l4.674,0Zm2.496,3.147c-0.969,2.086 -2.626,3.148 -4.862,3.148c-1.527,0 -2.756,-0.522 -3.78,-1.601c-0.854,-0.905 -1.368,-1.998 -1.471,-3.216c-0.014,-0.162 0,-0.326 0,-0.49c0,-1.397 0.54,-2.683 1.527,-3.671c1.005,-1.003 2.328,-1.562 3.687,-1.562c3.185,0 5.364,2.289 5.364,6.015l0,0.316l-7.542,0c0.26,1.061 1.023,1.62 2.308,1.62c0.596,0 1.081,-0.168 1.528,-0.559l3.241,0Z"/></clipPath><g clip-path="url(#_clip13)"><rect x="67.096" y="16.809" width="12.352" height="12.308" style="fill:#fff;"/></g><clipPath id="_clip14"><path d="M78.719,18.38l0,1.649l0.408,0l0,-0.633l0.164,0c0.26,0 0.283,0.147 0.295,0.238c0.007,0.055 0.023,0.337 0.054,0.395l0.398,0c-0.032,-0.085 -0.032,-0.116 -0.05,-0.401c-0.014,-0.252 -0.116,-0.334 -0.235,-0.384c0.221,-0.1 0.266,-0.263 0.266,-0.399c0,-0.331 -0.285,-0.465 -0.605,-0.465l-0.695,0Zm0.63,0.283c0.086,0 0.26,0.005 0.26,0.213c0,0.252 -0.197,0.252 -0.284,0.252l-0.198,0l0,-0.465l0.222,0Zm0.011,-0.928c-0.846,0 -1.489,0.689 -1.489,1.485c0,0.817 0.664,1.486 1.482,1.486c0.812,0 1.477,-0.665 1.477,-1.486c0,-0.801 -0.649,-1.485 -1.47,-1.485Zm-0.001,0.298c0.652,0 1.149,0.55 1.149,1.187c0,0.666 -0.52,1.189 -1.155,1.189c-0.634,0 -1.16,-0.532 -1.16,-1.189c0,-0.649 0.505,-1.187 1.166,-1.187Z"/></clipPath><g clip-path="url(#_clip14)"><rect x="76.987" y="16.851" width="4.727" height="4.74" style="fill:#fff;"/></g></g></svg>