<?xml version="1.0" encoding="UTF-8" standalone="no"?><!DOCTYPE svg PUBLIC "-//W3C//DTD SVG 1.1//EN" "http://www.w3.org/Graphics/SVG/1.1/DTD/svg11.dtd"><svg width="100%" height="100%" viewBox="0 0 220 110" version="1.1" xmlns="http://www.w3.org/2000/svg" xmlns:xlink="http://www.w3.org/1999/xlink" xml:space="preserve" xmlns:serif="http://www.serif.com/" style="fill-rule:evenodd;clip-rule:evenodd;stroke-linejoin:round;stroke-miterlimit:2;"><g id="Logos"><g><path d="M37.604,47.009c-0.032,0.225 -0.129,0.386 -0.386,0.386c-0.064,0 -0.129,0 -0.29,-0.032c-0.386,-0.065 -1.158,-0.193 -1.898,-0.193c-0.739,0 -1.19,0.096 -1.511,0.354c-0.29,0.257 -0.387,0.675 -0.387,1.286l0,1.77l3.893,0c0.289,0 0.515,0.193 0.515,0.482l0,2.992c0,0.29 -0.226,0.45 -0.515,0.45l-3.893,0l0,12.482c0,0.29 -0.225,0.483 -0.546,0.483l-4.536,0c-0.322,0 -0.547,-0.193 -0.547,-0.483l0,-12.482l-2.477,0c-0.322,0 -0.547,-0.16 -0.547,-0.45l0,-2.992c0,-0.289 0.225,-0.482 0.547,-0.482l2.477,0l0,-2.027c0,-3.506 1.801,-5.276 5.694,-5.276c2.509,0 3.957,0.386 4.439,0.547c0.322,0.097 0.386,0.386 0.354,0.547l-0.386,2.638Z" style="fill:#fff;fill-rule:nonzero;"/><path d="M46.878,53.861c-2.509,0 -2.638,1.48 -2.638,5.18c0,3.667 0.129,5.147 2.638,5.147c2.541,0 2.638,-1.48 2.638,-5.147c0,-3.7 -0.097,-5.18 -2.638,-5.18m0,14.026c-7.399,0 -8.332,-3.86 -8.332,-8.846c0,-4.987 0.933,-8.879 8.332,-8.879c7.399,0 8.364,3.892 8.364,8.879c0,4.986 -0.965,8.846 -8.364,8.846" style="fill:#fff;fill-rule:nonzero;"/><path d="M66.8,54.279c-1.801,0 -3.378,0.193 -3.667,0.257l0,12.45c0,0.289 -0.193,0.482 -0.515,0.482l-4.568,0c-0.289,0 -0.515,-0.193 -0.515,-0.482l0,-14.251c0,-1.158 1.03,-1.512 2.928,-1.93c1.544,-0.322 3.699,-0.579 5.694,-0.579l0.547,0c0.289,0 0.45,0.064 0.579,0.193c0.096,0.096 0.16,0.257 0.16,0.514l0,2.606c-0.001,0.386 -0.001,0.74 -0.643,0.74" style="fill:#fff;fill-rule:nonzero;"/><path d="M95.172,67.468l-4.568,0c-0.322,0 -0.515,-0.193 -0.515,-0.483l0,-10.937c0,-1.705 -0.868,-2.252 -2.123,-2.252c-1.029,0 -2.252,0.225 -2.541,0.289l0,12.9c0,0.29 -0.225,0.483 -0.547,0.483l-4.568,0c-0.322,0 -0.515,-0.193 -0.515,-0.483l0,-10.937c0,-1.705 -0.74,-2.252 -1.994,-2.252c-0.998,0 -2.381,0.225 -2.703,0.289l0,12.9c0,0.29 -0.193,0.483 -0.514,0.483l-4.568,0c-0.322,0 -0.515,-0.193 -0.515,-0.483l0,-14.219c0,-1.19 0.997,-1.543 2.96,-1.962c1.576,-0.321 4.021,-0.643 6.047,-0.643c2.027,0 3.41,0.483 4.311,1.062c0.611,-0.226 3.346,-1.062 6.08,-1.062c4.118,0 6.788,0.901 6.788,5.083l0,11.741c0,0.29 -0.193,0.483 -0.515,0.483" style="fill:#fff;fill-rule:nonzero;"/><path d="M104.758,67.082c0,0.225 -0.129,0.257 -0.257,0.322c-0.354,0.161 -1.126,0.386 -2.284,0.386c-1.93,0 -3.217,-0.933 -3.217,-3.314l0,-20.266c0,-0.258 0.161,-0.418 0.386,-0.483l1.737,-0.45c0.225,-0.065 0.418,0.129 0.418,0.386l0,20.749c0,1.158 0.804,1.319 1.448,1.319c0.45,0 0.9,-0.064 1.126,-0.129l0.128,-0.032c0.097,0 0.225,0.032 0.258,0.225l0.225,1.094c0.032,0.129 0.032,0.161 0.032,0.193" style="fill:#fff;fill-rule:nonzero;"/><path d="M117.491,58.558l-6.273,1.061c-1.416,0.258 -2.767,0.483 -2.767,2.831c0,3.217 2.638,3.442 4.761,3.442c1.416,0 2.928,-0.193 4.279,-0.643l0,-6.691Zm-0.129,8.846c-0.933,0.225 -2.477,0.483 -4.182,0.483c-2.766,0 -7.367,-0.097 -7.367,-5.308c0,-4.247 2.284,-4.536 5.566,-5.051l6.08,-0.997l0,-1.512c0,-1.03 -0.033,-1.866 -1.159,-2.284c-0.611,-0.258 -1.511,-0.386 -2.927,-0.386c-2.477,0 -4.6,0.611 -5.951,0.933c-0.322,0.064 -0.451,0.032 -0.515,-0.225l-0.289,-1.448c-0.065,-0.29 0.225,-0.418 0.321,-0.45c1.03,-0.387 3.796,-0.998 6.724,-0.998c2.284,0 3.763,0.322 4.696,0.837c1.641,0.868 1.673,2.38 1.673,3.892l0,9.233c0,2.252 -0.45,2.766 -2.67,3.281" style="fill:#fff;fill-rule:nonzero;"/><path d="M130.471,52.252c-1.77,0 -4.279,0.611 -4.858,0.772l0,12.256c0.354,0.129 2.059,0.579 4.504,0.579c3.699,0 4.954,-1.737 4.954,-6.819c0,-5.18 -0.901,-6.788 -4.6,-6.788m-5.012,-1.207c0.865,-0.245 3.397,-0.884 5.43,-0.884c5.34,0 6.82,2.734 6.82,8.814c0,6.273 -1.705,8.911 -7.528,8.911c-2.284,0 -4.375,-0.386 -5.436,-0.74c-1.609,-0.547 -1.673,-1.351 -1.673,-2.541l0,-20.46c0,-0.257 0.128,-0.353 0.386,-0.418l1.737,-0.45c0.289,-0.097 0.418,0.193 0.418,0.386l0,5.597" style="fill:#fff;fill-rule:nonzero;"/><path d="M145.393,67.887c-2.831,0 -5.276,-0.868 -5.694,-1.029c-0.161,-0.065 -0.322,-0.161 -0.225,-0.515l0.289,-1.223c0.065,-0.225 0.161,-0.418 0.515,-0.289c0.097,0.032 2.445,0.933 5.179,0.933c2.735,0 4.311,-0.869 4.311,-2.831c0,-2.67 -2.059,-2.573 -4.568,-2.96c-1.576,-0.257 -5.598,-0.547 -5.598,-4.793c0,-4.15 3.7,-5.018 6.531,-5.018c2.766,0 4.922,0.579 5.276,0.675c0.225,0.065 0.321,0.193 0.289,0.386l-0.225,1.448c-0.032,0.193 -0.129,0.257 -0.354,0.257c-0.45,-0.064 -2.831,-0.611 -4.729,-0.611c-2.316,0 -4.246,0.643 -4.246,2.67c0,2.188 2.187,2.445 4.182,2.702c2.895,0.386 6.015,0.612 6.015,4.987c0,4.182 -3.216,5.211 -6.948,5.211" style="fill:#fff;fill-rule:nonzero;"/><path d="M172.097,56.394c-0.019,-0.019 -0.038,-0.038 -0.057,-0.057c-1.395,0.955 -2.789,1.91 -4.203,2.878c0.376,0.552 0.727,1.067 1.093,1.605c1.081,-1.51 2.124,-2.968 3.167,-4.426m-11.84,-9.683c3.358,0.996 6.649,1.972 9.939,2.949c-0.028,-0.083 -0.071,-0.131 -0.124,-0.163c-2.262,-1.361 -4.523,-2.721 -6.787,-4.078c-0.26,-0.156 -0.531,-0.137 -0.793,0.013c-0.534,0.305 -1.068,0.607 -1.601,0.911c-0.19,0.108 -0.378,0.219 -0.634,0.368m10.323,19.466c1.034,-3.061 2.054,-6.079 3.073,-9.098c-0.101,0.041 -0.16,0.102 -0.209,0.171c-0.986,1.373 -1.97,2.748 -2.955,4.122c-0.134,0.187 -0.263,0.379 -0.407,0.559c-0.621,0.775 -1.811,0.743 -2.381,-0.07c-0.397,-0.565 -0.777,-1.141 -1.183,-1.739c-0.599,0.41 -1.178,0.806 -1.783,1.22c1.958,1.62 3.881,3.211 5.845,4.835m4.049,-13.553c-4.696,-1.387 -9.317,-2.751 -13.936,-4.116c-0.011,0.019 -0.022,0.039 -0.033,0.058c2.09,3.099 4.18,6.198 6.283,9.319c2.561,-1.753 5.092,-3.485 7.686,-5.261m17.547,-4.065c-0.012,-0.018 -0.024,-0.036 -0.036,-0.055c-4.671,1.372 -9.341,2.744 -14.086,4.137c2.686,1.813 5.312,3.585 7.961,5.373c2.068,-3.173 4.114,-6.314 6.161,-9.455m2.191,-0.982c-0.368,1.242 -1.221,2.203 -1.902,3.26c-1.691,2.623 -3.417,5.224 -5.128,7.834c-0.036,0.055 -0.062,0.116 -0.107,0.2c0.569,0.389 1.141,0.759 1.686,1.164c0.231,0.173 0.462,0.391 0.595,0.641c0.332,0.622 0.129,1.346 -0.423,1.804c-1.962,1.624 -3.942,3.226 -5.866,4.894c-1.021,0.884 -2.241,0.383 -2.601,-0.703c-1.376,-4.147 -2.807,-8.276 -4.219,-12.411c-0.023,-0.069 -0.055,-0.136 -0.112,-0.275c-0.107,0.3 -0.194,0.535 -0.274,0.772c-1.326,3.901 -2.652,7.803 -3.977,11.704c-0.046,0.136 -0.084,0.275 -0.134,0.41c-0.368,0.985 -1.519,1.309 -2.336,0.647c-0.806,-0.654 -1.599,-1.323 -2.399,-1.985c-1.184,-0.98 -2.363,-1.967 -3.555,-2.94c-0.962,-0.786 -0.922,-1.881 0.11,-2.583c0.586,-0.399 1.17,-0.8 1.781,-1.218c-0.231,-0.347 -0.445,-0.674 -0.664,-0.999c-2.041,-3.025 -4.074,-6.056 -6.128,-9.073c-0.738,-1.084 -0.472,-2.859 0.815,-3.517c0.709,-0.362 1.382,-0.793 2.079,-1.177c0.804,-0.443 1.614,-0.439 2.407,0.036c3.984,2.39 7.969,4.78 11.948,7.178c0.235,0.141 0.401,0.155 0.646,0.006c3.957,-2.398 7.92,-4.785 11.883,-7.173c0.848,-0.511 1.701,-0.518 2.561,-0.018c0.655,0.381 1.307,0.77 1.98,1.118c0.697,0.361 1.025,0.978 1.271,1.669c0.025,0.07 0.042,0.144 0.063,0.216l0,0.519Z" style="fill:#fff;fill-rule:nonzero;"/></g></g></svg>