<?xml version="1.0" encoding="UTF-8" standalone="no"?><!DOCTYPE svg PUBLIC "-//W3C//DTD SVG 1.1//EN" "http://www.w3.org/Graphics/SVG/1.1/DTD/svg11.dtd"><svg width="100%" height="100%" viewBox="0 0 220 110" version="1.1" xmlns="http://www.w3.org/2000/svg" xmlns:xlink="http://www.w3.org/1999/xlink" xml:space="preserve" xmlns:serif="http://www.serif.com/" style="fill-rule:evenodd;clip-rule:evenodd;stroke-linejoin:round;stroke-miterlimit:2;"><rect x="-1635" y="-1108" width="7301.84" height="5695.95"/><g id="Logos"><g><clipPath id="_clip1"><path d="M123.098,54.297c-0.611,-0.558 -1.333,-0.997 -2.153,-1.309c-0.822,-0.312 -1.702,-0.466 -2.631,-0.466l-5.661,0c-0.372,0 -0.69,-0.137 -0.958,-0.41c-0.266,-0.276 -0.399,-0.603 -0.399,-0.992c0,-0.373 0.133,-0.69 0.399,-0.959c0.268,-0.266 0.586,-0.4 0.958,-0.4l10.152,0c0.48,0 0.867,-0.39 0.867,-0.87l0,-3.699c0,-0.481 -0.387,-0.873 -0.867,-0.873l-10.154,0c-0.944,0 -1.827,0.177 -2.652,0.529c-0.825,0.354 -1.542,0.839 -2.151,1.45c-0.61,0.613 -1.094,1.334 -1.443,2.156c-0.355,0.827 -0.529,1.716 -0.529,2.661c0,0.947 0.174,1.83 0.529,2.659c0.349,0.826 0.833,1.549 1.443,2.167c0.609,0.62 1.329,1.111 2.151,1.473c0.825,0.36 1.708,0.539 2.652,0.539l5.844,0c0.597,0 1.116,0.447 1.168,1.044c0.06,0.681 -0.476,1.254 -1.143,1.254l-11.781,0c-0.478,0 -0.866,0.389 -0.866,0.872l0,3.694c0,0.481 0.388,0.872 0.866,0.872l11.571,0c0.93,0 1.807,-0.177 2.632,-0.533c0.823,-0.35 1.541,-0.836 2.15,-1.456c0.61,-0.618 1.098,-1.338 1.456,-2.159c0.355,-0.819 0.539,-1.701 0.539,-2.648c0,-0.933 -0.18,-1.792 -0.539,-2.577c-0.361,-0.786 -0.842,-1.457 -1.45,-2.019Zm-44.483,-10.019l-0.046,0c-0.254,0 -0.493,0.113 -0.659,0.306l-0.175,0.203l-3.48,4.032c-0.139,0.158 -0.212,0.362 -0.212,0.57l0,15.43c0,0.482 0.389,0.873 0.87,0.873l3.702,0c0.478,0 0.868,-0.391 0.868,-0.873l0,-19.668c0,-0.481 -0.39,-0.873 -0.868,-0.873Zm-8.155,1.485c0.486,-0.564 0.085,-1.444 -0.658,-1.444l-4.197,0c-0.255,0 -0.495,0.112 -0.659,0.306l-8.441,9.812c-0.284,0.327 -0.284,0.811 0,1.141l8.441,9.811c0.164,0.194 0.404,0.305 0.659,0.305l4.197,0c0.743,0 1.144,-0.879 0.658,-1.445l-7.496,-8.671c-0.284,-0.329 -0.284,-0.817 0,-1.143l7.496,-8.672Zm-15.314,-1.482l-3.742,0c-0.481,0 -0.871,0.389 -0.871,0.871l0,19.667c0,0.482 0.39,0.875 0.871,0.875l3.742,0c0.479,0 0.868,-0.393 0.868,-0.875l0,-19.667c0,-0.482 -0.389,-0.871 -0.868,-0.871Zm105.473,12.285c-0.287,0.702 -0.675,1.32 -1.166,1.858c-0.492,0.54 -1.068,0.974 -1.723,1.3c-0.658,0.322 -1.361,0.488 -2.103,0.488c-0.741,0 -1.443,-0.128 -2.102,-0.381c-0.658,-0.253 -1.231,-0.625 -1.713,-1.122c-0.488,-0.492 -0.866,-1.103 -1.146,-1.827c-0.28,-0.726 -0.419,-1.556 -0.419,-2.49c0,-0.935 0.139,-1.764 0.419,-2.491c0.28,-0.725 0.661,-1.331 1.146,-1.827c0.482,-0.495 1.055,-0.865 1.713,-1.121c0.659,-0.251 1.361,-0.379 2.102,-0.379c0.742,0 1.445,0.163 2.103,0.487c0.658,0.325 1.232,0.758 1.723,1.3c0.492,0.54 0.879,1.157 1.166,1.857c0.285,0.7 0.426,1.423 0.426,2.17c0,0.757 -0.141,1.478 -0.426,2.178Zm5.037,-12.643l-0.035,0c-0.261,0 -0.504,0.115 -0.668,0.313l-1.277,1.532c-0.307,0.37 -0.858,0.421 -1.227,0.111c-0.311,-0.265 -0.638,-0.516 -0.976,-0.759c-0.576,-0.413 -1.184,-0.772 -1.822,-1.081c-0.639,-0.305 -1.296,-0.546 -1.972,-0.72c-0.679,-0.171 -1.363,-0.26 -2.055,-0.26c-1.504,0 -2.915,0.277 -4.237,0.83c-1.318,0.553 -2.478,1.328 -3.468,2.331c-0.987,1.002 -1.768,2.196 -2.343,3.589c-0.57,1.393 -0.854,2.923 -0.854,4.589c0,1.788 0.284,3.379 0.854,4.778c0.575,1.401 1.356,2.58 2.343,3.548c0.99,0.967 2.146,1.702 3.468,2.209c1.324,0.508 2.738,0.761 4.237,0.761c0.692,0 1.371,-0.089 2.044,-0.263c0.672,-0.171 1.324,-0.408 1.963,-0.708c0.638,-0.3 1.245,-0.655 1.824,-1.061c0.326,-0.229 0.641,-0.464 0.946,-0.713c0.386,-0.316 0.956,-0.238 1.249,0.168l1.303,1.812c0.164,0.227 0.426,0.361 0.703,0.361c0.482,0 0.871,-0.391 0.871,-0.871l0,-19.624c0,-0.483 -0.389,-0.872 -0.871,-0.872Zm-23.712,0.396l-14.593,0c-0.479,0 -0.865,0.392 -0.865,0.873l0,3.693c0,0.481 0.386,0.872 0.865,0.872l0.913,0c0.482,0 0.871,0.393 0.871,0.874l0,5.484c0,1.317 0.251,2.556 0.744,3.719c0.5,1.16 1.183,2.176 2.058,3.048c0.868,0.872 1.882,1.559 3.039,2.061c1.156,0.502 2.392,0.751 3.709,0.751l3.259,0c0.478,0 0.87,-0.393 0.87,-0.875l0,-3.692c0,-0.484 -0.392,-0.873 -0.87,-0.873l-3.259,0c-0.572,0 -1.111,-0.112 -1.617,-0.329c-0.505,-0.218 -0.942,-0.518 -1.314,-0.887c-0.371,-0.372 -0.666,-0.812 -0.877,-1.312c-0.212,-0.496 -0.317,-1.032 -0.317,-1.607l0,-5.488c0,-0.481 0.39,-0.874 0.868,-0.874l6.516,0c0.478,0 0.87,-0.391 0.87,-0.872l0,-3.693c0,-0.481 -0.392,-0.873 -0.87,-0.873Zm-42.009,2.351c-0.866,-0.874 -1.877,-1.56 -3.033,-2.061c-1.154,-0.496 -2.384,-0.748 -3.685,-0.748c-1.209,0 -2.369,0.219 -3.48,0.651c-1.109,0.434 -2.102,1.051 -2.98,1.848l-1.531,-1.778c-0.168,-0.191 -0.407,-0.301 -0.658,-0.301l-0.049,0c-0.481,0 -0.869,0.389 -0.869,0.871l0,19.667c0,0.482 0.388,0.875 0.869,0.875l3.703,0c0.48,0 0.87,-0.393 0.87,-0.875l0,-11.362c0,-0.56 0.106,-1.089 0.318,-1.588c0.211,-0.5 0.505,-0.937 0.875,-1.307c0.373,-0.371 0.812,-0.667 1.315,-0.879c0.508,-0.212 1.043,-0.319 1.617,-0.319c0.556,0 1.084,0.107 1.573,0.319c0.494,0.212 0.925,0.508 1.294,0.879c0.371,0.37 0.667,0.812 0.877,1.307c0.211,0.503 0.317,1.028 0.317,1.588l0,11.362c0,0.482 0.392,0.875 0.872,0.875l3.703,0c0.479,0 0.868,-0.393 0.868,-0.875l0,-11.362c0,-1.315 -0.25,-2.562 -0.747,-3.729c-0.497,-1.165 -1.178,-2.186 -2.039,-3.058Z"/></clipPath><g clip-path="url(#_clip1)"><g><clipPath id="_clip2"><rect x="50.533" y="43.059" width="118.733" height="24.047" clip-rule="nonzero"/></clipPath><g clip-path="url(#_clip2)"><g><g><clipPath id="_clip3"><rect x="43.018" y="35.544" width="132.26" height="39.077" clip-rule="nonzero"/></clipPath><g clip-path="url(#_clip3)"><rect x="43.018" y="35.544" width="131.024" height="37.665" style="fill:#fff;"/><rect x="43.018" y="35.544" width="133.763" height="39.077" style="fill:#fff;"/></g></g></g></g></g></g></g></g></svg>