<?xml version="1.0" encoding="UTF-8" standalone="no"?><!DOCTYPE svg PUBLIC "-//W3C//DTD SVG 1.1//EN" "http://www.w3.org/Graphics/SVG/1.1/DTD/svg11.dtd"><svg width="100%" height="100%" viewBox="0 0 102 60" version="1.1" xmlns="http://www.w3.org/2000/svg" xmlns:xlink="http://www.w3.org/1999/xlink" xml:space="preserve" xmlns:serif="http://www.serif.com/" style="fill-rule:evenodd;clip-rule:evenodd;stroke-linejoin:round;stroke-miterlimit:2;"><g id="Logos"></g><clipPath id="_clip1"><path d="M28.853,22.432c-0.886,0.74 -1.466,1.627 -1.709,2.656l0,-3.568l-6.544,0l0,3.248l2.437,0l0,7.557l-2.597,0l0,3.232l9.879,0l0,-3.232l-2.801,0l0,-1.726c0,-1.159 0.231,-2.16 0.695,-3.017c0.465,-0.857 1.06,-1.407 1.77,-1.651c0.713,-0.248 1.64,-0.379 2.769,-0.379l0,-4.234c-0.274,-0.014 -0.52,-0.014 -0.723,-0.014c-1.218,0 -2.278,0.375 -3.176,1.128Zm18.851,2.986c-0.451,-1.2 -1.263,-2.213 -2.438,-3.027c-1.175,-0.812 -2.55,-1.218 -4.161,-1.218c-2.218,0 -4.03,0.726 -5.466,2.176c-1.436,1.451 -2.147,3.26 -2.147,5.421c0,2.136 0.695,3.844 2.073,5.151c1.393,1.302 3.322,1.958 5.8,1.958c3.105,0 5.381,-1.148 6.847,-3.436l-3.482,-1.119c-1.088,1.102 -2.174,1.653 -3.246,1.653c-0.829,0 -1.61,-0.26 -2.35,-0.798c-0.739,-0.537 -1.131,-1.435 -1.206,-2.711l10.457,0c0,-1.493 -0.23,-2.842 -0.681,-4.05Zm-9.701,1.554c0.275,-1.884 1.231,-2.826 2.873,-2.826c0.881,0 1.564,0.275 2.072,0.828c0.505,0.549 0.827,1.217 0.927,1.998l-5.872,0Zm25.421,0.232c0,-1.287 -0.09,-2.23 -0.279,-2.797c-0.173,-0.581 -0.478,-1.116 -0.912,-1.596c-0.872,-0.972 -2.639,-1.638 -5.352,-1.638c-3.494,0 -5.756,1.104 -6.8,3.32l3.611,0.652c0.712,-0.738 1.58,-1.101 2.58,-1.101c0.814,0 1.466,0.233 1.945,0.698c0.478,0.446 0.725,1.043 0.725,1.753l0,0.855c-1.22,-0.476 -2.294,-0.71 -3.235,-0.71c-1.683,0 -3.058,0.45 -4.119,1.362c-1.058,0.915 -1.594,2.03 -1.594,3.378c0,1.337 0.506,2.396 1.507,3.191c1.016,0.8 2.22,1.192 3.612,1.192c1.35,0 2.625,-0.436 3.829,-1.308l0,1.102l6.742,0l0,-3.232l-2.26,0l0,-5.121Zm-4.482,4.307c-1.045,0.972 -1.987,1.466 -2.815,1.466c-0.534,0 -0.972,-0.186 -1.306,-0.551c-0.331,-0.363 -0.507,-0.812 -0.507,-1.32c0,-0.563 0.203,-1.002 0.623,-1.308c0.423,-0.301 0.901,-0.447 1.409,-0.447c0.652,0 1.508,0.333 2.596,1.016l0,1.144Zm34.218,-9.991l0,3.248l1.842,0l-2.584,6.382l-2.188,-6.382l1.741,0l0,-3.248l-8.512,0l0,3.248l2.029,0l4.742,10.995l3.814,0l4.553,-10.995l2,0l0,-3.248l-7.437,0Zm-28.057,3.248l1.783,0l0,7.338c0,2.438 1.234,3.657 3.685,3.657c1.101,0 2.233,-0.233 3.377,-0.712l0,-3.106c-0.522,0.192 -0.986,0.292 -1.404,0.292c-0.509,0 -0.827,-0.087 -0.975,-0.275c-0.129,-0.189 -0.199,-0.564 -0.199,-1.114l0,-6.08l2.578,0l0,-3.248l-8.845,0l0,3.248Zm16.962,-3.248l-1.864,0l0,3.138l-1.377,0l0,-3.138l-3.371,0l0,3.248l2.131,0l0,7.557l-2.131,0l0,3.232l8.702,0l0,-3.232l-2.09,0l0,-10.805Zm-77.732,0l0,10.805l-2.262,0l0,3.232l8.425,0l0,-3.074l-1.698,0l0,-4.352l0,-6.611l-4.465,0Zm9.294,6.353l4.104,-3.511l1.407,0l0,-2.842l-8.484,0l0,2.682l2.973,0l-4.829,3.929l6.206,7.426l4.308,0l0,-3.232l-1.943,0l-3.742,-4.452Z"/></clipPath><g clip-path="url(#_clip1)"><rect x="-2.929" y="16.173" width="108.526" height="24.706" style="fill:#fffffe;"/></g></svg>