<?xml version="1.0" encoding="UTF-8" standalone="no"?><!DOCTYPE svg PUBLIC "-//W3C//DTD SVG 1.1//EN" "http://www.w3.org/Graphics/SVG/1.1/DTD/svg11.dtd"><svg width="100%" height="100%" viewBox="0 0 220 111" version="1.1" xmlns="http://www.w3.org/2000/svg" xmlns:xlink="http://www.w3.org/1999/xlink" xml:space="preserve" xmlns:serif="http://www.serif.com/" style="fill-rule:evenodd;clip-rule:evenodd;stroke-miterlimit:10;"><g id="Logos"><clipPath id="_clip1"><rect x="16.369" y="5.349" width="182.016" height="98.806"/></clipPath><g clip-path="url(#_clip1)"><g id="XMLID_137_"><path id="XMLID_29_" d="M93.242,64.496l-11.051,0l0,-16.817l3.123,0l0,13.934l7.928,0l0,2.883l0,0Z" style="fill:#fff;fill-rule:nonzero;"/><path id="XMLID_49_" d="M106.142,64.496l-0.721,0c-1.129,0 -2.114,-0.504 -2.786,-1.297c-0.745,0.985 -2.067,1.658 -3.46,1.658c-1.802,0 -2.955,-0.769 -4.108,-1.994l0,-3.988c0.721,-0.962 2.619,-1.298 4.108,-1.538c2.547,-0.408 2.643,-0.985 2.643,-1.489c0,-0.721 -0.817,-1.13 -2.114,-1.13c-2.042,0 -2.546,1.538 -2.546,1.538l-2.355,-1.345c0.817,-1.634 2.21,-2.788 4.901,-2.788c3.412,0 5.118,1.514 5.118,4.157l0,4.252c0,0.673 0.528,1.201 1.201,1.201l0.12,0l0,2.763l-0.001,0Zm-4.324,-4.516l0,-0.985c-1.129,0.672 -3.003,0.48 -4.036,1.105l0,1.561c0.552,0.385 1.177,0.601 1.874,0.601c1.153,0 2.162,-0.601 2.162,-2.282Z" style="fill:#fff;fill-rule:nonzero;"/><path id="XMLID_46_" d="M119.859,58.49c0,3.531 -2.138,6.367 -5.261,6.367c-1.418,0 -2.451,-0.577 -3.172,-1.562l-0.288,1.201l-2.715,0l0,-17.177l2.956,0l0,6.414c0.721,-1.008 1.778,-1.61 3.219,-1.61c3.124,0 5.261,2.812 5.261,6.367Zm-3.003,0c0,-1.946 -1.033,-3.484 -2.739,-3.484c-1.705,0 -2.738,1.538 -2.738,3.484c0,1.922 1.033,3.484 2.738,3.484c1.706,0 2.739,-1.562 2.739,-3.484Z" style="fill:#fff;fill-rule:nonzero;"/><path id="XMLID_24_" d="M122.021,62.815c0,-1.202 0.937,-2.163 2.162,-2.163c1.201,0 2.162,0.961 2.162,2.163c0,1.225 -0.961,2.162 -2.162,2.162c-1.225,0 -2.162,-0.937 -2.162,-2.162Z" style="fill:#fff;fill-rule:nonzero;"/><path id="XMLID_21_" d="M142.85,60.22c0,0 -1.946,4.636 -6.895,4.636c-4.301,0 -7.808,-3.891 -7.808,-8.769c0,-4.9 3.507,-8.769 7.808,-8.769c4.925,0 6.823,4.637 6.823,4.637l-2.763,1.49c0,0 -1.345,-3.123 -4.06,-3.123c-2.451,0 -4.564,2.738 -4.564,5.765c0,3.027 2.113,5.766 4.564,5.766c2.811,0 4.132,-3.123 4.132,-3.123l2.763,1.49Z" style="fill:#fff;fill-rule:nonzero;"/><path id="XMLID_43_" d="M144.29,58.49c0,-3.555 2.859,-6.367 5.982,-6.367c3.123,0 5.982,2.812 5.982,6.367c0,3.531 -2.859,6.367 -5.982,6.367c-3.123,0 -5.982,-2.836 -5.982,-6.367Zm8.913,0c0,-1.946 -1.225,-3.435 -2.93,-3.435c-1.706,0 -2.931,1.489 -2.931,3.435c0,1.922 1.225,3.435 2.931,3.435c1.705,0 2.93,-1.513 2.93,-3.435Z" style="fill:#fff;fill-rule:nonzero;"/><path id="XMLID_40_" d="M157.935,58.49c0,-3.555 2.859,-6.367 5.982,-6.367c3.123,0 5.982,2.812 5.982,6.367c0,3.531 -2.859,6.367 -5.982,6.367c-3.123,0 -5.982,-2.836 -5.982,-6.367Zm8.913,0c0,-1.946 -1.225,-3.435 -2.93,-3.435c-1.706,0 -2.931,1.489 -2.931,3.435c0,1.922 1.225,3.435 2.931,3.435c1.705,0 2.93,-1.513 2.93,-3.435Z" style="fill:#fff;fill-rule:nonzero;"/><path id="XMLID_31_" d="M183.377,58.49c0,3.556 -2.138,6.367 -5.262,6.367c-1.441,0 -2.498,-0.601 -3.219,-1.61l0,6.054l-2.955,0l0,-16.817l2.714,0l0.289,1.201c0.721,-0.985 1.754,-1.562 3.171,-1.562c3.124,0 5.262,2.835 5.262,6.367Zm-3.003,0c0,-1.922 -1.033,-3.484 -2.739,-3.484c-1.706,0 -2.739,1.562 -2.739,3.484c0,1.946 1.033,3.484 2.739,3.484c1.706,0 2.739,-1.538 2.739,-3.484Z" style="fill:#fff;fill-rule:nonzero;"/></g><g id="XMLID_189_"><path id="XMLID_200_" d="M53.226,88.942l-9.823,-28.092c-0.949,-2.713 0.717,-5.64 3.528,-6.201l19.212,-3.837c3.475,-0.694 6.439,2.561 5.437,5.97l-9.389,31.929c-1.294,4.401 -7.451,4.56 -8.965,0.231Z" style="fill:none;fill-rule:nonzero;stroke:#fff;stroke-width:3.36px;"/><path id="XMLID_195_" d="M38.39,39.776l20.943,9.749c2.105,0.98 2.763,3.663 1.354,5.524l-13.561,17.915c-1.838,2.427 -5.645,1.691 -6.428,-1.244l-7.382,-27.662c-0.801,-3.002 2.265,-5.589 5.074,-4.282Z" style="fill:none;fill-rule:nonzero;stroke:#fff;stroke-width:3.36px;"/><path id="XMLID_190_" d="M65.945,43.494l-13.17,-17.197c-1.949,-2.545 -6.002,-1.474 -6.392,1.689l-3.351,27.178c-0.453,3.681 2.971,6.681 6.576,5.762l11.322,-2.884c6.424,-1.637 9.056,-9.271 5.015,-14.548Z" style="fill:none;fill-rule:nonzero;stroke:#fff;stroke-width:3.36px;"/><path id="XMLID_175_" d="M65.836,31.53l4.774,2.223c0.48,0.223 0.63,0.835 0.309,1.259l-3.092,4.084c-0.419,0.553 -1.287,0.385 -1.465,-0.284l-1.683,-6.306c-0.182,-0.684 0.516,-1.274 1.157,-0.976Z" style="fill:#fff;fill-rule:nonzero;"/></g></g></g></svg>