<?xml version="1.0" encoding="UTF-8" standalone="no"?><!DOCTYPE svg PUBLIC "-//W3C//DTD SVG 1.1//EN" "http://www.w3.org/Graphics/SVG/1.1/DTD/svg11.dtd"><svg width="100%" height="100%" viewBox="0 0 220 111" version="1.1" xmlns="http://www.w3.org/2000/svg" xmlns:xlink="http://www.w3.org/1999/xlink" xml:space="preserve" xmlns:serif="http://www.serif.com/" style="fill-rule:evenodd;clip-rule:evenodd;stroke-linejoin:round;stroke-miterlimit:2;"><rect x="-1855" y="-1328" width="7301.84" height="5695.95"/><g id="Logos"><g id="g5618"><path id="path5302" d="M125.069,56.758c-0.396,0.108 -0.521,0.164 -0.831,0.254c-0.325,0.054 -0.686,0.142 -1.101,0.255c-0.971,0.25 -1.442,0.628 -1.442,1.222c0,0.577 0.453,0.921 1.227,0.921c1.443,0 2.147,-0.65 2.147,-2.001l0,-0.651Zm-5.758,-1.855c0.018,-2.059 1.664,-3.307 4.386,-3.307c2.853,0 4.259,1.193 4.259,3.595l0,4.691c0,0.775 0,0.775 0.232,1.28l-2.776,0l-0.163,-0.759c-1.098,0.884 -1.749,1.138 -2.974,1.138c-2.059,0 -3.523,-1.213 -3.523,-2.871c0,-1.369 0.883,-2.345 2.653,-2.849c0.273,-0.072 1.156,-0.254 2.655,-0.539c0.649,-0.112 0.9,-0.344 0.9,-0.781c0,-0.522 -0.522,-0.863 -1.312,-0.863c-0.978,0 -1.575,0.486 -1.575,1.265l-2.762,0Zm-4.181,-0.057c-0.078,-0.867 -0.435,-1.193 -1.359,-1.193c-0.753,0 -1.204,0.288 -1.204,0.776c0,0.436 0.451,0.67 1.442,0.853l1.027,0.194c2.168,0.399 3.195,1.282 3.195,2.872c0,1.943 -1.659,3.193 -4.279,3.193c-3.065,0 -4.76,-1.228 -4.76,-3.446l2.941,0l0,0.126c0,0.758 0.63,1.248 1.638,1.248c0.889,0 1.408,-0.328 1.408,-0.851c0,-0.541 -0.484,-0.868 -1.658,-1.048l-0.954,-0.161c-2.186,-0.342 -3.123,-1.174 -3.123,-2.616c0,-1.986 1.663,-3.197 4.404,-3.197c1.91,0 3.083,0.526 3.717,1.626c0.25,0.47 0.306,0.614 0.377,1.624l-2.812,0l0,0Zm-12.667,-2.869l0.089,1.027c0.718,-0.902 1.55,-1.298 2.67,-1.298c1.281,0 2.308,0.561 2.848,1.516c0.385,0.705 0.457,1.102 0.457,2.616l0,5.324l-2.999,0l0,-5.197c0,-1.372 -0.381,-1.93 -1.315,-1.93c-0.992,0 -1.48,0.666 -1.48,1.93l0,5.197l-3.016,0l0,-9.185l2.746,0Zm-6.679,4.781c-0.381,0.108 -0.507,0.164 -0.812,0.254c-0.36,0.11 -0.685,0.142 -1.083,0.255c-0.973,0.214 -1.464,0.628 -1.464,1.222c0,0.577 0.474,0.921 1.212,0.921c1.462,0 2.147,-0.65 2.147,-2.001l0,-0.651Zm-5.718,-1.855c0,-2.078 1.621,-3.307 4.348,-3.307c2.849,0 4.26,1.193 4.26,3.595l0,4.691c0,0.793 0,0.793 0.249,1.28l-2.779,0l-0.162,-0.759c-0.957,0.828 -1.788,1.138 -2.996,1.138c-2.018,0 -3.5,-1.213 -3.5,-2.871c0,-1.369 0.902,-2.345 2.653,-2.849c0.268,-0.072 1.156,-0.237 2.673,-0.539c0.648,-0.129 0.9,-0.344 0.9,-0.781c0,-0.522 -0.543,-0.863 -1.352,-0.863c-0.976,0 -1.535,0.466 -1.554,1.265l-2.74,0Zm-7.094,-6.5l0,4.601c0.558,-0.902 1.354,-1.298 2.509,-1.298c1.264,0 2.292,0.542 2.835,1.516c0.412,0.705 0.467,1.08 0.467,2.616l0,5.324l-2.995,0l0,-5.197c0,-1.339 -0.399,-1.93 -1.32,-1.93c-0.989,0 -1.496,0.666 -1.496,1.93l0,5.197l-2.993,0l0,-12.759l2.993,0Zm-5.503,0.706l0,2.868l1.696,0l0,2.023l-1.696,0l0,3.644c0,1.335 0.092,1.405 1.247,1.405l0.594,0l0,2.113l-2.259,0c-1.781,0 -2.576,-0.834 -2.576,-2.707l0,-4.454l-1.265,0l0,-2.024l1.265,0l0,-2.868l2.994,0l0,0Zm-4.618,1.317l-0.487,0c-1.119,0 -1.409,0.269 -1.409,1.28l0,0.271l1.786,0l0,2.024l-1.786,0l0,7.161l-2.996,0l0,-7.161l-1.297,0l0,-2.024l1.297,0l0,-0.271c0,-2.418 0.903,-3.303 3.249,-3.303l1.643,0l0,2.023l0,0Zm-9.546,10.736l-0.091,-0.903c-0.739,0.793 -1.587,1.156 -2.634,1.156c-1.298,0 -2.363,-0.542 -2.905,-1.461c-0.396,-0.684 -0.451,-1.031 -0.451,-2.545l0,-5.432l3.014,0l0,5.324c0,1.335 0.379,1.893 1.317,1.893c0.991,0 1.481,-0.65 1.481,-1.893l0,-5.324l3.012,0l0,9.185l-2.743,0l0,0Zm-12.07,-12.759l0,10.232l5.394,0l0,2.527l-8.589,0l0,-12.759l3.195,0" style="fill:#fff;fill-rule:nonzero;"/><path id="path5310" d="M198.802,53.653c-0.738,0 -1.207,0.288 -1.207,0.76c0,0.326 0.16,0.525 0.541,0.646c0.25,0.093 0.65,0.202 0.902,0.236l1.026,0.201c2.186,0.398 3.196,1.281 3.196,2.851c0,1.965 -1.661,3.193 -4.279,3.193c-1.912,0 -3.369,-0.504 -4.111,-1.429c-0.451,-0.555 -0.634,-1.133 -0.634,-2l2.924,0l0,0.092c0,0.775 0.63,1.28 1.642,1.28c0.865,0 1.408,-0.343 1.408,-0.866c0,-0.506 -0.506,-0.868 -1.659,-1.047l-0.956,-0.143c-2.168,-0.361 -3.106,-1.174 -3.106,-2.6c0,-1.983 1.662,-3.212 4.368,-3.212c1.875,0 3.141,0.561 3.739,1.626c0.228,0.431 0.339,0.83 0.358,1.624l-2.797,0c-0.056,-0.865 -0.453,-1.212 -1.355,-1.212Zm-16.147,-0.648c0.541,-0.867 1.351,-1.28 2.419,-1.28c1.257,0 2.127,0.577 2.523,1.658c0.777,-1.153 1.643,-1.641 2.89,-1.641c2.146,0 3.265,1.282 3.265,3.769l0,5.651l-3.015,0l0,-5.305c0,-0.649 -0.02,-0.832 -0.07,-1.03c-0.111,-0.47 -0.561,-0.776 -1.051,-0.776c-0.56,0 -1.025,0.306 -1.225,0.813c-0.109,0.254 -0.127,0.506 -0.127,0.993l0,5.305l-2.995,0l0,-5.392c0,-0.525 -0.052,-0.817 -0.161,-1.07c-0.184,-0.399 -0.596,-0.649 -1.048,-0.649c-0.505,0 -0.94,0.273 -1.154,0.688c-0.107,0.269 -0.143,0.506 -0.143,1.136l0,5.287l-2.996,0l0,-9.166l2.887,0l0,1.009l0.001,0Zm-8.575,0.687c-1.005,0 -1.695,0.632 -1.765,1.642l3.466,0c-0.057,-1.01 -0.723,-1.642 -1.701,-1.642Zm0.091,7.848c-3.027,0 -5.032,-1.965 -5.032,-4.963c0,-2.924 2.076,-4.98 5.015,-4.98c2.039,0 3.627,1.012 4.331,2.76c0.271,0.668 0.453,1.736 0.453,2.53c0,0.07 0,0.234 -0.02,0.398l-6.711,0c0.161,1.332 0.846,2.054 1.892,2.054c0.794,0 1.426,-0.399 1.699,-1.079l2.957,0c-0.181,1.875 -2.148,3.28 -4.584,3.28Zm-7.036,-9.543l1.716,0l0,2.038l-1.716,0l0,3.626c0,0.956 0.017,0.974 0.144,1.138c0.145,0.198 0.524,0.286 1.1,0.286l0.616,0l0,2.078l-2.272,0c-1.805,0 -2.579,-0.799 -2.579,-2.674l0,-4.454l-1.266,0l0,-2.038l1.266,0l0,-2.872l2.991,0l0,2.872l0,0Zm-8.858,1.656c-0.739,0 -1.209,0.288 -1.209,0.76c0,0.326 0.161,0.525 0.542,0.646c0.251,0.093 0.646,0.202 0.903,0.236l1.025,0.201c2.183,0.398 3.196,1.281 3.196,2.851c0,1.965 -1.662,3.193 -4.279,3.193c-1.91,0 -3.374,-0.504 -4.113,-1.429c-0.451,-0.555 -0.629,-1.133 -0.629,-2l2.919,0l0,0.092c0,0.775 0.634,1.28 1.645,1.28c0.865,0 1.407,-0.343 1.407,-0.866c0,-0.506 -0.507,-0.868 -1.662,-1.047l-0.954,-0.143c-2.164,-0.361 -3.104,-1.174 -3.104,-2.6c0,-1.983 1.662,-3.212 4.367,-3.212c1.876,0 3.14,0.561 3.734,1.626c0.234,0.431 0.344,0.83 0.361,1.624l-2.796,0c-0.055,-0.865 -0.453,-1.212 -1.353,-1.212Zm-9.258,2.168c0.18,0.632 0.435,1.641 0.574,2.417l0.097,-0.468l0.124,-0.67l0.198,-0.796l0.105,-0.483l0.994,-3.825l2.943,0l-2.978,9.255c-0.466,1.46 -0.81,2.039 -1.516,2.473c-0.56,0.342 -1.026,0.433 -2.435,0.433l-1.281,0l0,-1.987l0.704,0c0.974,0 1.462,-0.32 1.462,-0.989c0,-0.308 -0.146,-0.976 -0.271,-1.299l-2.995,-7.885l3.12,0l1.155,3.824Zm-9.96,-5.342c-1.209,0 -1.987,0.558 -1.987,1.407c0,0.705 0.454,1.065 1.72,1.355l2,0.451c1.048,0.236 2.111,0.666 2.596,1.047c0.905,0.685 1.319,1.552 1.319,2.688c0,2.633 -2.041,4.113 -5.684,4.113c-2.216,0 -3.773,-0.594 -4.655,-1.767c-0.557,-0.742 -0.9,-1.696 -0.9,-2.566l0,-0.16l3.195,0c0.017,1.317 0.848,1.984 2.561,1.984c1.335,0 2.108,-0.502 2.108,-1.386c0,-0.545 -0.306,-0.957 -0.847,-1.176c-0.305,-0.128 -0.287,-0.143 -1.462,-0.432l-1.786,-0.435c-0.777,-0.178 -1.696,-0.523 -2.092,-0.791c-0.885,-0.614 -1.372,-1.606 -1.372,-2.743c0,-1.262 0.648,-2.437 1.699,-3.121c0.882,-0.597 2.254,-0.904 3.897,-0.904c3.231,0 4.924,1.462 4.977,4.332l-3.104,0c-0.055,-1.302 -0.757,-1.896 -2.183,-1.896" style="fill:#fff;fill-rule:nonzero;"/><path id="path5324" d="M19.28,52.59l-0.23,0.514c-0.498,-0.17 -1.032,-0.323 -1.281,-0.359l-0.135,0.476c1.034,0.307 2.315,0.919 3.884,1.818c3.961,2.352 4.727,2.659 9.053,3.79l0.784,-0.786c-0.344,0.02 -0.422,0.02 -0.556,0.02c-1.626,0 -3.443,-0.748 -4.535,-1.838c1.187,-0.671 2.373,-0.937 4.191,-0.937c0.248,0 0.46,0 1.11,0.038l0.363,-0.441c-0.479,-0.038 -0.745,-0.038 -1.166,-0.038c-1.072,0 -1.684,0.038 -2.66,0.134l0.153,-0.305c0.536,-0.075 1.568,-0.115 2.392,-0.115c0.515,0 1.186,0 1.531,0.019l0.324,-0.421c-0.497,-0.019 -1.34,-0.039 -2.047,-0.039c-0.746,0 -1.454,0.02 -1.969,0.059l0.151,-0.347c0.594,-0.019 0.956,-0.038 1.455,-0.038c0.898,0 1.454,0.019 2.659,0.058l0.325,-0.421c-0.669,-0.056 -1.492,-0.095 -2.526,-0.095c-0.612,0 -0.899,0 -1.683,0.039l0.152,-0.345c0.307,-0.018 0.9,-0.039 1.837,-0.039c0.785,0 1.876,0.078 2.47,0.153l0.325,-0.399c-1.282,-0.155 -2.278,-0.213 -3.426,-0.213c-1.339,0 -2.467,0.075 -3.348,0.249c-0.497,1.415 -1.57,2.22 -2.985,2.22c-0.708,0 -1.111,-0.134 -2.334,-0.765l-0.345,-0.191l0.116,-0.213c0.84,0.385 1.644,0.691 2.085,0.786l0.114,-0.229l-4.248,-1.799Zm6.277,-6.467c4.88,0 8.705,3.806 8.705,8.666c0,4.748 -3.864,8.592 -8.648,8.592c-4.746,0 -8.611,-3.865 -8.611,-8.61c0,-4.745 3.865,-8.648 8.554,-8.648Zm0.23,-0.938c-5.437,0 -9.722,4.228 -9.722,9.604c0,5.263 4.285,9.53 9.549,9.53c5.319,0 9.587,-4.248 9.587,-9.548c0,-5.242 -4.248,-9.586 -9.414,-9.586" style="fill:#fff;fill-rule:nonzero;"/></g></g></svg>