<?xml version="1.0" encoding="UTF-8" standalone="no"?><!DOCTYPE svg PUBLIC "-//W3C//DTD SVG 1.1//EN" "http://www.w3.org/Graphics/SVG/1.1/DTD/svg11.dtd"><svg width="100%" height="100%" viewBox="0 0 220 110" version="1.1" xmlns="http://www.w3.org/2000/svg" xmlns:xlink="http://www.w3.org/1999/xlink" xml:space="preserve" xmlns:serif="http://www.serif.com/" style="fill-rule:evenodd;clip-rule:evenodd;stroke-linejoin:round;stroke-miterlimit:2;"><rect x="-2075" y="-1439" width="7301.84" height="5695.95"/><g id="Logos"><g><path d="M95.103,70.718l-9.517,0l0,-12.79c0,-1.948 -0.336,-3.34 -1.007,-4.18c-0.638,-0.84 -1.595,-1.259 -2.871,-1.259c-1.544,0 -2.668,0.504 -3.373,1.511c-0.672,1.007 -1.008,2.3 -1.008,3.877l0,7.957l3.022,0l0,4.884l-9.517,0l0,-12.79c0,-1.948 -0.336,-3.34 -1.007,-4.18c-0.638,-0.84 -1.595,-1.259 -2.871,-1.259c-1.578,0 -2.702,0.504 -3.374,1.511c-0.671,1.007 -1.007,2.3 -1.007,3.877l0,7.957l4.331,0l0,4.884l-13.848,0l0,-4.884l3.022,0l0,-12.891l-2.971,0l0,-4.935l9.466,0l0,3.424c1.444,-2.584 3.743,-3.877 6.899,-3.877c1.645,0 3.156,0.402 4.532,1.208c1.376,0.806 2.333,2.031 2.87,3.676c1.343,-3.257 3.811,-4.884 7.403,-4.884c2.047,0 3.86,0.638 5.438,1.913c1.578,1.275 2.367,3.257 2.367,5.942l0,10.424l3.021,0l0,4.884Z" style="fill:#fff;fill-rule:nonzero;"/><path d="M100.087,43.979l0,-6.747l6.496,0l0,6.747l-6.496,0Zm9.769,26.739l-12.538,0l0,-4.884l3.021,0l0,-12.891l-3.273,0l0,-4.935l9.769,0l0,17.826l3.021,0l0,4.884Z" style="fill:#fff;fill-rule:nonzero;"/><path d="M131.198,63.668c-0.336,2.619 -1.242,4.532 -2.719,5.741c-1.477,1.208 -3.391,1.813 -5.741,1.813c-2.518,0 -4.565,-0.621 -6.143,-1.863c-1.544,-1.276 -2.316,-3.088 -2.316,-5.439l0,-11.279l-3.223,0l0,-4.633l3.223,0l0,-6.899l6.495,0l0,6.899l8.158,0l0,4.633l-8.158,0l0,10.171c0,1.98 0.907,2.971 2.72,2.971c0.402,0 0.94,-0.167 1.611,-0.503c0.705,-0.369 1.158,-1.394 1.36,-3.072l4.733,1.46Z" style="fill:#fff;fill-rule:nonzero;"/><path d="M156.146,59.388c0,3.592 -1.175,6.462 -3.525,8.611c-2.35,2.149 -5.338,3.223 -8.963,3.223c-3.491,0 -6.345,-1.007 -8.561,-3.022c-2.182,-2.048 -3.273,-4.9 -3.273,-8.56c0,-3.324 1.007,-6.178 3.022,-8.56c2.014,-2.383 5.069,-3.576 9.164,-3.576c4.096,0 7.134,1.193 9.115,3.576c2.014,2.35 3.021,5.12 3.021,8.308Zm-6.697,-0.201c0,-2.317 -0.537,-4.013 -1.612,-5.086c-1.074,-1.074 -2.383,-1.612 -3.927,-1.612c-1.679,0 -3.005,0.605 -3.978,1.813c-0.94,1.175 -1.41,2.836 -1.41,4.985c0,1.948 0.436,3.592 1.309,4.935c0.906,1.344 2.249,2.014 4.028,2.014c1.679,0 3.022,-0.62 4.029,-1.863c1.04,-1.275 1.561,-3.005 1.561,-5.186Z" style="fill:#fff;fill-rule:nonzero;"/><rect x="159.038" y="62.51" width="7.704" height="8.208" style="fill:#fff;fill-rule:nonzero;"/></g></g></svg>