<?xml version="1.0" encoding="UTF-8" standalone="no"?><!DOCTYPE svg PUBLIC "-//W3C//DTD SVG 1.1//EN" "http://www.w3.org/Graphics/SVG/1.1/DTD/svg11.dtd"><svg width="100%" height="100%" viewBox="0 0 220 110" version="1.1" xmlns="http://www.w3.org/2000/svg" xmlns:xlink="http://www.w3.org/1999/xlink" xml:space="preserve" xmlns:serif="http://www.serif.com/" style="fill-rule:evenodd;clip-rule:evenodd;stroke-linejoin:round;stroke-miterlimit:2;"><g id="Logos"><clipPath id="_clip1"><rect x="49.496" y="30.717" width="120.806" height="47.02"/></clipPath><g clip-path="url(#_clip1)"><path d="M169.752,46.179l0,-1.422l-7.828,0l0,1.371l1.829,0.366c0.64,0.139 0.824,0.641 0.414,1.646l-4.209,10.155c-0.184,0.41 -0.412,0.41 -0.55,0l-3.934,-10.141c-0.41,-1.052 -0.182,-1.508 0.459,-1.647l1.829,-0.366l0,-1.384l-16.28,0l0,1.371l1.831,0.366c0.638,0.139 0.867,0.641 0.456,1.646l-4.07,10.705c-0.184,0.411 -0.413,0.411 -0.549,0l-4.121,-10.705c-0.366,-1.051 -0.181,-1.507 0.46,-1.646l1.828,-0.366l0,-1.371l-10.337,0l0,1.417l1.006,0.229c0.631,0.102 1.157,0.54 1.372,1.142l6.998,17.201l3.156,0l6.998,-17.201c0.366,-0.912 0.779,-1.281 1.511,-1.281l0.267,0c0.594,0 1.054,0.23 1.42,1.1l7.317,17.838l-1.967,4.664c-1.281,3.112 -2.242,3.662 -3.429,3.662c-0.504,0 -1.069,-0.093 -1.602,-0.093c-1.42,0 -2.286,1.005 -2.286,2.105c0,1.236 1.006,2.104 2.607,2.104c2.287,0 4.536,-1.831 6.405,-6.222l9.975,-23.361c0.457,-1.052 1.051,-1.511 2.012,-1.692l1.012,-0.19Zm-41.761,17.107l-2.241,-0.23c-0.335,-0.045 -0.571,-0.35 -0.534,-0.685l0,-31.657l-8.07,2.057l0,0.961l2.287,0.731c0.331,0.113 0.539,0.441 0.502,0.788l0,26.978c0,0.505 -0.411,0.87 -1.006,0.87l-2.042,0.04l-2.164,-0.04c-0.596,0 -1.006,-0.365 -1.006,-0.87l0,-18.252l-8.052,2.061l0,0.955l2.277,0.737c0.328,0.108 0.538,0.431 0.504,0.776l0,13.859c0.038,0.341 -0.209,0.648 -0.55,0.686l-1.868,0.23l0,1.465l21.955,0l0.008,-1.46Zm-14.178,-24.019c0,-2.287 -2.058,-3.979 -5.856,-3.979c-5.214,0 -9.238,3.384 -9.238,8.553c0,0.411 0.045,0.731 0.045,1.052c-1.35,-0.553 -2.796,-0.832 -4.254,-0.823c-4.115,0 -9.058,2.515 -9.058,7.959c0,2.516 1.42,4.849 3.889,6.22c-3.659,0.503 -5.762,2.472 -5.762,5.536c0,3.109 2.468,5.337 7.088,4.803l6.671,-0.822c3.34,-0.411 4.436,0.777 4.436,2.516c0,3.019 -2.834,5.443 -7.363,5.443c-3.613,0 -4.94,-1.282 -4.94,-3.11c0,-0.267 0.045,-0.64 0.045,-0.916c0,-1.095 -0.685,-1.867 -1.785,-1.921c-1.278,0 -2.057,0.916 -2.057,2.243c0,3.017 2.882,5.716 8.782,5.716c6.632,0 10.84,-4.299 10.84,-9.24c0,-3.933 -3.156,-6.082 -7.501,-5.535l-7.638,0.961c-2.517,0.321 -3.293,-0.501 -3.293,-1.783c0,-1.51 1.646,-2.697 7.363,-2.697l0.104,0c4.161,0 9.055,-2.517 9.055,-7.961c0.004,-1.718 -0.65,-3.371 -1.828,-4.62c-0.422,-0.824 -0.555,-1.649 -0.555,-2.837c0,-4.027 2.743,-6.314 5.58,-6.314c1.19,0 1.556,0.184 1.556,1.008c0,0.228 -0.048,0.412 -0.048,0.687c0.038,1.58 1.35,2.83 2.93,2.791c1.58,-0.038 2.83,-1.35 2.792,-2.93Zm-15.559,12.578c0,3.203 -1.462,5.948 -3.736,5.948c-2.194,0 -3.934,-2.425 -3.934,-6.138c0,-3.157 1.462,-5.945 3.797,-5.945c2.149,0 3.886,2.423 3.886,6.137l-0.013,-0.002Zm-14.812,-3.293c0,-9.101 -6.954,-16.33 -16.924,-16.33c-9.2,0 -17.022,6.589 -17.022,16.695c0,9.103 6.952,16.33 16.925,16.33c9.192,0 17.016,-6.587 17.016,-16.695l0.005,0Zm-6.725,0.229c0,8.086 -4.074,14.491 -10.205,14.491c-5.991,0 -10.29,-6.137 -10.29,-14.59c0,-8.094 4.069,-14.499 10.199,-14.499c5.992,0 10.296,6.138 10.296,14.598Z" style="fill:#fff;"/></g></g></svg>