<?xml version="1.0" encoding="UTF-8" standalone="no"?><!DOCTYPE svg PUBLIC "-//W3C//DTD SVG 1.1//EN" "http://www.w3.org/Graphics/SVG/1.1/DTD/svg11.dtd"><svg width="100%" height="100%" viewBox="0 0 220 110" version="1.1" xmlns="http://www.w3.org/2000/svg" xmlns:xlink="http://www.w3.org/1999/xlink" xml:space="preserve" xmlns:serif="http://www.serif.com/" style="fill-rule:evenodd;clip-rule:evenodd;stroke-linejoin:round;stroke-miterlimit:2;"><rect x="-2295" y="-1218" width="7301.84" height="5695.95"/><g id="Logos"><clipPath id="_clip1"><rect x="38.689" y="41.022" width="142.42" height="28.121"/></clipPath><g clip-path="url(#_clip1)"><g><rect x="84.09" y="44.611" width="3.117" height="19.483" style="fill:#fff;fill-rule:nonzero;"/><path d="M93.052,64.094l-3.117,0l0,-19.483l1.948,0l1.169,1.754c1.169,-1.17 2.611,-1.754 4.404,-1.754l1.597,0c2.963,0 5.299,2.338 5.299,5.259l0,14.224l-3.116,0l0,-14.573c0,-1.209 -0.975,-2.183 -2.183,-2.183l-1.597,0c-2.416,0 -4.404,1.988 -4.404,4.404l0,12.352Z" style="fill:#fff;fill-rule:nonzero;"/><rect x="132.787" y="44.611" width="3.118" height="19.483" style="fill:#fff;fill-rule:nonzero;"/><path d="M141.751,64.094l-3.117,0l0,-19.483l1.949,0l1.168,1.754c1.169,-1.17 2.687,-1.754 4.288,-1.754l1.75,0c1.833,0 3.469,0.974 4.484,2.338c1.285,-1.481 3.195,-2.338 5.182,-2.338l1.636,0c2.922,0 5.26,2.338 5.26,5.259l0,14.224l-3.116,0l0,-14.573c0,-1.209 -0.975,-2.183 -2.144,-2.183l-1.636,0c-2.418,0 -4.403,1.988 -4.403,4.404l0,12.352l-3.118,0l0,-14.573c0,-1.209 -0.975,-2.183 -2.145,-2.183l-1.75,0c-2.418,0 -4.288,1.988 -4.288,4.404l0,12.352l0,0Z" style="fill:#fff;fill-rule:nonzero;"/><path d="M76.45,44.611l-9.117,0l0,24.529l3.117,0l0,-21.802l6,0c1.209,0 2.183,0.974 2.183,2.183l0,7.442c0,2.416 -1.986,4.403 -4.403,4.403l-2.398,0l0,2.728l2.398,0c4.169,0 7.521,-3.351 7.521,-7.521l0,-6.703c0,-2.921 -2.339,-5.259 -5.301,-5.259Z" style="fill:#fff;fill-rule:nonzero;"/><path d="M109.811,56.989l-0.002,0l0,-0.026l0,-0.194l0,-2.885l0,-0.871l0,-3.143c0,-1.362 1.053,-2.532 2.338,-2.532l3.507,0c1.249,0 2.34,1.17 2.34,2.532c0,1.327 -0.78,2.222 -1.833,2.456l-4.935,1.251l0,2.886l5.638,-1.409c2.337,-0.546 4.247,-2.728 4.247,-5.184c0,-2.921 -2.416,-5.259 -5.456,-5.259l-3.508,0c-3.038,0 -5.454,2.338 -5.454,5.259l0,6.703c0,4.17 3.312,7.521 7.481,7.521l6.158,0l0,-2.728l-6.158,0c-2.406,0 -4.349,-1.973 -4.363,-4.377Z" style="fill:#fff;fill-rule:nonzero;"/><path d="M175.654,44.611l-3.508,0c-3.037,0 -5.453,2.338 -5.453,5.259l0,6.703c0,4.17 3.312,7.521 7.48,7.521l2.251,0l1.125,-2.728l-3.376,0c-2.416,0 -4.364,-1.987 -4.364,-4.403l0,-0.082l0,-3.357l0,-3.654c0,-1.362 1.052,-2.532 2.337,-2.532l3.508,0c1.248,0 2.337,1.17 2.337,2.532c0,1.327 -0.778,2.222 -1.831,2.456l-5.001,1.216l0,2.886l5.702,-1.374c2.339,-0.546 4.249,-2.728 4.249,-5.184c0,-2.921 -2.416,-5.259 -5.456,-5.259Z" style="fill:#fff;fill-rule:nonzero;"/><rect x="128.151" y="44.611" width="3.077" height="2.727" style="fill:#fff;"/><path d="M128.89,61.366c-1.285,0 -2.337,-1.13 -2.337,-2.494l0,-7.349l0,-4.185l0,-2.727l0,-3.502l-3.117,0l0,3.375l-1.359,0.906l0,1.948l1.359,0l0,11.534c0,2.923 2.377,5.222 5.454,5.222l2.338,0l0,-2.728l-2.338,0Z" style="fill:#fff;fill-rule:nonzero;"/><g><path d="M57.808,55.505l-16.495,7.103l-2.624,6.535l19.119,-8.416l7,3.623l0,-5.133l-7,-3.712Z" style="fill:#fff;fill-rule:nonzero;"/><path d="M57.808,47.993l-13.012,5.396l-2.437,6.039l15.449,-6.553l7,3.624l0,-4.794l-7,-3.712Z" style="fill:#fff;fill-rule:nonzero;"/><path d="M57.808,41.022l-9.781,3.81l-2.241,5.522l12.022,-4.789l7,3.624l0,-4.658l-7,-3.509Z" style="fill:#fff;fill-rule:nonzero;"/></g></g></g></g></svg>