<?xml version="1.0" encoding="UTF-8" standalone="no"?><!DOCTYPE svg PUBLIC "-//W3C//DTD SVG 1.1//EN" "http://www.w3.org/Graphics/SVG/1.1/DTD/svg11.dtd"><svg width="100%" height="100%" viewBox="0 0 220 111" version="1.1" xmlns="http://www.w3.org/2000/svg" xmlns:xlink="http://www.w3.org/1999/xlink" xml:space="preserve" xmlns:serif="http://www.serif.com/" style="fill-rule:evenodd;clip-rule:evenodd;stroke-linecap:round;stroke-linejoin:round;stroke-miterlimit:1.5;"><g id="Logos"><circle cx="113.154" cy="56.811" r="20.644" style="fill:none;stroke:#fff;stroke-width:1.08px;"/><g><path d="M57.786,74.715c-0.462,0 -0.822,-0.113 -0.889,-0.136c-0.081,-0.029 -0.226,-0.053 -0.444,-0.053c-0.194,0 -0.348,0.019 -0.35,0.019l-1.13,0.141l-0.004,-0.174c-0.124,0.016 -0.301,0.031 -0.502,0.031c-1.444,0 -1.832,-0.829 -1.933,-1.186l-0.018,-0.067l-0.01,-0.068c-0.019,-0.14 -0.055,-0.644 0.306,-1.255l0.026,-0.044c0.01,-0.027 0.074,-0.172 0.102,-0.412c0.004,-0.33 0.07,-1.157 0.597,-1.69c0.242,-0.246 0.552,-0.398 0.887,-0.44c0.003,-0.013 0.005,-0.025 0.008,-0.037c0.122,-0.561 0.578,-0.921 0.976,-1.075c0.155,-0.071 0.587,-0.395 0.873,-0.643c0.367,-0.307 0.831,-0.478 1.284,-0.478c0.138,0 0.275,0.016 0.406,0.046c0.684,0.148 0.955,0.595 1.054,0.849c0.035,0.09 0.059,0.18 0.074,0.27c0.381,-0.406 0.675,-0.945 0.774,-1.168l0.028,-0.059c0.302,-0.584 0.556,-1.32 0.559,-1.327l0.053,-0.155l0.098,-0.131c0.226,-0.299 0.673,-0.655 1.519,-0.655c0.296,0 0.56,0.044 0.703,0.073c0.045,0.002 0.086,0.003 0.125,0.003c0.083,0 0.138,-0.005 0.17,-0.009l1.312,-0.763c-0.004,-0.086 -0.087,-0.276 -0.134,-0.343l-0.042,-0.06l-0.033,-0.064c-0.628,-1.229 -0.832,-2.533 -0.888,-3.465c-0.513,0.058 -0.984,0.085 -1.437,0.085l-0.001,0c-0.972,0 -1.821,-0.128 -2.592,-0.393l-0.047,-0.018c-3.772,-1.506 -3.528,-5.094 -2.862,-6.817c0.842,-2.665 2.747,-3.525 2.828,-3.561l0.05,-0.02c0.284,-0.106 0.562,-0.334 0.77,-0.541c-1.804,-0.026 -3.133,-0.587 -3.951,-1.67c-1.316,-1.741 -0.664,-4.109 -0.636,-4.209l0.543,-1.911l1.242,1.55c0.745,0.931 2.653,1.498 3.426,1.662c2.664,0.093 3.406,1.889 3.558,2.369c0.771,1.923 -0.456,3.442 -1.22,3.98c-1.606,1.187 -2.621,2.333 -2.811,2.553c-1.172,1.792 -0.411,2.687 -0.32,2.784c0.462,0.437 1.036,0.658 1.736,0.658c1.847,0 4.055,-1.544 4.825,-2.198c1.837,-2.112 4.383,-2.342 5.399,-2.342c0.145,0 0.26,0.005 0.34,0.01c1.217,-0.167 1.911,-0.672 2.093,-0.821c1.89,-2.455 4.303,-2.722 5.261,-2.722c0.11,0 0.2,0.004 0.269,0.008c0.322,-0.046 0.497,-0.106 0.577,-0.14c1.483,-2.315 4.538,-2.846 5.081,-2.923c1.074,-0.287 2.447,-1.115 2.932,-1.441c0.859,-0.674 1.87,-1.016 3.008,-1.016c2.327,0 4.393,1.469 4.48,1.531l0.081,0.058l0.068,0.073c0.608,0.649 1.469,1.279 1.477,1.285c1.971,1.382 2.988,2.492 3.166,2.695c0.65,0.665 1.457,1.643 1.678,1.913c1.195,1.056 2.001,2.441 2.212,2.824c1.291,1.624 1.276,3.598 1.261,3.958c0.013,0.181 0.178,0.912 0.356,1.568c0.086,0.33 0.339,1.441 0.442,1.892c0.553,0.868 0.752,2 0.823,2.643c1.251,1.072 1.803,2.328 1.973,2.786c0.497,0.672 1.489,1.166 1.812,1.29l2.59,0.999l-2.619,0.923c-0.161,0.057 -0.325,0.102 -0.489,0.135l2.068,0.857l-3.188,0.698c-0.394,0.086 -0.792,0.13 -1.183,0.13c-2.137,0 -3.612,-1.275 -4.222,-1.921c-0.992,0.888 -2.208,0.991 -2.716,0.991c-0.21,0 -0.334,-0.016 -0.334,-0.016l-0.086,-0.014c-0.18,-0.036 -0.338,-0.043 -0.439,-0.043c-0.059,0 -0.099,0.002 -0.113,0.003l-0.073,0.007l-0.083,-0.003c-0.258,0 -0.906,0.172 -1.355,0.332c-0.314,0.111 -1.088,0.326 -1.273,0.377c-0.648,0.221 -0.992,0.255 -1.14,0.256l-0.096,0c-0.145,0.039 -0.294,0.059 -0.441,0.059c-0.792,0 -1.265,-0.535 -1.395,-0.705c-0.231,-0.294 -0.375,-0.735 -0.464,-1.126l-0.723,1.118c-0.378,0.681 -1.076,1.07 -1.923,1.07c-0.291,0 -0.509,-0.046 -0.568,-0.06l-0.047,-0.011l-0.045,-0.016c-0.12,0.003 -0.297,0.066 -0.402,0.116c-0.718,0.467 -2.9,1.295 -3.907,1.665c-0.385,0.2 -0.812,0.301 -1.269,0.301c-0.458,0 -0.799,-0.107 -0.863,-0.128c-1.112,-0.378 -1.721,-1.43 -1.787,-1.549l-0.053,-0.096l-0.031,-0.104c-0.079,-0.26 -0.156,-0.406 -0.207,-0.483l-0.026,0.004c-0.11,0.017 -0.219,0.025 -0.323,0.025c-0.808,0 -1.316,-0.489 -1.497,-1.006c-0.186,-0.332 -0.561,-0.865 -0.787,-1.167c-0.496,-0.57 -0.439,-1.102 -0.359,-1.373c0.166,-0.559 0.664,-0.871 1.075,-0.976l0.084,-0.022l2.048,-0.166c0.047,-0.004 0.089,-0.005 0.131,-0.005c1.452,0 2.584,1.962 3.061,2.947c0.026,-0.003 0.046,-0.007 0.059,-0.01c1.051,-0.374 1.666,-0.635 2.015,-0.799c-0.211,-1.184 -1.119,-1.53 -1.129,-1.533c-0.815,-0.296 -1.463,-0.795 -1.968,-1.341l-0.619,0.079c-0.393,0.05 -0.82,0.075 -1.272,0.075c-1.625,0 -3.125,-0.324 -3.382,-0.383c-0.25,-0.041 -0.537,-0.062 -0.851,-0.062c-1.072,0 -2.073,0.237 -2.083,0.239l-0.039,0.009l-0.04,0.007c-0.233,0.037 -0.466,0.055 -0.692,0.055c-0.148,0 -0.288,-0.008 -0.421,-0.022l-0.7,0.813c-0.097,0.119 -0.33,0.589 -0.51,1.028c-0.171,1.012 -0.962,1.522 -1.446,1.676c-0.362,0.129 -1.317,0.604 -1.881,0.897c-0.423,0.28 -1.002,0.411 -1.807,0.411c-0.923,0 -1.89,-0.18 -2.06,-0.213c-0.134,-0.021 -0.269,-0.031 -0.403,-0.031c-1.338,0 -2.306,1.017 -2.315,1.027c-0.683,0.706 -1.564,1.069 -2.567,1.069c-0.42,0 -0.766,-0.064 -0.974,-0.116c-0.213,0.161 -0.572,0.601 -0.81,1.003c-0.42,0.758 -1.178,1.192 -2.083,1.192Zm36.258,-8.837c0.366,-0.747 1.085,-1.315 1.383,-1.529c0.007,-0.062 0.018,-0.126 0.031,-0.19c-0.212,0.032 -0.408,0.062 -0.561,0.085c-0.328,0.161 -0.729,0.242 -1.196,0.242c-0.085,0 -0.17,-0.002 -0.253,-0.007l0.555,1.305l0.009,0.046c0.009,0.014 0.02,0.031 0.032,0.048Z"/><path d="M166.323,74.715c-0.905,0 -1.662,-0.434 -2.081,-1.192c-0.238,-0.401 -0.598,-0.842 -0.81,-1.002c-0.212,0.052 -0.556,0.116 -0.974,0.116c-1.003,0 -1.884,-0.362 -2.548,-1.048c-0.024,-0.026 -1.002,-1.048 -2.335,-1.048c-0.134,0 -0.269,0.011 -0.403,0.031c-0.171,0.033 -1.137,0.213 -2.059,0.213c-0.806,0 -1.384,-0.13 -1.808,-0.411c-0.564,-0.293 -1.518,-0.768 -1.879,-0.896c-0.485,-0.155 -1.277,-0.665 -1.447,-1.678c-0.18,-0.438 -0.413,-0.909 -0.511,-1.028l-0.67,-0.815c-0.142,0.016 -0.292,0.025 -0.451,0.025c-0.226,0 -0.459,-0.019 -0.692,-0.056l-0.04,-0.006l-0.039,-0.009c-0.009,-0.003 -1.02,-0.239 -2.083,-0.239c-0.314,0 -0.6,0.021 -0.851,0.062c-0.255,0.058 -1.757,0.383 -3.382,0.383c-0.451,0 -0.879,-0.025 -1.272,-0.075l-0.619,-0.079c-0.505,0.546 -1.153,1.045 -1.969,1.341c-0.094,0.038 -0.927,0.406 -1.128,1.533c0.35,0.165 0.967,0.426 2.022,0.802c0.008,0.001 0.028,0.005 0.053,0.008c0.493,-1.015 1.619,-2.948 3.06,-2.948c0.042,0 0.084,0.001 0.126,0.004l2.055,0.167l0.084,0.022c0.41,0.105 0.908,0.417 1.073,0.975c0.081,0.271 0.138,0.804 -0.358,1.373c-0.177,0.239 -0.585,0.806 -0.789,1.171c-0.189,0.527 -0.72,1.003 -1.495,1.003c-0.105,0 -0.213,-0.009 -0.323,-0.026l-0.026,-0.004c-0.052,0.077 -0.129,0.224 -0.207,0.484l-0.032,0.104l-0.053,0.095c-0.066,0.119 -0.675,1.171 -1.782,1.547c-0.069,0.024 -0.41,0.13 -0.868,0.13c-0.458,0 -0.884,-0.101 -1.269,-0.301c-1.008,-0.371 -3.194,-1.2 -3.909,-1.666c-0.098,-0.048 -0.278,-0.111 -0.396,-0.111l-0.045,0.015l-0.05,0.008c-0.06,0.014 -0.278,0.06 -0.568,0.06c-0.848,0 -1.545,-0.389 -1.923,-1.069l-0.724,-1.119c-0.09,0.399 -0.239,0.851 -0.479,1.146l-0.003,-0.003c-0.311,0.411 -0.879,0.688 -1.377,0.688c-0.147,0 -0.296,-0.02 -0.441,-0.059l-0.097,0c-0.148,-0.001 -0.491,-0.035 -1.139,-0.256c-0.185,-0.051 -0.959,-0.266 -1.269,-0.376c-0.453,-0.161 -1.102,-0.333 -1.351,-0.333l-0.082,0.004l-0.091,-0.009c-0.005,0 -0.045,-0.002 -0.103,-0.002c-0.102,0 -0.261,0.007 -0.44,0.043l-0.036,0.008l-0.051,0.006c0,0 -0.124,0.016 -0.334,0.016c-0.508,0 -1.724,-0.103 -2.715,-0.99c-0.61,0.645 -2.086,1.92 -4.223,1.92c-0.391,0 -0.789,-0.044 -1.183,-0.13l-3.207,-0.7l2.082,-0.856c-0.163,-0.033 -0.324,-0.078 -0.484,-0.134l-2.618,-0.922l2.59,-1c0.346,-0.136 1.319,-0.624 1.811,-1.29c0.17,-0.459 0.722,-1.714 1.974,-2.786c0.07,-0.644 0.269,-1.775 0.824,-2.644c0.235,-1.038 0.378,-1.653 0.437,-1.879c0.18,-0.661 0.342,-1.384 0.358,-1.588c-0.014,-0.38 -0.02,-2.337 1.262,-3.951c0.21,-0.382 1.017,-1.767 2.213,-2.823c0.22,-0.271 1.027,-1.249 1.677,-1.913c0.179,-0.203 1.197,-1.315 3.181,-2.706c-0.001,0 0.856,-0.627 1.462,-1.274l0.068,-0.073l0.081,-0.058c0.087,-0.063 2.154,-1.531 4.48,-1.531c1.137,0 2.148,0.341 3.006,1.014c0.221,0.146 1.714,1.118 2.934,1.443c0.542,0.077 3.598,0.608 5.081,2.924c0.08,0.033 0.255,0.093 0.576,0.139c0.069,-0.005 0.16,-0.008 0.27,-0.008c0.958,0 3.372,0.268 5.261,2.724c0.169,0.138 0.864,0.65 2.093,0.819c0.08,-0.005 0.196,-0.01 0.34,-0.01c1.015,0 3.558,0.23 5.396,2.338c0.372,0.309 2.736,2.202 4.829,2.202c0.695,0 1.264,-0.218 1.742,-0.665c0.112,-0.123 0.825,-1.016 -0.326,-2.777c-0.188,-0.218 -1.217,-1.375 -2.83,-2.567c-0.745,-0.525 -1.972,-2.043 -1.2,-3.967c0.151,-0.48 0.894,-2.276 3.559,-2.368c0.77,-0.164 2.68,-0.731 3.425,-1.662l1.242,-1.551l0.543,1.911c0.029,0.1 0.68,2.467 -0.635,4.209c-0.818,1.083 -2.147,1.644 -3.951,1.671c0.209,0.208 0.487,0.435 0.769,0.54l0.05,0.021c0.081,0.035 1.987,0.895 2.828,3.561c0.666,1.723 0.91,5.311 -2.862,6.817l-0.048,0.017c-0.772,0.265 -1.619,0.394 -2.592,0.394c-0.453,0 -0.924,-0.027 -1.438,-0.085c-0.055,0.931 -0.26,2.236 -0.888,3.464l-0.033,0.065l-0.042,0.06c-0.063,0.094 -0.125,0.255 -0.133,0.343l1.311,0.762c0.032,0.005 0.087,0.01 0.171,0.01c0.038,0 0.08,-0.001 0.125,-0.004c0.143,-0.029 0.407,-0.072 0.703,-0.072c0.845,0 1.292,0.356 1.518,0.655l0.098,0.131l0.053,0.155c0.003,0.007 0.256,0.742 0.559,1.326l0.016,0.03l0.013,0.032c0.098,0.221 0.392,0.76 0.774,1.166c0.014,-0.09 0.038,-0.18 0.073,-0.27c0.099,-0.254 0.37,-0.701 1.072,-0.853c0.113,-0.026 0.249,-0.042 0.387,-0.042c0.453,0 0.916,0.17 1.271,0.467c0.331,0.285 0.745,0.589 0.887,0.654c0.398,0.154 0.853,0.514 0.975,1.075c0.003,0.012 0.006,0.024 0.008,0.037c0.335,0.042 0.646,0.194 0.888,0.44c0.527,0.533 0.593,1.362 0.597,1.69c0.033,0.284 0.116,0.437 0.119,0.443c0.37,0.625 0.333,1.13 0.313,1.271l-0.009,0.066l-0.018,0.064c-0.1,0.357 -0.488,1.187 -1.934,1.187c-0.196,0 -0.37,-0.015 -0.494,-0.029l-0.003,0.181l-1.14,-0.15c0,0 -0.155,-0.019 -0.348,-0.019c-0.218,0 -0.364,0.025 -0.422,0.046c-0.089,0.031 -0.448,0.144 -0.911,0.144Zm-37.641,-10.365c0.289,0.205 1.015,0.776 1.383,1.528c0.013,-0.017 0.023,-0.033 0.031,-0.047l0.009,-0.045l0.556,-1.307c-0.083,0.005 -0.168,0.007 -0.252,0.007c-0.467,0 -0.868,-0.081 -1.197,-0.242c-0.153,-0.023 -0.348,-0.053 -0.56,-0.085c0.013,0.064 0.023,0.128 0.03,0.191Z"/><path d="M92.319,51.23c-0.16,-0.288 -0.094,-0.583 0.067,-0.864c0.364,-0.558 0.704,0.051 0.704,0.051c1.255,1.75 0.328,4.371 0.328,4.371c-0.129,-2.412 -1.099,-3.558 -1.099,-3.558Zm10.825,11.592c0.019,-0.515 0.062,-1.657 -0.461,-2.065c-0.193,-0.153 -0.955,-0.988 -0.955,-0.988c-0.116,-0.203 -0.205,-0.215 -0.205,-0.215c-0.157,-0.015 -0.36,0.35 -0.36,0.35c-0.543,1.048 -1.085,0.92 -1.085,0.92c-0.004,-0.191 0.124,-0.404 0.124,-0.404c0.148,-0.281 0.778,-1.532 0.778,-1.532c0.079,-0.182 0.152,-0.424 0.152,-0.424c0.525,-0.812 1.018,-0.194 1.018,-0.194c0.221,0.431 1.396,1.833 1.396,1.833c0.261,0.31 0.286,0.643 0.286,0.643c0.272,1.921 -0.688,2.076 -0.688,2.076Zm-3.097,4.893c-0.223,-0.006 -0.28,-0.088 -0.252,-0.333c0.15,-0.683 0.696,-0.977 0.696,-0.977c1.027,-0.613 1.152,0.001 1.152,0.001c0.188,1.095 -0.679,1.233 -0.679,1.233c-0.172,0.06 -0.917,0.076 -0.917,0.076Zm-44.643,3.179c0,0 0.224,0.165 0.104,0.492c0,0 -0.573,1.567 -0.546,2.093c0,0 -1.266,0.226 -1.442,-0.399c0,0 -0.034,-0.242 0.173,-0.592c0,0 0.215,-0.326 0.271,-0.923c0,0 -0.019,-1.503 0.954,-1.105c0.193,0.109 0.345,0.266 0.486,0.434Zm1.546,-2.492c0.208,-0.175 0.515,-0.273 0.787,-0.21c0.614,0.132 0.242,0.663 0.242,0.663c-0.248,0.465 -1.059,1.25 -1.059,1.25c-0.722,0.539 -1.293,-0.104 -1.293,-0.104c-0.534,-0.526 0.161,-0.781 0.161,-0.781c0.405,-0.165 1.162,-0.818 1.162,-0.818Zm7.42,-9.396c0,0 -0.23,2.223 0.771,4.182c0,0 0.742,1.052 -0.029,1.727l-1.534,0.891c0,0 -0.206,0.154 -0.89,0.102c0,0 -0.946,-0.234 -1.261,0.183c0,0 -0.275,0.804 -0.618,1.465c0,0 -0.699,1.605 -1.854,2.119c0,0 -0.921,0.211 -1.201,1.01c0,0 -0.297,0.561 -0.892,0.585c0,0 -0.444,0.141 -0.737,1.129c0,0 -0.161,0.64 -0.152,1.13c0,0 0.757,-0.099 1.25,0.079c0,0 1.212,0.407 1.755,-0.591c0,-0.001 1.047,-1.794 1.823,-1.524c0,0 1.56,0.522 2.662,-0.617c0,0 1.514,-1.654 3.652,-1.313c0,0 2.408,0.488 3.16,-0.068c0,0 1.519,-0.794 2.089,-0.991c0,0 0.697,-0.205 0.769,-0.968c0,0 0.424,-1.074 0.732,-1.432l-1.149,-0.013c0,0 -1.041,1.75 -2.808,2.277c0,0 -0.967,0.386 -2.907,0.072c0,0 -2.786,-0.63 -5.233,2.012c0,0 -0.334,0.483 -0.811,0.29c0,0 1.352,-2.306 4.321,-2.852c0,0 0.971,-0.206 1.782,-0.075c0,0 3.998,0.117 5.852,-3.819c0,0 -0.201,-3.356 0.684,-4.151c0,0 0.343,-0.104 0.274,0.545c0,0 -0.608,3.516 0.535,4.196c0,0 0.663,0.521 1.89,0.328c0,0 1.86,-0.444 3.372,-0.185c0,0 2.326,0.552 4.324,0.297c0,0 -0.519,-0.795 -0.418,-1.745c0,0 0.286,-0.68 0.615,-0.242c0,0 0.769,2.54 2.87,3.302c0,0 1.876,0.684 1.846,3.064c0,0 -0.287,0.326 -2.776,1.21c0,0 -0.93,0.294 -1.23,-0.401c0,0 -1.199,-2.568 -2.244,-2.489l-1.962,0.159c0,0 -0.669,0.171 -0.176,0.707c0,0 0.672,0.894 0.946,1.426c0,0 0.08,0.456 0.711,0.359c0.001,0 0.876,-0.433 1.37,1.195c0,0 0.451,0.814 1.216,1.074c0,0 0.715,0.239 1.386,-0.138c0,0 3.239,-1.189 3.803,-1.61c0,0 0.7,-0.392 1.256,-0.204c0,0 0.971,0.232 1.371,-0.535l1.005,-1.553c0,0 0.22,-0.382 0.19,-0.863c0,0 0.09,-0.476 -0.311,-0.96c0,0 -0.38,-0.401 -0.439,-0.691l-0.716,-1.682c0,0 -0.29,-0.449 -0.608,-0.634l-0.956,0.07c0,0 0.658,1.68 1.139,2.364c0,0 0.651,0.997 0.618,1.63c0,0 -0.043,0.444 -0.218,0.63c0,0 -0.22,0.352 -0.309,0.524c0,0 -0.29,0.628 -0.525,0.768c0,0 -0.406,0.24 -0.505,0.25c0,0 -0.177,0.048 -0.045,-0.268c0,0 0.535,-1.127 0.5,-1.729c0,0 0.103,-0.628 -0.341,-0.995c0,0 -1.041,-1.643 -1.19,-2.134c0,0 -0.327,-0.657 -0.501,-0.77c0,0 -0.363,-0.478 0.223,-0.701c0,0 1.463,-0.33 1.725,-0.51c0,0 0.702,-0.213 1.159,-1.678c0,0 0.629,-1.707 0.62,-2.761c0,0 1.233,2.376 -0.733,4.793c0,0 1.556,0.458 2.199,0c0,0 1.938,-0.283 2.312,-0.387c0,0 0.487,-0.118 0.208,0.228c0,0 -0.583,0.832 -0.633,1.376c0,0 -0.038,0.433 -0.393,0.687c0,0 -1.102,0.772 -1.198,1.511c0,0 -0.236,0.711 0.25,0.541c0,0 0.66,-0.306 0.893,0.002c0,0 0.068,0.032 -0.186,0.318c0,0 -0.662,0.575 -0.712,1.348c0,0 0.123,0.892 0.357,1.178c0,0 0.297,0.413 0.768,0.282c0,0 0.125,-0.101 0.351,-0.033c0,0 0.233,-0.001 0.841,-0.211c0,0 0.922,-0.253 1.23,-0.362c0,0 1.174,-0.42 1.753,-0.39c0,0 0.377,-0.042 0.857,0.054c0,0 1.468,0.167 2.446,-0.914c0,0 0.745,-0.591 0.998,-0.017c0,0 1.786,2.396 4.677,1.765c0,0 -2.301,-0.947 -2.897,-2.235c0,0 -0.08,-1.094 -1.285,-2.612c0,0 -0.368,-0.505 -0.013,-0.636c0,0 0.205,-0.153 0.654,0.297c0.001,0 1.145,1.098 1.558,2.103c0,0 1.422,2.148 3.471,1.426c0,0 -1.608,-0.62 -2.364,-1.777c0,0 -0.467,-1.566 -2.038,-2.732c0,0 -0.062,-1.76 -0.794,-2.749c0,0 -0.373,-1.653 -0.474,-2.04c0,0 -0.396,-1.452 -0.392,-1.852c0,0 0.13,-1.897 -1.093,-3.373c0,0 -0.819,-1.579 -2.095,-2.679c0,0 -0.97,-1.198 -1.69,-1.931c0,0 -0.949,-1.113 -3.017,-2.563c0,0 -0.937,-0.681 -1.622,-1.413c0,0 -3.648,-2.626 -6.284,-0.52c0,0 -1.82,1.238 -3.341,1.621c0,0 -3.124,0.364 -4.455,2.532c0,0 -0.114,0.401 -1.373,0.554c0,0 -2.766,-0.334 -4.802,2.386c0,0 -0.946,0.923 -2.819,1.148c0,0 -3.054,-0.313 -5.042,2.029c0,0 -5.018,4.377 -8.01,1.539c0,0 -1.551,-1.468 0.222,-4.125c0,0 1.124,-1.357 3.041,-2.774c0,0 1.556,-1.096 0.843,-2.801c0,0 -0.377,-1.646 -2.708,-1.689c0,0 -2.926,-0.566 -4.109,-2.043c0,0 -1.322,4.653 3.864,4.575c0,0 1.351,0.2 0.879,1.272c0,0 -0.662,0.918 -1.551,1.252c0,0 -1.565,0.684 -2.271,2.962c0,0 -1.58,3.987 2.274,5.526c1.488,0.511 3.201,0.36 4.728,0.094Z" style="fill:#fff;"/><path d="M131.79,51.23c0.16,-0.288 0.094,-0.583 -0.067,-0.864c-0.364,-0.558 -0.702,0.051 -0.702,0.051c-1.257,1.75 -0.329,4.371 -0.329,4.371c0.128,-2.412 1.098,-3.558 1.098,-3.558Zm-10.824,11.592c-0.019,-0.515 -0.064,-1.657 0.46,-2.065c0.193,-0.153 0.955,-0.988 0.955,-0.988c0.117,-0.203 0.205,-0.215 0.205,-0.215c0.157,-0.015 0.361,0.35 0.361,0.35c0.542,1.048 1.085,0.92 1.085,0.92c0.004,-0.191 -0.125,-0.404 -0.125,-0.404c-0.148,-0.281 -0.778,-1.532 -0.778,-1.532c-0.08,-0.182 -0.153,-0.424 -0.153,-0.424c-0.524,-0.812 -1.017,-0.194 -1.017,-0.194c-0.22,0.431 -1.395,1.833 -1.395,1.833c-0.262,0.31 -0.287,0.643 -0.287,0.643c-0.271,1.921 0.689,2.076 0.689,2.076Zm3.096,4.893c0.224,-0.006 0.281,-0.088 0.252,-0.333c-0.15,-0.683 -0.696,-0.977 -0.696,-0.977c-1.027,-0.613 -1.152,0.001 -1.152,0.001c-0.187,1.095 0.679,1.233 0.679,1.233c0.173,0.06 0.917,0.076 0.917,0.076Zm44.643,3.179c0,0 -0.222,0.165 -0.103,0.492c0,0 0.571,1.567 0.545,2.093c0,0 1.267,0.226 1.442,-0.399c0,0 0.035,-0.242 -0.173,-0.592c0,0 -0.214,-0.326 -0.27,-0.923c0,0 0.019,-1.503 -0.954,-1.105c-0.193,0.109 -0.346,0.266 -0.487,0.434Zm-1.546,-2.492c-0.209,-0.175 -0.515,-0.273 -0.786,-0.21c-0.615,0.132 -0.243,0.663 -0.243,0.663c0.249,0.465 1.06,1.25 1.06,1.25c0.722,0.539 1.292,-0.104 1.292,-0.104c0.534,-0.526 -0.162,-0.781 -0.162,-0.781c-0.403,-0.165 -1.161,-0.818 -1.161,-0.818Zm-7.419,-9.396c0,0 0.229,2.223 -0.772,4.182c0,0 -0.743,1.052 0.028,1.727l1.535,0.891c0,0 0.206,0.154 0.891,0.102c0,0 0.945,-0.234 1.26,0.183c0,0 0.275,0.804 0.618,1.465c0,0 0.699,1.605 1.854,2.119c0.001,0 0.922,0.211 1.2,1.01c0,0 0.298,0.561 0.892,0.585c0,0 0.445,0.141 0.739,1.129c0,0 0.159,0.64 0.152,1.13c0,0 -0.757,-0.099 -1.251,0.079c0,0 -1.212,0.407 -1.754,-0.591c0,-0.001 -1.048,-1.794 -1.824,-1.524c0,0 -1.56,0.522 -2.662,-0.617c0,0 -1.515,-1.654 -3.653,-1.313c0,0 -2.408,0.488 -3.159,-0.068c0,0 -1.518,-0.794 -2.088,-0.991c0,0 -0.698,-0.205 -0.769,-0.968c0,0 -0.424,-1.074 -0.733,-1.432l1.149,-0.013c0,0 1.04,1.75 2.808,2.277c0,0 0.967,0.386 2.906,0.072c0,0 2.786,-0.63 5.233,2.012c0,0 0.335,0.483 0.811,0.29c0,0 -1.351,-2.306 -4.32,-2.852c0,0 -0.972,-0.206 -1.782,-0.075c0,0 -3.999,0.117 -5.853,-3.819c0,0 0.202,-3.356 -0.684,-4.151c0,0 -0.341,-0.104 -0.275,0.545c0,0 0.609,3.516 -0.534,4.196c0,0 -0.664,0.521 -1.89,0.328c0,0 -1.861,-0.444 -3.372,-0.185c0,0 -2.326,0.552 -4.324,0.297c0,0 0.519,-0.795 0.417,-1.745c0,0 -0.286,-0.68 -0.615,-0.242c0,0 -0.769,2.54 -2.869,3.302c0,0 -1.877,0.684 -1.846,3.064c0,0 0.288,0.326 2.776,1.21c0,0 0.93,0.294 1.23,-0.401c0,0 1.199,-2.568 2.244,-2.489l1.962,0.159c0,0 0.668,0.171 0.176,0.707c0,0 -0.671,0.894 -0.947,1.426c0,0 -0.079,0.456 -0.711,0.359c0,0 -0.875,-0.433 -1.369,1.195c0,0 -0.451,0.814 -1.216,1.074c0,0 -0.715,0.239 -1.386,-0.138c0,0 -3.239,-1.189 -3.802,-1.61c0,0 -0.701,-0.392 -1.256,-0.204c0,0 -0.972,0.232 -1.372,-0.535l-1.004,-1.553c0,0 -0.222,-0.382 -0.191,-0.863c0.001,0 -0.091,-0.476 0.311,-0.96c0,0 0.38,-0.401 0.439,-0.691l0.716,-1.682c0,0 0.291,-0.449 0.609,-0.634l0.956,0.07c0,0 -0.659,1.68 -1.14,2.364c0,0 -0.651,0.997 -0.618,1.63c0,0 0.044,0.444 0.218,0.63c0,0 0.221,0.352 0.31,0.524c0,0 0.289,0.628 0.524,0.768c0,0 0.406,0.24 0.505,0.25c0,0 0.178,0.048 0.045,-0.268c0,0 -0.534,-1.127 -0.5,-1.729c0,0 -0.103,-0.628 0.341,-0.995c0,0 1.041,-1.643 1.191,-2.134c0,0 0.325,-0.657 0.5,-0.77c0,0 0.364,-0.478 -0.223,-0.701c0,0 -1.463,-0.33 -1.725,-0.51c0,0 -0.702,-0.213 -1.159,-1.678c0,0 -0.629,-1.707 -0.62,-2.761c0,0 -1.233,2.376 0.734,4.793c0,0 -1.556,0.458 -2.2,0c0,0 -1.937,-0.283 -2.312,-0.387c0,0 -0.486,-0.118 -0.208,0.228c0,0 0.583,0.832 0.633,1.376c0,0 0.038,0.433 0.393,0.687c0,0 1.102,0.772 1.198,1.511c0,0 0.237,0.711 -0.251,0.541c0,0 -0.659,-0.306 -0.892,0.002c0,0 -0.068,0.032 0.187,0.318c0,0 0.662,0.575 0.711,1.348c0,0 -0.123,0.892 -0.356,1.178c0,0 -0.298,0.413 -0.769,0.282c0,0 -0.124,-0.101 -0.351,-0.033c0,0 -0.232,-0.001 -0.841,-0.211c0,0 -0.922,-0.253 -1.229,-0.362c0,0 -1.174,-0.42 -1.754,-0.39c0,0 -0.377,-0.042 -0.857,0.054c0,0 -1.468,0.167 -2.447,-0.914c0.001,0 -0.744,-0.591 -0.996,-0.017c0,0 -1.786,2.396 -4.678,1.765c0,0 2.302,-0.947 2.898,-2.235c0,0 0.08,-1.094 1.284,-2.612c0,0 0.368,-0.505 0.013,-0.636c0,0 -0.205,-0.153 -0.654,0.297c0,0 -1.144,1.098 -1.557,2.103c0,0 -1.423,2.148 -3.471,1.426c0,0 1.608,-0.62 2.364,-1.777c0,0 0.466,-1.566 2.038,-2.732c0,0 0.061,-1.76 0.794,-2.749c0,0 0.373,-1.653 0.473,-2.04c0,0 0.395,-1.452 0.392,-1.852c0,0 -0.13,-1.897 1.092,-3.373c0,0 0.82,-1.579 2.097,-2.679c0,0 0.969,-1.198 1.689,-1.931c0,0 0.949,-1.113 3.018,-2.563c0,0 0.936,-0.681 1.621,-1.413c0,0 3.648,-2.626 6.284,-0.52c0,0 1.82,1.238 3.341,1.621c0,0 3.123,0.364 4.455,2.532c0,0 0.114,0.401 1.373,0.554c0,0 2.765,-0.334 4.802,2.386c0,0 0.946,0.923 2.819,1.148c0,0 3.054,-0.313 5.042,2.029c0,0 5.018,4.377 8.011,1.539c0,0 1.55,-1.468 -0.223,-4.125c0,0 -1.123,-1.357 -3.041,-2.774c0,0 -1.556,-1.096 -0.843,-2.801c0,0 0.377,-1.646 2.709,-1.689c0,0 2.925,-0.566 4.108,-2.043c0,0 1.322,4.653 -3.864,4.575c0,0 -1.35,0.2 -0.878,1.272c0,0 0.662,0.918 1.551,1.252c0,0 1.565,0.684 2.271,2.962c0,0 1.58,3.987 -2.275,5.526c-1.487,0.511 -3.2,0.36 -4.726,0.094Z" style="fill:#fff;"/></g></g></svg>