<?xml version="1.0" encoding="UTF-8" standalone="no"?><!DOCTYPE svg PUBLIC "-//W3C//DTD SVG 1.1//EN" "http://www.w3.org/Graphics/SVG/1.1/DTD/svg11.dtd"><svg width="100%" height="100%" viewBox="0 0 97 60" version="1.1" xmlns="http://www.w3.org/2000/svg" xmlns:xlink="http://www.w3.org/1999/xlink" xml:space="preserve" xmlns:serif="http://www.serif.com/" style="fill-rule:evenodd;clip-rule:evenodd;stroke-linejoin:round;stroke-miterlimit:2;"><g id="Logos"></g><g><clipPath id="_clip1"><path d="M55.674,18.698l-7.615,19.447l-1.259,0l7.614,-19.447l1.26,0Z" clip-rule="nonzero"/></clipPath><g clip-path="url(#_clip1)"><rect x="44.394" y="16.292" width="13.686" height="24.258" style="fill:#fff;"/></g><rect x="3.549" y="18.608" width="19.475" height="19.784" style="fill:#fff;"/><clipPath id="_clip2"><path d="M86.889,31.206l-2.162,-6.841l-2.185,6.841l4.347,0Zm0.047,-12.176l6.627,18.94l-4.633,0l-1.139,-3.548l-6.153,0l-1.116,3.548l-4.632,0l6.604,-18.94l4.442,0Zm-13.777,8.653l0,10.287l-3.326,0l0,-1.761c-0.459,0.68 -0.991,1.182 -1.592,1.505c-0.601,0.324 -1.211,0.545 -1.829,0.664c-0.301,0.051 -0.598,0.089 -0.891,0.115c-0.293,0.026 -0.574,0.038 -0.844,0.038l-0.237,0.026c-0.015,-0.018 -0.028,-0.026 -0.036,-0.026l-0.035,0c-0.349,0 -0.91,-0.034 -1.687,-0.102c-0.776,-0.069 -1.592,-0.306 -2.447,-0.715c-1.124,-0.544 -2.149,-1.51 -3.076,-2.897c-0.926,-1.386 -1.39,-3.51 -1.39,-6.368c0,-2.961 0.749,-5.36 2.245,-7.198c1.496,-1.837 3.845,-2.756 7.044,-2.756l0.237,0c1.822,0 3.246,0.353 4.276,1.059c1.03,0.706 1.797,1.476 2.304,2.31c0.443,0.749 0.74,1.446 0.891,2.094c0.15,0.647 0.233,1.055 0.25,1.224l-4.585,0c-0.032,-0.748 -0.304,-1.429 -0.819,-2.041c-0.515,-0.613 -1.335,-0.928 -2.458,-0.945c-1.362,0.017 -2.364,0.391 -3.006,1.123c-0.641,0.732 -1.08,1.532 -1.318,2.399c-0.138,0.519 -0.229,1.048 -0.273,1.583c-0.036,0.424 -0.056,0.85 -0.059,1.276c0,2.127 0.4,3.655 1.2,4.582c0.799,0.927 1.674,1.467 2.624,1.62c0.117,0.032 0.236,0.054 0.356,0.064c0.111,0.01 0.222,0.013 0.333,0.013c1.203,-0.033 2.145,-0.417 2.826,-1.148c0.682,-0.732 1.054,-1.592 1.117,-2.579l-3.516,0l0,-3.446l7.721,0l0,0Zm-40.692,-0.153l3.634,0c0.633,-0.012 1.251,-0.188 1.794,-0.511c0.546,-0.323 0.82,-0.944 0.82,-1.863c0,-0.987 -0.273,-1.642 -0.82,-1.965c-0.546,-0.324 -1.216,-0.485 -2.007,-0.485l-3.421,0l0,4.824l0,0Zm-4.395,-8.5l9.265,0c2.137,0 3.642,0.541 4.513,1.621c0.871,1.08 1.306,2.336 1.306,3.765c0,1.242 -0.237,2.216 -0.712,2.922c-0.475,0.707 -0.998,1.213 -1.568,1.519c-0.111,0.068 -0.218,0.124 -0.321,0.166c-0.103,0.042 -0.202,0.081 -0.296,0.114l0,0.077c0.934,0.273 1.563,0.736 1.888,1.391c0.325,0.656 0.519,1.349 0.582,2.081c0.032,0.373 0.048,0.748 0.047,1.123c0.016,1.14 0.051,1.97 0.107,2.489c0.055,0.519 0.195,0.974 0.416,1.366c0.016,0.05 0.039,0.101 0.071,0.153c0.031,0.05 0.064,0.101 0.095,0.153l-4.466,0c-0.254,-0.392 -0.424,-0.852 -0.511,-1.379c-0.087,-0.527 -0.146,-1.412 -0.178,-2.655c0,-0.084 -0.004,-0.178 -0.012,-0.281c-0.007,-0.093 -0.011,-0.187 -0.011,-0.281c-0.046,-0.59 -0.247,-1.157 -0.582,-1.645c-0.341,-0.503 -1.097,-0.754 -2.269,-0.754l-2.969,0l0,6.995l-4.395,0l0,-18.94Z" clip-rule="nonzero"/></clipPath><g clip-path="url(#_clip2)"><rect x="25.667" y="16.089" width="70.302" height="24.874" style="fill:#fff;"/></g></g></svg>