<?xml version="1.0" encoding="UTF-8" standalone="no"?><!DOCTYPE svg PUBLIC "-//W3C//DTD SVG 1.1//EN" "http://www.w3.org/Graphics/SVG/1.1/DTD/svg11.dtd"><svg width="100%" height="100%" viewBox="0 0 220 110" version="1.1" xmlns="http://www.w3.org/2000/svg" xmlns:xlink="http://www.w3.org/1999/xlink" xml:space="preserve" xmlns:serif="http://www.serif.com/" style="fill-rule:evenodd;clip-rule:evenodd;stroke-linejoin:round;stroke-miterlimit:2;"><rect x="-1635" y="-1439" width="7301.84" height="5695.95"/><g id="Logos"><g><path d="M8.225,57.743c-0.08,-0.394 0.02,-0.611 0.216,-0.611c0.277,0 0.277,0.237 0.375,0.65c0.237,0.909 1.421,2.961 4.15,2.961c1.876,0 3.712,-1.047 3.712,-3.122c0,-3.813 -8.016,-1.679 -8.016,-6.836c0,-2.509 2.113,-3.713 4.383,-3.713c2.39,0 3.041,0.709 3.318,0.709c0.177,0 0.217,-0.217 0.414,-0.217c0.119,0 0.217,0.06 0.237,0.276l0.296,2.687c0.02,0.159 -0.02,0.297 -0.217,0.297c-0.217,0 -0.356,-0.415 -0.415,-0.593c-0.592,-1.698 -2.033,-2.568 -3.771,-2.568c-1.561,0 -3.219,0.751 -3.219,2.568c0,3.714 8.017,1.541 8.017,6.994c0,1.66 -1.165,4.156 -5.647,4.156c-1.461,0 -3.258,-0.737 -3.337,-1.092l-0.496,-2.546Z" style="fill:#fff;"/><path d="M25.713,50.89c0.12,-0.214 0.218,-0.214 0.316,0l1.933,4.28c0.099,0.23 0.119,0.355 -0.315,0.355l-3.906,0c-0.256,0 -0.394,-0.071 -0.256,-0.319l2.228,-4.316Zm3.729,7.544c0.198,0.483 0.612,1.302 0.612,1.695c0,0.676 -1.183,0.498 -1.183,0.923c0,0.177 0.315,0.177 0.432,0.177c0.533,0 1.066,-0.077 1.598,-0.077c0.81,0 1.619,0.077 2.428,0.077c0.137,0 0.275,0 0.275,-0.159c0,-0.443 -1.143,-0.053 -1.735,-0.871c-0.455,-0.624 -0.691,-1.372 -0.987,-2.032l-4.104,-9.142c-0.059,-0.142 -0.198,-0.656 -0.414,-0.656c-0.257,0 -0.316,0.284 -1.48,2.521l-4.723,9.059c-0.513,1.013 -1.441,0.712 -1.441,1.085c0,0.107 0.059,0.196 0.177,0.196c0.513,0 1.047,-0.078 1.579,-0.078c0.553,0 1.105,0.078 1.657,0.078c0.256,0 0.533,0.052 0.533,-0.268c0,-0.461 -1.401,0.071 -1.401,-1.174c0,-0.231 0.079,-0.498 0.139,-0.624l1.262,-2.494c0.198,-0.373 0.553,-0.373 0.927,-0.373l4.342,0c0.551,0 0.671,0.267 0.868,0.676l0.639,1.461Z" style="fill:#fff;"/><path d="M41.065,50.89c0.118,-0.214 0.217,-0.214 0.316,0l1.933,4.28c0.098,0.23 0.119,0.355 -0.316,0.355l-3.906,0c-0.256,0 -0.394,-0.071 -0.256,-0.319l2.229,-4.316Zm3.729,7.544c0.197,0.483 0.611,1.302 0.611,1.695c0,0.676 -1.183,0.498 -1.183,0.923c0,0.177 0.315,0.177 0.434,0.177c0.532,0 1.064,-0.077 1.598,-0.077c0.808,0 1.617,0.077 2.426,0.077c0.138,0 0.276,0 0.276,-0.159c0,-0.443 -1.144,-0.053 -1.735,-0.871c-0.454,-0.624 -0.691,-1.372 -0.987,-2.032l-4.104,-9.142c-0.059,-0.142 -0.197,-0.656 -0.413,-0.656c-0.257,0 -0.316,0.284 -1.48,2.521l-4.723,9.059c-0.514,1.013 -1.441,0.712 -1.441,1.085c0,0.107 0.058,0.196 0.178,0.196c0.512,0 1.045,-0.078 1.578,-0.078c0.552,0 1.105,0.078 1.658,0.078c0.256,0 0.533,0.052 0.533,-0.268c0,-0.461 -1.401,0.071 -1.401,-1.174c0,-0.231 0.079,-0.498 0.137,-0.624l1.264,-2.494c0.197,-0.373 0.552,-0.373 0.927,-0.373l4.341,0c0.553,0 0.67,0.267 0.868,0.676l0.638,1.461Z" style="fill:#fff;"/><path d="M52.794,50.434c0,-0.124 0.08,-0.8 -0.197,-0.818l-3.206,0c-1.218,0 -1.258,0.266 -1.612,1.245c-0.059,0.177 -0.079,0.409 -0.336,0.409c-0.12,0 -0.198,-0.124 -0.198,-0.213l0.218,-1.726c0.019,-0.212 0,-0.691 0.356,-0.691c1.533,0 3.047,0.077 5.587,0.077c3.582,0 5.402,-0.077 5.798,-0.077c0.452,0 0.548,0.105 0.569,0.514l0.098,1.421c0.019,0.18 0.039,0.392 -0.215,0.392c-0.728,0 0.332,-1.352 -1.678,-1.352l-2.83,0c-0.891,0 -0.792,-0.071 -0.792,0.872l0,9.07c0,1.494 1.604,0.907 1.604,1.459c0,0.053 0.019,0.213 -0.179,0.213c-0.475,0 -1.029,-0.077 -1.603,-0.077c-2.21,0 -2.584,0.077 -2.702,0.077c-0.177,0 -0.236,-0.054 -0.236,-0.232c0,-0.427 1.553,-0.249 1.553,-1.315l0,-9.248l0.001,0Z" style="fill:#fff;"/><path d="M67.792,48.486c3.709,0 4.735,1.367 5.307,1.367c0.159,0 0.276,-0.177 0.474,-0.177c0.217,0 0.217,0.284 0.276,1.441c0.039,0.943 0.217,1.531 -0.118,1.531c-0.237,0 -0.375,-0.463 -0.455,-0.588c-1.222,-1.904 -2.624,-3.062 -5.169,-3.062c-3.848,0 -5.703,2.315 -5.703,5.625c0,3.097 1.973,6.194 5.761,6.194c3.099,0 5.032,-1.78 5.329,-2.598c0.039,-0.125 0.157,-0.232 0.275,-0.232c0.1,0 0.198,0.107 0.178,0.195l-0.453,1.781c-0.021,0.071 -1.421,1.393 -5.861,1.393c-4.045,0 -6.945,-2.498 -6.945,-6.182c0,-3.682 2.94,-6.688 7.104,-6.688Z" style="fill:#fff;"/><path d="M76.68,50.166c-0.018,-1.295 -1.716,-0.94 -1.716,-1.332c0,-0.159 0.158,-0.194 0.316,-0.194c0.73,0 1.44,0.077 2.172,0.077c0.613,0 1.224,-0.077 1.835,-0.077c0.335,0 0.374,0.105 0.374,0.177c0,0.355 -1.418,0.018 -1.418,1.349l0,3.835c0,0.247 0,0.319 0.295,0.319l7.209,0c0.197,0 0.157,-0.445 0.157,-0.516l0,-3.638c0,-1.225 -1.476,-0.923 -1.476,-1.332c0,-0.106 0.038,-0.194 0.333,-0.194c0.651,0 1.677,0.076 2.052,0.076c0.732,0 1.028,-0.076 1.423,-0.076c0.513,0 0.552,0.177 0.552,0.283c0,0.32 -1.322,0.018 -1.322,1.243l0,9.425c0,1.3 1.796,0.979 1.796,1.424c0,0.053 -0.08,0.214 -0.218,0.214c-0.533,0 -1.144,-0.078 -1.856,-0.078c-1.265,0 -1.817,0.078 -2.191,0.078c-0.177,0 -0.472,0.052 -0.472,-0.233c0,-0.426 1.378,-0.177 1.378,-1.299l0,-4.27c0,-0.285 0.08,-0.444 -0.157,-0.444l-7.267,0c-0.237,0 -0.237,0.107 -0.237,0.302l0,4.431c0,1.21 1.871,0.818 1.871,1.369c0,0.09 -0.138,0.144 -0.316,0.144c-0.256,0 -1.694,-0.077 -2.742,-0.077c-1.402,0 -1.618,0.077 -1.698,0.077c-0.157,0 -0.217,-0.089 -0.217,-0.268c0,-0.515 1.539,0.071 1.539,-1.69l0,-9.105l0.001,0Z" style="fill:#fff;"/><path d="M92.212,50.169c-0.02,-1.299 -1.598,-0.943 -1.598,-1.335c0,-0.159 0.039,-0.194 0.198,-0.194c0.73,0 1.44,0.077 2.172,0.077c0.613,0 1.225,-0.077 1.837,-0.077c0.315,0 0.375,0.035 0.375,0.177c0,0.427 -1.421,0.018 -1.421,1.352l0,9.549c0,1.209 1.756,0.8 1.756,1.333c0,0.124 -0.059,0.179 -0.395,0.179c-0.453,0 -1.302,-0.078 -2.152,-0.078c-1.205,0 -1.619,0.078 -1.896,0.078c-0.355,0 -0.414,-0.09 -0.414,-0.268c0,-0.515 1.539,0.071 1.539,-1.69l0,-9.103l-0.001,0Z" style="fill:#fff;"/><path d="M108.706,60.227c-2.548,0 -5.055,-2.218 -5.055,-4.851c0,-1.149 0.908,-2.703 2.152,-2.703c0.711,0 2.212,2.663 6.437,6.286c-0.967,0.833 -2.27,1.268 -3.534,1.268Zm2.034,-12.067c0,-0.177 0.039,-0.552 -0.237,-0.552c-0.177,0 -0.257,0.177 -0.355,0.177c-0.099,0 -0.848,-0.533 -2.113,-0.533c-1.6,0 -3.2,0.888 -3.2,2.683c0,0.829 0.395,1.618 0.908,2.25c-2.112,0.449 -3.146,2.082 -3.146,4.201c0,3.088 2.534,4.996 5.437,4.996c1.936,0 3.436,-0.666 4.858,-1.986c1.085,0.859 2.166,1.986 3.647,1.986c0.65,0 1.637,-0.296 1.637,-0.632c0,-0.039 -0.02,-0.159 -0.158,-0.159c-0.138,0 -0.335,0.099 -0.73,0.099c-0.888,0 -2.743,-1.916 -3.488,-2.509c0.629,-1.128 0.785,-2.392 0.923,-3.637c0.097,-0.869 0.848,-0.653 0.848,-0.966c0,-0.197 -0.097,-0.236 -0.276,-0.236c-0.671,0 -1.004,0.076 -1.259,0.076c-0.295,0 -0.987,-0.076 -1.718,-0.076c-0.157,0 -0.452,-0.04 -0.452,0.176c0,0.631 1.856,-0.157 1.856,2.152c0,0.831 -0.08,1.543 -0.573,2.096c-4.265,-3.954 -7.189,-7.074 -7.189,-8.398c0,-0.949 0.731,-1.602 1.64,-1.602c1.205,0 2.232,1.048 2.705,2.076c0.06,0.12 0.119,0.355 0.297,0.355c0.078,0 0.197,-0.058 0.197,-0.157l-0.059,-1.88Z" style="fill:#fff;"/><path d="M124.295,57.743c-0.079,-0.394 0.02,-0.611 0.217,-0.611c0.275,0 0.275,0.237 0.374,0.65c0.237,0.909 1.421,2.961 4.151,2.961c1.876,0 3.713,-1.047 3.713,-3.122c0,-3.813 -8.016,-1.679 -8.016,-6.836c0,-2.509 2.112,-3.713 4.381,-3.713c2.39,0 3.042,0.709 3.318,0.709c0.177,0 0.217,-0.217 0.414,-0.217c0.119,0 0.217,0.06 0.237,0.276l0.296,2.687c0.019,0.159 -0.02,0.297 -0.217,0.297c-0.217,0 -0.355,-0.415 -0.414,-0.593c-0.592,-1.698 -2.034,-2.568 -3.772,-2.568c-1.56,0 -3.218,0.751 -3.218,2.568c0,3.714 8.016,1.541 8.016,6.994c0,1.66 -1.165,4.156 -5.646,4.156c-1.462,0 -3.258,-0.737 -3.337,-1.092l-0.497,-2.546Z" style="fill:#fff;"/><path d="M141.801,50.89c0.118,-0.214 0.217,-0.214 0.315,0l1.934,4.28c0.098,0.23 0.117,0.355 -0.316,0.355l-3.906,0c-0.257,0 -0.395,-0.071 -0.257,-0.319l2.23,-4.316Zm3.729,7.544c0.197,0.483 0.611,1.302 0.611,1.695c0,0.676 -1.183,0.498 -1.183,0.923c0,0.177 0.315,0.177 0.433,0.177c0.532,0 1.065,-0.077 1.598,-0.077c0.81,0 1.617,0.077 2.428,0.077c0.138,0 0.276,0 0.276,-0.159c0,-0.443 -1.145,-0.053 -1.737,-0.871c-0.453,-0.624 -0.69,-1.372 -0.986,-2.032l-4.103,-9.142c-0.06,-0.142 -0.198,-0.656 -0.415,-0.656c-0.256,0 -0.316,0.284 -1.479,2.521l-4.724,9.059c-0.512,1.013 -1.44,0.712 -1.44,1.085c0,0.107 0.059,0.196 0.178,0.196c0.511,0 1.045,-0.078 1.578,-0.078c0.551,0 1.103,0.078 1.658,0.078c0.256,0 0.532,0.052 0.532,-0.268c0,-0.461 -1.402,0.071 -1.402,-1.174c0,-0.231 0.08,-0.498 0.139,-0.624l1.263,-2.494c0.197,-0.373 0.551,-0.373 0.927,-0.373l4.341,0c0.553,0 0.671,0.267 0.869,0.676l0.638,1.461Z" style="fill:#fff;"/><path d="M157.152,50.89c0.12,-0.214 0.217,-0.214 0.316,0l1.933,4.28c0.099,0.23 0.119,0.355 -0.316,0.355l-3.905,0c-0.259,0 -0.396,-0.071 -0.259,-0.319l2.231,-4.316Zm3.728,7.544c0.198,0.483 0.612,1.302 0.612,1.695c0,0.676 -1.183,0.498 -1.183,0.923c0,0.177 0.315,0.177 0.433,0.177c0.533,0 1.066,-0.077 1.598,-0.077c0.809,0 1.618,0.077 2.427,0.077c0.138,0 0.276,0 0.276,-0.159c0,-0.443 -1.144,-0.053 -1.736,-0.871c-0.454,-0.624 -0.69,-1.372 -0.986,-2.032l-4.104,-9.142c-0.059,-0.142 -0.197,-0.656 -0.414,-0.656c-0.257,0 -0.315,0.284 -1.48,2.521l-4.723,9.059c-0.513,1.013 -1.44,0.712 -1.44,1.085c0,0.107 0.059,0.196 0.177,0.196c0.513,0 1.047,-0.078 1.578,-0.078c0.553,0 1.106,0.078 1.658,0.078c0.257,0 0.532,0.052 0.532,-0.268c0,-0.461 -1.4,0.071 -1.4,-1.174c0,-0.231 0.079,-0.498 0.138,-0.624l1.262,-2.494c0.198,-0.373 0.553,-0.373 0.928,-0.373l4.341,0c0.552,0 0.671,0.267 0.869,0.676l0.637,1.461Z" style="fill:#fff;"/><path d="M168.865,50.434c0,-0.124 0.078,-0.8 -0.198,-0.818l-3.204,0c-1.219,0 -1.26,0.266 -1.613,1.245c-0.059,0.177 -0.08,0.409 -0.336,0.409c-0.119,0 -0.199,-0.124 -0.199,-0.213l0.219,-1.726c0.019,-0.212 0,-0.691 0.356,-0.691c1.534,0 3.048,0.077 5.588,0.077c3.581,0 5.4,-0.077 5.797,-0.077c0.451,0 0.549,0.105 0.569,0.514l0.098,1.421c0.02,0.18 0.039,0.392 -0.216,0.392c-0.728,0 0.334,-1.352 -1.677,-1.352l-2.83,0c-0.89,0 -0.792,-0.071 -0.792,0.872l0,9.07c0,1.494 1.603,0.907 1.603,1.459c0,0.053 0.02,0.213 -0.178,0.213c-0.475,0 -1.028,-0.077 -1.602,-0.077c-2.211,0 -2.585,0.077 -2.703,0.077c-0.177,0 -0.235,-0.054 -0.235,-0.232c0,-0.427 1.553,-0.249 1.553,-1.315l0,-9.248l0,0Z" style="fill:#fff;"/><path d="M183.863,48.486c3.709,0 4.735,1.367 5.306,1.367c0.158,0 0.277,-0.177 0.474,-0.177c0.217,0 0.217,0.284 0.277,1.441c0.039,0.943 0.216,1.531 -0.119,1.531c-0.237,0 -0.375,-0.463 -0.453,-0.588c-1.224,-1.904 -2.625,-3.062 -5.17,-3.062c-3.848,0 -5.703,2.315 -5.703,5.625c0,3.097 1.973,6.194 5.761,6.194c3.098,0 5.032,-1.78 5.328,-2.598c0.04,-0.125 0.159,-0.232 0.276,-0.232c0.1,0 0.198,0.107 0.178,0.195l-0.454,1.781c-0.02,0.071 -1.421,1.393 -5.859,1.393c-4.046,0 -6.946,-2.498 -6.946,-6.182c0,-3.682 2.939,-6.688 7.104,-6.688Z" style="fill:#fff;"/><path d="M192.751,50.166c-0.019,-1.295 -1.715,-0.94 -1.715,-1.332c0,-0.159 0.157,-0.194 0.315,-0.194c0.73,0 1.44,0.077 2.171,0.077c0.614,0 1.226,-0.077 1.836,-0.077c0.334,0 0.375,0.105 0.375,0.177c0,0.355 -1.419,0.018 -1.419,1.349l0,3.835c0,0.247 0,0.319 0.295,0.319l7.207,0c0.199,0 0.159,-0.445 0.159,-0.516l0,-3.638c0,-1.225 -1.477,-0.923 -1.477,-1.332c0,-0.106 0.039,-0.194 0.334,-0.194c0.65,0 1.676,0.076 2.051,0.076c0.733,0 1.03,-0.076 1.424,-0.076c0.513,0 0.552,0.177 0.552,0.283c0,0.32 -1.322,0.018 -1.322,1.243l0,9.425c0,1.3 1.795,0.979 1.795,1.424c0,0.053 -0.078,0.214 -0.217,0.214c-0.532,0 -1.144,-0.078 -1.856,-0.078c-1.264,0 -1.816,0.078 -2.19,0.078c-0.178,0 -0.474,0.052 -0.474,-0.233c0,-0.426 1.38,-0.177 1.38,-1.299l0,-4.27c0,-0.285 0.079,-0.444 -0.159,-0.444l-7.266,0c-0.236,0 -0.236,0.107 -0.236,0.302l0,4.431c0,1.21 1.871,0.818 1.871,1.369c0,0.09 -0.138,0.144 -0.315,0.144c-0.257,0 -1.694,-0.077 -2.743,-0.077c-1.401,0 -1.619,0.077 -1.697,0.077c-0.158,0 -0.218,-0.089 -0.218,-0.268c0,-0.515 1.54,0.071 1.54,-1.69l0,-9.105l-0.001,0Z" style="fill:#fff;"/><path d="M208.283,50.169c-0.021,-1.299 -1.598,-0.943 -1.598,-1.335c0,-0.159 0.039,-0.194 0.197,-0.194c0.73,0 1.44,0.077 2.173,0.077c0.612,0 1.224,-0.077 1.835,-0.077c0.317,0 0.376,0.035 0.376,0.177c0,0.427 -1.42,0.018 -1.42,1.352l0,9.549c0,1.209 1.756,0.8 1.756,1.333c0,0.124 -0.061,0.179 -0.396,0.179c-0.454,0 -1.301,-0.078 -2.151,-0.078c-1.207,0 -1.621,0.078 -1.897,0.078c-0.356,0 -0.415,-0.09 -0.415,-0.268c0,-0.515 1.54,0.071 1.54,-1.69l0,-9.103Z" style="fill:#fff;"/></g></g></svg>