<?xml version="1.0" encoding="UTF-8" standalone="no"?><!DOCTYPE svg PUBLIC "-//W3C//DTD SVG 1.1//EN" "http://www.w3.org/Graphics/SVG/1.1/DTD/svg11.dtd"><svg width="100%" height="100%" viewBox="0 0 220 111" version="1.1" xmlns="http://www.w3.org/2000/svg" xmlns:xlink="http://www.w3.org/1999/xlink" xml:space="preserve" xmlns:serif="http://www.serif.com/" style="fill-rule:evenodd;clip-rule:evenodd;stroke-linejoin:round;stroke-miterlimit:2;"><g id="Logos"><clipPath id="_clip1"><rect x="69.541" y="35.42" width="80.718" height="40.494"/></clipPath><g clip-path="url(#_clip1)"><path d="M104.759,73.062l45.499,-12.153l-40.809,-12.153l-4.69,24.306Z" style="fill:#fff;fill-rule:nonzero;"/><path d="M121.657,52.392l-4.604,15.335l-12.294,5.333l13.831,-21.464l3.067,0.796Z" style="fill:#ededed;fill-rule:nonzero;"/><path d="M115.385,63.669l-9.292,2.482l-1.334,6.909l10.626,-9.391Z" style="fill:#aaa;fill-rule:nonzero;"/><path d="M91.95,36.065c-7.733,-2.304 -15.058,1.745 -16.478,9.106l-5.931,30.743l45.844,-12.245l5.826,-18.89l-29.261,-8.714Zm7.4,12.635l-7.738,0c-1.414,0 -2.261,0.021 -2.543,0.06c-0.281,0.04 -0.444,0.177 -0.485,0.412c-0.04,0.237 0.363,0.461 1.218,0.671c0.374,0.104 0.685,0.194 0.934,0.275l4.316,1.138c1.718,0.497 2.911,1.198 3.576,2.101c0.665,0.903 0.855,2.181 0.564,3.832c-0.434,2.46 -1.449,4.154 -3.04,5.084c-1.59,0.931 -4.128,1.396 -7.609,1.396c-3.615,0 -6.972,-0.275 -10.068,-0.826l1.356,-4.793l6.992,0c1.936,0 3.134,-0.024 3.587,-0.076c0.453,-0.054 0.707,-0.222 0.758,-0.512c0.009,-0.052 0.01,-0.099 0.005,-0.139c-0.008,-0.039 -0.027,-0.078 -0.059,-0.116c-0.031,-0.038 -0.064,-0.072 -0.101,-0.1c-0.033,-0.025 -0.087,-0.057 -0.157,-0.098c-0.072,-0.039 -0.154,-0.062 -0.243,-0.077c-0.089,-0.013 -0.2,-0.045 -0.336,-0.098c-0.134,-0.054 -0.266,-0.092 -0.393,-0.118c-0.124,-0.027 -0.288,-0.072 -0.485,-0.138c-0.197,-0.065 -0.396,-0.124 -0.598,-0.176l-4.111,-1.18c-1.917,-0.575 -3.137,-1.374 -3.663,-2.394c-0.526,-1.023 -0.643,-2.37 -0.346,-4.047c0.33,-1.885 1.275,-3.311 2.836,-4.282c1.557,-0.969 3.987,-1.454 7.286,-1.454c3.902,0 7.203,0.291 9.904,0.865l-1.357,4.79Z" style="fill:#fff;fill-rule:nonzero;"/></g></g></svg>