<?xml version="1.0" encoding="UTF-8" standalone="no"?><!DOCTYPE svg PUBLIC "-//W3C//DTD SVG 1.1//EN" "http://www.w3.org/Graphics/SVG/1.1/DTD/svg11.dtd"><svg width="100%" height="100%" viewBox="0 0 220 110" version="1.1" xmlns="http://www.w3.org/2000/svg" xmlns:xlink="http://www.w3.org/1999/xlink" xml:space="preserve" xmlns:serif="http://www.serif.com/" style="fill-rule:evenodd;clip-rule:evenodd;stroke-linejoin:round;stroke-miterlimit:2;"><rect x="-1855" y="-1218" width="7301.84" height="5695.95"/><g id="Logos"><path id="path3209" d="M150.071,43.431c0,0 0,0 0,0.001c0,1.188 -0.953,2.167 -2.112,2.167c-1.158,0 -2.112,-0.979 -2.112,-2.167l0,-0.003c0,-1.188 0.954,-2.167 2.112,-2.167c1.159,0 2.112,0.979 2.112,2.167c0,0.001 0,0.001 0,0.002Z" style="fill:#fff;fill-rule:nonzero;"/><rect id="rect3211" x="181.985" y="52.912" width="5.376" height="5.486" style="fill:#fff;"/><rect id="rect3213" x="75.363" y="52.912" width="5.376" height="5.486" style="fill:#fff;"/><rect id="rect3215" x="59.238" y="52.912" width="5.376" height="5.486" style="fill:#fff;"/><rect id="rect3217" x="43.357" y="52.912" width="5.376" height="5.486" style="fill:#fff;"/><rect id="rect3219" x="26.911" y="52.912" width="5.376" height="5.486" style="fill:#fff;"/><path id="path3221" d="M39.822,41.961l0.638,0c4.12,0 6.04,2.204 6.842,8.081l1.276,-0.056l-0.17,-9.325l-20.964,0l-0.206,9.325l1.227,0.056c0.213,-2.203 0.468,-3.39 1.021,-4.577c0.979,-2.204 3.02,-3.504 5.53,-3.504l0.893,0l0,20.288c0,2.148 -0.128,2.826 -0.638,3.334c-0.425,0.396 -1.276,0.566 -2.255,0.566l-0.978,0l0,1.356l11.655,0l0,-1.356l-0.984,0c-0.973,0 -1.829,-0.17 -2.249,-0.566c-0.51,-0.508 -0.637,-1.187 -0.637,-3.334l0,-20.288" style="fill:#fff;fill-rule:nonzero;"/><path id="path3223" d="M95.276,67.505l6.792,-23.7l0,18.598c0,2.03 -0.115,2.743 -0.576,3.237c-0.346,0.384 -1.147,0.549 -2.035,0.549l-0.346,0l0,1.316l9.601,0l0,-1.316l-0.5,0c-0.883,0 -1.689,-0.165 -2.035,-0.549c-0.461,-0.494 -0.576,-1.207 -0.576,-3.237l0,-15.854c0,-2.03 0.115,-2.798 0.576,-3.292c0.384,-0.329 1.152,-0.549 2.035,-0.549l0.5,0l0,-1.262l-7.45,0l-5.607,19.147l-5.486,-19.147l-7.412,0l0,1.262l0.691,0c2.036,0 2.419,0.439 2.419,3.073l0,15.086c0,2.414 -0.115,3.401 -0.46,4.115c-0.384,0.713 -1.196,1.207 -2.036,1.207l-0.614,0l0,1.316l7.91,0l0,-1.316l-0.499,0c-0.998,0 -1.805,-0.385 -2.271,-1.153c-0.455,-0.768 -0.57,-1.481 -0.57,-4.169l0,-17.061l6.753,23.699l1.196,0" style="fill:#fff;fill-rule:nonzero;"/><path id="path3225" d="M116.968,48.962c-4.762,0 -7.872,3.731 -7.872,9.601c0,5.651 3.11,9.491 7.752,9.491c4.684,0 7.795,-3.84 7.795,-9.546c0,-5.651 -3.111,-9.546 -7.675,-9.546m-0.153,1.262c1.377,0 2.567,0.877 3.22,2.359c0.614,1.371 0.883,3.237 0.883,5.925c0,5.54 -1.344,8.283 -4.07,8.283c-2.722,0 -4.033,-2.743 -4.033,-8.338c0,-2.634 0.274,-4.499 0.889,-5.87c0.609,-1.426 1.843,-2.359 3.111,-2.359" style="fill:#fff;fill-rule:nonzero;"/><path id="path3227" d="M131.024,41.172l-5.454,0.274l0,1.207l0.263,0c1.614,0 1.965,0.549 1.965,3.127l0,17.83c0,2.304 -0.077,2.908 -0.384,3.895l1.267,0c0.954,-1.591 1.19,-1.865 1.575,-1.865c0.186,0 0.372,0.055 0.647,0.329c1.887,1.536 2.693,1.865 4.422,1.865c4.141,0 7.137,-4.005 7.137,-9.71c0,-5.377 -2.771,-8.997 -6.913,-8.997c-2.15,0 -3.719,1.042 -4.525,2.907l0,-10.862m3.982,9.326c2.464,0 3.731,2.633 3.731,7.79c0,5.431 -1.306,8.229 -3.802,8.229c-2.765,0 -4.219,-2.853 -4.219,-8.064c0,-2.634 0.346,-4.444 1.152,-5.816c0.724,-1.316 1.959,-2.139 3.138,-2.139" style="fill:#fff;fill-rule:nonzero;"/><path id="path3229" d="M149.566,49.236l-5.601,0.329l0,1.207l0.423,0c1.607,0 1.953,0.549 1.953,3.073l0,9.271c0,2.524 -0.346,3.128 -1.953,3.128l-0.609,0l0,1.261l8.361,0l0,-1.261l-0.604,0c-1.618,0 -1.969,-0.549 -1.969,-3.128l0,-13.88" style="fill:#fff;fill-rule:nonzero;"/><path id="path3231" d="M159.282,41.172l-5.601,0.274l0,1.207l0.417,0c1.613,0 1.958,0.549 1.958,3.127l0,17.336c0,2.579 -0.345,3.127 -1.958,3.127l-0.609,0l0,1.262l8.366,0l0,-1.262l-0.615,0c-1.618,0 -1.958,-0.549 -1.958,-3.127l0,-21.944" style="fill:#fff;fill-rule:nonzero;"/><path id="path3233" d="M177.134,58.398c-0.187,-5.815 -2.952,-9.436 -7.132,-9.436c-4.038,0 -6.951,3.95 -6.951,9.436c0,5.87 2.875,9.656 7.33,9.656c2.88,0 4.877,-1.537 6.528,-4.938l-1.152,-0.604c-1.344,2.853 -2.688,4.005 -4.762,4.005c-3.033,0 -4.333,-2.413 -4.373,-8.119l10.512,0m-10.473,-1.372c0.033,-4.114 1.371,-6.693 3.527,-6.693c2.151,0 3.418,2.524 3.38,6.693l-6.907,0" style="fill:#fff;fill-rule:nonzero;"/><path id="path3239" d="M189.378,48.515c0.324,0 0.641,0.083 0.95,0.249c0.309,0.167 0.55,0.405 0.722,0.715c0.173,0.31 0.259,0.633 0.259,0.969c0,0.333 -0.085,0.653 -0.256,0.961c-0.169,0.307 -0.408,0.546 -0.714,0.715c-0.307,0.17 -0.627,0.255 -0.962,0.255c-0.335,0 -0.655,-0.084 -0.962,-0.255c-0.306,-0.169 -0.545,-0.408 -0.715,-0.715c-0.171,-0.308 -0.257,-0.628 -0.257,-0.961c0,-0.336 0.087,-0.659 0.26,-0.969c0.174,-0.31 0.415,-0.548 0.723,-0.715c0.311,-0.166 0.627,-0.249 0.952,-0.249Zm0,0.322c-0.271,0 -0.536,0.069 -0.792,0.208c-0.257,0.139 -0.458,0.338 -0.603,0.596c-0.145,0.258 -0.217,0.528 -0.217,0.807c0,0.278 0.071,0.544 0.214,0.799c0.142,0.255 0.341,0.454 0.597,0.596c0.256,0.143 0.523,0.214 0.801,0.214c0.278,0 0.544,-0.071 0.8,-0.214c0.256,-0.142 0.455,-0.34 0.596,-0.596c0.142,-0.255 0.213,-0.521 0.213,-0.799c0,-0.279 -0.072,-0.549 -0.217,-0.807c-0.144,-0.258 -0.344,-0.457 -0.602,-0.596c-0.257,-0.139 -0.521,-0.208 -0.79,-0.208Zm-0.848,2.677l0,-2.079l0.716,0c0.244,0 0.421,0.019 0.53,0.058c0.11,0.038 0.197,0.105 0.262,0.201c0.065,0.095 0.098,0.197 0.098,0.305c0,0.152 -0.055,0.284 -0.164,0.397c-0.108,0.112 -0.252,0.175 -0.432,0.189c0.074,0.031 0.132,0.068 0.177,0.11c0.084,0.082 0.186,0.22 0.307,0.412l0.254,0.408l-0.411,0l-0.185,-0.328c-0.146,-0.257 -0.262,-0.418 -0.35,-0.483c-0.061,-0.049 -0.151,-0.073 -0.269,-0.073l-0.197,0l0,0.884l-0.336,0l0,-0.001Zm0.336,-1.169l0.409,0c0.195,0 0.328,-0.029 0.4,-0.087c0.071,-0.058 0.106,-0.135 0.106,-0.232c0,-0.061 -0.017,-0.117 -0.051,-0.165c-0.035,-0.049 -0.082,-0.086 -0.143,-0.11c-0.061,-0.024 -0.174,-0.036 -0.338,-0.036l-0.383,0l0,0.63Z" style="fill:#fff;fill-rule:nonzero;"/></g></svg>