<?xml version="1.0" encoding="UTF-8" standalone="no"?><!DOCTYPE svg PUBLIC "-//W3C//DTD SVG 1.1//EN" "http://www.w3.org/Graphics/SVG/1.1/DTD/svg11.dtd"><svg width="100%" height="100%" viewBox="0 0 220 110" version="1.1" xmlns="http://www.w3.org/2000/svg" xmlns:xlink="http://www.w3.org/1999/xlink" xml:space="preserve" xmlns:serif="http://www.serif.com/" style="fill-rule:evenodd;clip-rule:evenodd;stroke-linejoin:round;stroke-miterlimit:2;"><rect x="-1855" y="-1439" width="7301.84" height="5695.95"/><g id="Logos"><path id="XMLID_13_" d="M36.424,44.527l0,12.124c0,2.961 -1.448,5.588 -3.672,7.216c0.967,-2.295 1.519,-5.101 1.519,-7.768l0,-11.572l-3.088,0l0,11.572c0,2.347 -0.523,4.908 -1.399,6.849c-0.238,0.529 -0.486,0.972 -0.73,1.336l0,-19.757l-0.024,0l-3.065,0l-0.023,0l0,19.757c-0.245,-0.364 -0.492,-0.806 -0.731,-1.336c-0.875,-1.941 -1.398,-4.502 -1.398,-6.849l0,-11.572l-3.089,0l0,11.572c0,2.667 0.552,5.473 1.52,7.768c-2.224,-1.628 -3.672,-4.255 -3.672,-7.216l0,-12.124l-3.089,0l0,12.124c0,6.568 5.293,11.919 11.837,12.021c0.055,0.003 0.111,0.004 0.166,0.004l0,0.001c0.004,0 0.008,-0.001 0.012,-0.001c0.004,0 0.008,0.001 0.012,0.001l0,-0.001c0.055,0 0.11,-0.001 0.165,-0.004c6.545,-0.102 11.837,-5.453 11.837,-12.021l0,-12.124l-3.088,0Z" style="fill:#fff;fill-rule:nonzero;"/><path id="XMLID_12_" d="M140.639,50.523l-6.824,0l-1.011,0l-0.776,0c-0.132,0 -0.24,0.107 -0.24,0.239l0,11.679c0,0.132 0.108,0.239 0.24,0.239l8.611,0c0.132,0 0.239,-0.107 0.239,-0.239l0,-1.787c0,-0.133 -0.107,-0.24 -0.239,-0.24l-6.584,0l0,-2.679l6.584,0c0.132,0 0.239,-0.107 0.239,-0.24l0,-1.788c0,-0.132 -0.107,-0.239 -0.239,-0.239l-6.584,0l0,-2.679l6.584,0c0.132,0 0.239,-0.107 0.239,-0.239l0,-1.788c0,-0.132 -0.107,-0.239 -0.239,-0.239" style="fill:#fff;fill-rule:nonzero;"/><path id="XMLID_11_" d="M159.224,60.414l-5.441,0l0,-9.652c0,-0.132 -0.107,-0.239 -0.239,-0.239l-1.788,0c-0.132,0 -0.239,0.107 -0.239,0.239l0,11.679c0,0.132 0.107,0.239 0.239,0.239l7.468,0c0.132,0 0.239,-0.107 0.239,-0.239l0,-1.788c0,-0.132 -0.107,-0.239 -0.239,-0.239" style="fill:#fff;fill-rule:nonzero;"/><path id="XMLID_10_" d="M178.38,60.414l-5.441,0l0,-9.652c0,-0.132 -0.107,-0.239 -0.239,-0.239l-1.788,0c-0.132,0 -0.239,0.107 -0.239,0.239l0,11.679c0,0.132 0.107,0.239 0.239,0.239l7.468,0c0.132,0 0.24,-0.107 0.24,-0.239l0,-1.788c0,-0.132 -0.107,-0.239 -0.24,-0.239" style="fill:#fff;fill-rule:nonzero;"/><path id="XMLID_1_" d="M98.951,50.523l-3.436,0l-1.012,0l-0.775,0c-0.132,0 -0.239,0.107 -0.239,0.239l0,11.678c0,0.133 0.107,0.241 0.239,0.241l5.223,0l0,-0.001c1.99,-0.001 3.603,-1.614 3.603,-3.604c0,-0.959 -0.377,-1.828 -0.988,-2.474c0.611,-0.646 0.988,-1.515 0.988,-2.474c0,-1.99 -1.613,-3.604 -3.603,-3.605m0,9.892l0,-0.001l-3.197,0l0,-2.68l3.195,0l0,0.001c0.74,0 1.34,0.6 1.34,1.341c0.001,0.739 -0.599,1.339 -1.338,1.339m-0.002,-4.947l-3.195,0l0,-2.679l3.197,0l0,-0.002c0.739,0.001 1.338,0.601 1.338,1.341c0,0.74 -0.6,1.34 -1.34,1.34" style="fill:#fff;fill-rule:nonzero;"/><path id="XMLID_2_" d="M119.511,57.734l-0.155,-0.3c1.277,-0.554 2.171,-1.825 2.171,-3.306c0,-1.99 -1.613,-3.604 -3.603,-3.605l-3.459,0l-1.013,0l-0.776,0c-0.01,0 -0.019,0.002 -0.029,0.003c-0.006,0.001 -0.012,0.001 -0.019,0.002c-0.004,0.001 -0.01,0.003 -0.015,0.004c-0.101,0.028 -0.176,0.12 -0.176,0.23l0,11.678c0,0.133 0.107,0.241 0.239,0.241l1.793,0c0.132,0 0.239,-0.108 0.239,-0.241l0,-2.026l0,-2.68l2.037,0l2.493,4.817c0.041,0.08 0.123,0.129 0.213,0.129l2.227,0c0.084,0 0.162,-0.044 0.204,-0.115c0.044,-0.071 0.047,-0.16 0.009,-0.235l-2.38,-4.596Zm-1.588,-2.266l-3.215,0l0,-2.679l3.216,0l0,-0.002c0.739,0.001 1.339,0.601 1.339,1.341c0,0.74 -0.601,1.34 -1.34,1.34" style="fill:#fff;fill-rule:nonzero;"/><path id="XMLID_4_" d="M65.38,50.762c0,-0.132 -0.107,-0.239 -0.239,-0.239l-1.788,0c-0.132,0 -0.239,0.107 -0.239,0.239l0,4.924l-0.004,1.319l0.002,0c-0.004,1.878 -1.526,3.398 -3.404,3.398c-1.88,0 -3.404,-1.524 -3.404,-3.404l-0.001,0l-0.002,-1.304l0,-4.933c0,-0.132 -0.108,-0.239 -0.24,-0.239l-1.787,0c-0.132,0 -0.239,0.107 -0.239,0.239l0,6.253l0.001,0c0.006,3.128 2.543,5.661 5.672,5.661c3.133,0 5.674,-2.54 5.674,-5.673l-0.002,0l0,-6.241Z" style="fill:#fff;fill-rule:nonzero;"/><path id="XMLID_3_" d="M84.299,50.523l-1.788,0c-0.072,0 -0.135,0.032 -0.18,0.083l-3.47,3.47l-3.438,-3.438c-0.042,-0.07 -0.117,-0.118 -0.205,-0.118l-1.788,0c-0.132,0 -0.239,0.107 -0.239,0.239l0,11.679c0,0.132 0.107,0.24 0.239,0.24l1.788,0c0.132,0 0.239,-0.108 0.239,-0.24l0,-8.561l3.217,3.217l0,0.001l0.003,0c0.037,0.064 0.105,0.108 0.184,0.108c0.081,0 0.147,-0.044 0.186,-0.109l0.001,0l0.007,-0.006l3.217,-3.217l0,8.57c0,0.132 0.107,0.239 0.239,0.239l1.788,0c0.132,0 0.239,-0.107 0.239,-0.239l0,-11.679c0,-0.132 -0.107,-0.239 -0.239,-0.239" style="fill:#fff;fill-rule:nonzero;"/><path id="XMLID_14_" d="M199.474,62.397l-0.018,-0.054l-3.674,-11.588l-0.022,-0.072l-0.001,-0.003l-0.001,-0.001c-0.001,-0.003 -0.003,-0.007 -0.004,-0.011c-0.003,-0.011 -0.012,-0.02 -0.017,-0.03c-0.005,-0.01 -0.009,-0.019 -0.015,-0.027c-0.009,-0.011 -0.02,-0.02 -0.03,-0.031c-0.008,-0.006 -0.013,-0.013 -0.022,-0.019c-0.013,-0.009 -0.027,-0.016 -0.042,-0.022c-0.008,-0.004 -0.014,-0.009 -0.022,-0.011c-0.023,-0.008 -0.048,-0.012 -0.074,-0.012l-0.568,0l-0.913,0l-0.497,0l-0.912,0l-0.568,0c-0.026,0 -0.051,0.004 -0.074,0.012c-0.008,0.002 -0.015,0.007 -0.022,0.011c-0.015,0.006 -0.03,0.013 -0.043,0.022c-0.008,0.006 -0.014,0.013 -0.021,0.019c-0.01,0.011 -0.021,0.02 -0.03,0.031c-0.006,0.008 -0.011,0.018 -0.015,0.027c-0.006,0.01 -0.013,0.019 -0.018,0.03c-0.001,0.004 -0.003,0.008 -0.003,0.011l-0.001,0.001c0,0 0,0.002 -0.001,0.003l-0.023,0.072l-3.675,11.588l-0.016,0.054c-0.003,0.015 -0.005,0.03 -0.005,0.044c0,0.132 0.107,0.24 0.239,0.24l1.879,0c0.098,0 0.182,-0.059 0.219,-0.143l0.016,-0.052l0.372,-1.179l0.384,-1.216l0.037,-0.117l5.06,0l0.037,0.117l0.383,1.216l0.372,1.179l0.017,0.052c0.037,0.084 0.12,0.143 0.218,0.143l1.879,0c0.132,0 0.239,-0.108 0.239,-0.24c0,-0.014 -0.001,-0.029 -0.004,-0.044m-7.486,-4.689l1.296,-4.108l0.003,0c0.01,-0.03 0.024,-0.058 0.037,-0.087c0.074,-0.194 0.259,-0.332 0.479,-0.332c0.219,0 0.405,0.138 0.478,0.332c0.014,0.029 0.028,0.057 0.038,0.087l0.003,0l1.296,4.108l-3.63,0Z" style="fill:#fff;fill-rule:nonzero;"/></g></svg>