<?xml version="1.0" encoding="UTF-8" standalone="no"?><!DOCTYPE svg PUBLIC "-//W3C//DTD SVG 1.1//EN" "http://www.w3.org/Graphics/SVG/1.1/DTD/svg11.dtd"><svg width="100%" height="100%" viewBox="0 0 220 110" version="1.1" xmlns="http://www.w3.org/2000/svg" xmlns:xlink="http://www.w3.org/1999/xlink" xml:space="preserve" xmlns:serif="http://www.serif.com/" style="fill-rule:evenodd;clip-rule:evenodd;stroke-linejoin:round;stroke-miterlimit:2;"><rect x="-1855" y="-1108" width="7301.84" height="5695.95"/><g id="Logos"><g><path d="M46.453,38.724c4.824,-2.356 10.677,-2.372 15.546,-0.135c-3.765,-0.313 -7.529,0.935 -10.664,2.97c-3.257,2.097 -5.654,5.462 -6.63,9.203c-0.69,2.667 -0.573,5.573 0.531,8.114c1.518,3.625 5.215,6.321 9.192,6.332c2.269,0.024 4.557,-0.729 6.306,-2.188c2.088,-1.721 3.417,-4.338 3.553,-7.042c0.099,-2.194 -0.439,-4.493 -1.849,-6.221c-1.533,-1.911 -3.866,-2.977 -6.199,-3.543c-0.232,-3.514 2.497,-6.852 5.914,-7.538c3.908,1.848 7.115,5.132 8.847,9.094c1.692,3.806 1.998,8.2 0.866,12.207c-1.015,3.652 -3.219,6.963 -6.194,9.312c-3.158,2.53 -7.186,3.947 -11.235,3.941c-3.561,0.036 -7.121,-1.019 -10.088,-2.985c-3.63,-2.375 -6.363,-6.09 -7.515,-10.274c-1.067,-3.798 -0.851,-7.948 0.619,-11.61c1.656,-4.188 4.94,-7.694 9,-9.637Z" style="fill:#fff;fill-rule:nonzero;"/><path d="M136.571,45.695c0.583,-0.994 1.689,-1.587 2.814,-1.72c1.303,-0.164 2.648,-0.01 3.872,0.476c-0.109,0.949 -0.255,1.894 -0.381,2.844c-0.927,-0.355 -2.083,-0.632 -2.979,-0.069c-0.695,0.47 -0.643,1.389 -0.618,2.127c0.947,-0.006 1.895,-0.001 2.844,-0.004c0,0.924 0,1.848 -0.001,2.771c-0.945,-0.001 -1.889,0.003 -2.832,-0.004c-0.005,3.499 -0.002,6.998 -0.002,10.496c-1.133,0.002 -2.266,-0.003 -3.397,0.004c-0.004,-3.502 0.003,-7.002 -0.004,-10.502c-0.589,0.009 -1.178,0.006 -1.767,0.006c-0.003,-0.924 -0.001,-1.847 0,-2.771c0.589,0.001 1.179,0 1.77,0.004c-0.033,-1.243 -0.002,-2.568 0.681,-3.658Z" style="fill:#fff;fill-rule:nonzero;"/><path d="M112.454,52.291c-0.98,0.574 -1.515,1.682 -1.679,2.77c-0.112,1.07 -0.034,2.187 0.407,3.181c0.331,0.751 0.954,1.409 1.758,1.644c1.082,0.318 2.3,-0.144 2.982,-1.024c-0.018,-2.199 -0.001,-4.397 -0.009,-6.596c-1.094,-0.416 -2.404,-0.584 -3.459,0.025Zm3.462,-8.031c1.139,0.007 2.28,0.004 3.418,0.003l0,18.351c-1.044,-0.002 -2.088,-0.007 -3.131,0.005c-0.058,-0.342 -0.106,-0.685 -0.139,-1.029c-1.567,1.76 -4.47,1.682 -6.221,0.242c-1.732,-1.388 -2.461,-3.702 -2.449,-5.859c-0.044,-2.291 0.901,-4.74 2.891,-6.009c1.642,-1.098 3.787,-1.152 5.631,-0.57c-0.001,-1.712 -0.003,-3.423 0,-5.134Z" style="fill:#fff;fill-rule:nonzero;"/><path d="M98.461,52.013c-1.002,0.328 -1.677,1.269 -1.933,2.259c-0.325,1.248 -0.3,2.614 0.183,3.818c0.317,0.814 0.972,1.547 1.841,1.769c0.945,0.285 2.044,0.006 2.704,-0.736c0.885,-0.957 1.101,-2.337 1.036,-3.596c-0.051,-1.111 -0.394,-2.297 -1.276,-3.036c-0.689,-0.607 -1.696,-0.726 -2.555,-0.478Zm-0.877,-2.791c1.689,-0.375 3.581,-0.261 5.064,0.702c1.545,0.951 2.534,2.63 2.869,4.389c0.366,1.972 0.072,4.105 -1.011,5.815c-0.825,1.326 -2.193,2.322 -3.732,2.634c-1.543,0.302 -3.233,0.165 -4.606,-0.649c-1.308,-0.741 -2.258,-2.02 -2.743,-3.43c-0.739,-2.064 -0.617,-4.436 0.387,-6.393c0.748,-1.497 2.145,-2.66 3.772,-3.068Z" style="fill:#fff;fill-rule:nonzero;"/><path d="M125.591,57.061c-0.685,0.392 -1.014,1.285 -0.772,2.031c0.211,0.597 0.86,0.902 1.459,0.931c0.976,0.112 1.927,-0.307 2.661,-0.928c-0.008,-0.904 -0.002,-1.806 -0.005,-2.709c-1.125,0.121 -2.319,0.134 -3.343,0.675Zm-3.236,-6.433c1.835,-1.342 4.242,-1.89 6.475,-1.455c1.139,0.215 2.209,0.893 2.79,1.911c0.671,1.103 0.752,2.436 0.719,3.694c-0.002,2.611 0.001,5.222 -0.002,7.833c-1.043,-0.004 -2.086,-0.004 -3.13,0c-0.034,-0.329 -0.077,-0.656 -0.134,-0.981c-1.726,1.746 -4.885,1.694 -6.575,-0.076c-0.977,-1.03 -1.344,-2.576 -0.968,-3.94c0.304,-1.17 1.246,-2.068 2.314,-2.574c1.578,-0.75 3.348,-0.903 5.065,-1.036c0.04,-0.748 -0.142,-1.669 -0.918,-1.982c-1.542,-0.661 -3.259,0.075 -4.514,1.012c-0.367,-0.807 -0.753,-1.603 -1.122,-2.406Z" style="fill:#fff;fill-rule:nonzero;"/><path d="M148.402,51.986c-0.885,0.265 -1.564,1.016 -1.876,1.869c-0.466,1.279 -0.48,2.718 -0.042,4.005c0.216,0.606 0.55,1.196 1.079,1.582c1,0.768 2.558,0.69 3.451,-0.215c0.893,-0.875 1.16,-2.19 1.167,-3.397c-0.04,-1.225 -0.35,-2.577 -1.356,-3.378c-0.661,-0.565 -1.603,-0.665 -2.423,-0.466Zm-0.876,-2.782c1.654,-0.349 3.494,-0.231 4.949,0.699c1.572,0.948 2.583,2.658 2.902,4.442c0.393,1.864 0.068,3.869 -0.859,5.528c-0.779,1.407 -2.152,2.48 -3.72,2.855c-1.679,0.368 -3.547,0.208 -5.004,-0.758c-1.466,-0.927 -2.403,-2.524 -2.772,-4.192c-0.487,-2.027 -0.152,-4.254 0.959,-6.025c0.79,-1.265 2.091,-2.204 3.545,-2.549Z" style="fill:#fff;fill-rule:nonzero;"/><path d="M160.949,50.385c1.382,-1.114 3.252,-1.601 4.998,-1.249c1.13,0.178 2.183,0.858 2.753,1.857c0.746,1.273 0.874,2.792 0.841,4.236c-0.001,2.46 0,4.921 0,7.382c-1.139,0.005 -2.277,-0.003 -3.417,0.005c-0.003,-2.463 -0.004,-4.925 0.002,-7.388c-0.002,-0.905 -0.107,-1.896 -0.718,-2.613c-0.412,-0.499 -1.071,-0.753 -1.71,-0.716c-1.036,-0.038 -1.89,0.652 -2.618,1.306c0.003,3.136 0,6.273 0.002,9.411c-1.136,-0.005 -2.271,-0.005 -3.406,-0.002c0,-4.421 0,-8.844 0.001,-13.265c1.037,0.003 2.075,0.004 3.113,-0.002c0.058,0.344 0.108,0.691 0.159,1.038Z" style="fill:#fff;fill-rule:nonzero;"/><path d="M176.07,52.381c-0.619,0.483 -0.893,1.253 -0.996,2.005c1.698,0.001 3.396,0.001 5.095,0c-0.098,-0.957 -0.535,-1.99 -1.465,-2.403c-0.855,-0.462 -1.918,-0.203 -2.634,0.398Zm-2.71,-1.506c2.102,-2.313 6.182,-2.53 8.428,-0.317c1.585,1.656 1.905,4.087 1.835,6.286c-2.866,-0.014 -5.733,-0.005 -8.598,-0.005c-0.003,1.16 0.589,2.376 1.714,2.816c1.794,0.695 3.901,0.259 5.446,-0.832c0.268,0.936 0.623,1.844 0.878,2.785c-1.407,0.915 -3.11,1.234 -4.763,1.301c-1.754,0.044 -3.621,-0.462 -4.855,-1.771c-1.488,-1.498 -1.987,-3.714 -1.832,-5.766c0.057,-1.632 0.623,-3.289 1.747,-4.497Z" style="fill:#fff;fill-rule:nonzero;"/><path d="M78.695,49.35c1.219,0 2.437,0.002 3.655,-0.001c1.064,2.72 2.146,5.435 3.212,8.157c0.079,0.198 0.175,0.39 0.273,0.579c1.108,-2.911 2.216,-5.824 3.336,-8.732c1.16,-0.007 2.32,0.002 3.479,-0.004c-1.803,4.416 -3.604,8.833 -5.399,13.255c-0.99,0.021 -1.981,0.001 -2.972,0.01c-1.874,-4.415 -3.706,-8.85 -5.584,-13.264Z" style="fill:#fff;fill-rule:nonzero;"/></g></g></svg>