<?xml version="1.0" encoding="UTF-8" standalone="no"?><!DOCTYPE svg PUBLIC "-//W3C//DTD SVG 1.1//EN" "http://www.w3.org/Graphics/SVG/1.1/DTD/svg11.dtd"><svg width="100%" height="100%" viewBox="0 0 220 110" version="1.1" xmlns="http://www.w3.org/2000/svg" xmlns:xlink="http://www.w3.org/1999/xlink" xml:space="preserve" xmlns:serif="http://www.serif.com/" style="fill-rule:evenodd;clip-rule:evenodd;stroke-linejoin:round;stroke-miterlimit:2;"><rect x="-2075" y="-1108" width="7301.84" height="5695.95"/><g id="Logos"><clipPath id="_clip1"><rect x="52.4" y="28.544" width="115" height="53.077"/></clipPath><g clip-path="url(#_clip1)"><path d="M136.907,47.384l11.109,0l-13.156,17.205l-11.113,0l13.16,-17.205Zm-0.835,-1.68l-13.985,18.295c-0.335,0.436 -0.39,0.988 -0.145,1.475c0.237,0.482 0.737,0.794 1.267,0.794l12.485,0l14.098,-18.434c0.308,-0.413 0.353,-0.949 0.133,-1.402c-0.225,-0.451 -0.684,-0.728 -1.202,-0.728l-12.651,0Zm-39.94,-8.944c0.072,-0.12 0.205,-0.201 0.355,-0.201l7.286,0l1.046,-6.013c0.035,-0.187 0.199,-0.319 0.394,-0.319l6.818,-0.005c0.125,0 0.227,0.038 0.298,0.119c0.075,0.093 0.112,0.216 0.094,0.326l-0.678,3.892l32.055,0.023c0.174,0 0.298,0.105 0.359,0.205c0.037,0.074 0.088,0.225 -0.017,0.369l-2.895,3.779l23.758,-0.007c0.138,0 0.237,0.087 0.276,0.165c0.038,0.056 0.069,0.173 -0.004,0.28l-19.745,25.843c-0.224,0.282 -0.215,0.997 -0.058,1.303c0.163,0.307 0.726,0.746 1.079,0.746l13.889,0.014c0.161,0 0.255,0.084 0.299,0.133c0.075,0.087 0.108,0.203 0.09,0.315l-1.056,6.039c-0.034,0.183 -0.199,0.316 -0.395,0.316l-52.839,0l-0.868,-0.005c0.064,0.299 0.09,0.609 0.09,0.926c0,2.717 -2.202,4.919 -4.923,4.919c-2.719,0 -4.923,-2.202 -4.923,-4.919c0,-2.718 2.204,-4.918 4.923,-4.918c1.857,0 3.476,1.029 4.318,2.548l21.535,-28.225c0.346,-0.729 0.173,-0.99 -0.013,-1.419c-0.139,-0.324 -0.659,-0.657 -1.225,-0.651l-15.073,0l-3.852,21.988c-0.037,0.172 -0.203,0.293 -0.388,0.293l-6.823,0c-0.158,0 -0.255,-0.085 -0.301,-0.135c-0.042,-0.049 -0.117,-0.158 -0.088,-0.315l4.184,-23.867l-17.018,33.351c-0.153,0.268 -0.436,0.441 -0.755,0.441l-5.796,0.028c-0.207,0 -0.377,-0.148 -0.396,-0.325l-1.598,-24.228l-12.573,24.09c-0.15,0.266 -0.441,0.437 -0.752,0.437l-5.879,-0.003c-0.202,0 -0.373,-0.149 -0.39,-0.34l-3.835,-36.778c-0.009,-0.115 0.031,-0.228 0.1,-0.306c0.072,-0.071 0.174,-0.11 0.298,-0.11l7.902,0c0.216,0 0.397,0.175 0.397,0.406l1.186,23.993l11.622,-24.192c0.063,-0.126 0.203,-0.207 0.351,-0.207l7.204,-0.031c0.199,0 0.377,0.15 0.39,0.327l1.171,24.179l11.389,-24.274Zm8.745,-8.216c-0.813,0 -1.505,0.581 -1.651,1.388l-0.868,4.945l-6.128,0c-0.625,0 -1.184,0.337 -1.503,0.921l-8.625,18.394l-0.857,-17.783c-0.073,-0.861 -0.802,-1.532 -1.673,-1.532l-7.843,0c-0.627,0 -1.204,0.349 -1.503,0.924l-8.869,18.464l-0.876,-17.713c0,-0.925 -0.754,-1.674 -1.677,-1.674l-8.725,0c-0.476,0 -0.919,0.186 -1.239,0.523c-0.309,0.339 -0.469,0.813 -0.436,1.307l3.911,37.562c0.094,0.85 0.812,1.491 1.67,1.491l6.485,0.003c0.796,0 1.521,-0.435 1.896,-1.141l9.904,-18.969l1.221,18.616c0.098,0.85 0.814,1.491 1.666,1.491l6.438,0.003c0.792,0 1.524,-0.44 1.898,-1.149l12.036,-23.593l-2.331,13.305c-0.088,0.491 0.049,0.989 0.365,1.376c0.317,0.378 0.788,0.597 1.284,0.597l7.629,0c0.793,0 1.467,-0.552 1.644,-1.346l3.67,-20.94l13.105,0l-19.804,25.915c-1.186,-0.991 -2.685,-1.531 -4.237,-1.531c-3.642,0 -6.615,2.967 -6.615,6.61c0,3.647 2.973,6.613 6.615,6.613c3.347,0 6.195,-2.556 6.58,-5.858l52.285,-0.003c0.824,0 1.515,-0.585 1.65,-1.39l1.197,-6.805c0.083,-0.489 -0.056,-0.991 -0.372,-1.367c-0.315,-0.376 -0.783,-0.591 -1.283,-0.591l-13.559,-0.013l19.769,-25.863c0.337,-0.502 0.367,-1.107 0.089,-1.627c-0.272,-0.526 -0.816,-0.856 -1.41,-0.856l-21.156,0l1.341,-1.751c0.352,-0.525 0.387,-1.165 0.091,-1.724c-0.296,-0.548 -0.863,-0.897 -1.479,-0.897l-30.857,0l0.423,-2.373c0.08,-0.485 -0.067,-1 -0.39,-1.38c-0.314,-0.374 -0.765,-0.579 -1.27,-0.579l-7.626,0Z" style="fill:#fff;fill-rule:nonzero;"/></g></g></svg>